# Blender 5.1.2
# www.blender.org
mtllib terrain.mtl
o terrain.001
v 2.484537 3.944732 -14.783143
v 4.672603 3.944732 -16.577843
v 4.672603 5.479512 -16.577843
v 4.026759 3.944732 -13.156201
v 6.214825 3.944732 -14.950900
v 6.214825 5.479512 -14.950900
v 2.484537 4.102666 -14.783143
v 4.453796 5.479512 -16.398373
v 2.765859 4.102666 -15.013890
v 2.765859 4.305725 -15.013890
v 3.047182 4.305725 -15.244637
v 3.047182 4.508784 -15.244637
v 3.328505 4.508784 -15.475384
v 3.328505 4.711843 -15.475384
v 3.609828 4.711843 -15.706131
v 3.609828 4.914901 -15.706131
v 3.891150 4.914901 -15.936878
v 3.891150 5.117960 -15.936878
v 4.172473 5.117960 -16.167625
v 4.172473 5.321019 -16.167625
v 4.453796 5.321019 -16.398373
v 5.996018 5.479512 -14.771430
v 4.026759 4.102666 -13.156201
v 5.996018 5.321019 -14.771430
v 5.714695 5.321019 -14.540684
v 5.714695 5.117960 -14.540684
v 5.433372 5.117960 -14.309937
v 5.433372 4.914901 -14.309937
v 5.152050 4.914901 -14.079189
v 5.152050 4.711843 -14.079189
v 4.870727 4.711843 -13.848442
v 4.870727 4.508784 -13.848442
v 4.589404 4.508784 -13.617696
v 4.589404 4.305725 -13.617696
v 4.308082 4.305725 -13.386949
v 4.308082 4.102666 -13.386949
v -12.540975 2.228188 8.151246
v -10.040964 2.228188 7.363865
v -11.303828 2.228188 10.544168
v -8.803820 2.228188 9.756787
v -6.472437 2.228188 7.740973
v -6.332658 2.228188 9.872279
v -4.800545 2.228188 7.611892
v -3.918737 2.228188 9.557250
v -3.084476 2.228188 6.970572
v -1.501020 2.228188 8.364175
v -1.568079 2.228188 5.474404
v 0.221023 2.228188 6.587472
v -0.368982 2.228188 3.142826
v 1.420120 2.228188 4.255895
v 0.830115 2.228188 1.344180
v 2.619217 2.228188 2.457249
v 2.650966 2.228188 -0.787548
v 4.440068 2.228188 0.325521
v 3.646038 2.228188 -2.863569
v 5.709957 2.228188 -2.439257
v 3.687095 2.231664 -4.350412
v 5.949974 2.231664 -4.882632
v 3.143684 2.227460 -5.442862
v 5.429867 2.228188 -6.618107
v -5.894299 2.228188 20.878792
v -3.367377 2.228188 20.414370
v -0.357953 2.228188 18.726685
v 2.088376 2.228188 15.116995
v 3.521177 2.228188 11.341279
v 6.017995 2.228188 9.123466
v 8.164523 2.228188 6.369094
v 8.776204 2.228188 4.132635
v 11.304382 2.228188 2.107857
v 12.762176 2.228188 -0.314320
v 13.188298 2.228188 -3.678455
v 12.807029 2.228188 -5.741792
v -3.388318 2.228188 4.070281
v -2.066844 2.228188 1.707024
v -4.692981 2.228188 5.060480
v -5.704165 2.228188 5.509672
v -7.014129 2.228188 5.759977
v -9.562286 2.228188 5.205065
v -11.614953 2.228188 4.917491
v -13.804014 2.228188 5.567553
v -1.284470 2.228188 -0.021478
v -0.101992 2.228188 -2.133154
v 2.117950 2.228188 -3.805987
v 9.612560 2.228188 -6.936362
v 7.505285 2.228188 -7.916179
v -8.599064 2.228188 15.711481
v -6.085598 2.228188 15.085578
v -3.345305 2.228188 14.299481
v -1.050608 2.228188 12.246837
v 1.210184 2.228188 9.987963
v 3.044271 2.228188 7.810327
v 4.792321 2.228188 5.312494
v 6.149783 2.228188 3.326107
v 7.872225 2.228188 1.216689
v 9.236066 2.228188 -1.376788
v 9.590262 2.228188 -4.295887
v 9.160501 2.228188 -6.049366
v 0.770768 4.034160 -9.231554
v 3.066087 4.034161 -10.491117
v 2.710004 4.034161 -11.537577
v 1.466408 4.034160 -8.260858
v 0.390435 4.034161 -10.995367
v 3.729540 4.034171 -9.665357
v 2.895793 4.034161 -12.271426
v 0.970240 4.034161 -12.749702
v 3.499461 4.034161 -13.002483
v 2.204003 4.034161 -14.238874
v 4.188526 4.034161 -13.606153
v 2.937249 4.034161 -14.891142
v 7.143949 5.403026 -15.667669
v 10.919046 5.403026 -13.168055
v 9.770791 5.403026 -14.370132
v 8.622539 5.403026 -15.446621
v 8.055923 5.403026 -15.641657
v 4.893695 5.403026 -16.231541
v 9.435552 5.403026 -16.507732
v 10.583805 5.403026 -15.431244
v 6.972088 5.403026 -16.993343
v 8.337757 5.403026 -16.948378
v 11.732059 5.403026 -14.229164
v 2.437575 3.966815 -11.473895
v 2.796507 3.966815 -10.343184
v 2.669642 3.966815 -12.327599
v 3.347312 3.966815 -13.147694
v 4.036378 3.966815 -13.751364
v 3.538458 3.966815 -9.401859
v 1.051541 3.966816 -9.385630
v 1.772151 3.966815 -8.389748
v 1.205782 3.966815 -12.691198
v 0.674175 3.966815 -11.061693
v -0.852118 4.034161 -4.484701
v -2.324968 4.034161 -6.399515
v -4.355589 4.034161 -8.964728
v -7.404270 4.034161 -12.940479
v -0.229481 4.034161 -17.463102
v -3.939891 4.034161 -16.872808
v -1.844043 4.034161 -1.441728
v -2.900510 4.034161 0.650492
v -4.041968 4.034161 2.180531
v -5.329144 4.034161 3.151984
v -6.300597 4.034161 3.419134
v -7.344909 4.034161 3.467707
v -8.753516 4.034161 3.443420
v -11.157864 4.034161 3.419134
v -11.435823 4.034161 0.409971
v -12.105030 4.034161 -2.531017
v -13.147787 4.034161 -6.956119
v -5.927079 4.034161 -3.707282
v -9.995623 4.034161 -0.647603
v -4.549664 4.034161 -1.724025
v -8.675831 4.034161 1.401408
v -7.668344 4.034161 -6.214425
v -11.521039 4.034161 -3.015856
v -10.416763 4.034161 -10.425896
v -3.526070 4.034161 -0.250213
v -7.810071 4.034161 2.745529
v -8.208975 4.034161 -1.987098
v -5.477675 4.034161 2.284105
v -5.998538 4.034161 1.469580
v -9.787281 4.034161 -4.455249
v -12.391430 4.034161 -8.363376
v -6.942958 4.034161 -0.007302
v 2.362469 3.966815 -14.087633
v 3.095715 3.966815 -14.739902
v 3.885427 2.160842 -2.814354
v 3.949560 2.157366 -4.412144
v 1.037629 2.160842 1.473282
v -1.360566 2.160842 5.603506
v -4.698267 2.160842 7.837528
v -12.397482 2.160842 8.428795
v -9.897470 2.160842 7.641414
v -6.456224 2.160842 7.988177
v -2.937287 2.160842 7.169842
v -0.161469 2.160842 3.271928
v 6.252836 4.034161 -10.445975
v 4.350149 4.034161 -11.386320
v 0.590701 4.034160 -5.931545
v -0.625178 4.034161 -7.929082
v -1.744811 4.034161 -10.177444
v -3.217015 4.034161 -12.845091
v 1.274360 4.034161 -16.099806
v -0.867944 4.034161 -15.555841
v 6.190019 5.470371 -14.950905
v 4.667614 5.470371 -16.544718
v 7.172686 5.470371 -15.445999
v 6.936204 5.470371 -17.270134
v 8.008797 5.470371 -15.423157
v 8.396602 5.470371 -17.221212
v 8.486591 5.470371 -15.269190
v 9.605303 5.470371 -16.729286
v 9.634846 5.470371 -14.192701
v 10.753557 5.470371 -15.652796
v 10.783099 5.470371 -12.990622
v 11.901811 5.470371 -14.450718
v 11.781249 5.470371 -12.705339
v 12.374862 5.470371 -13.480099
v 2.858479 2.160842 -0.658446
v 3.477411 2.160842 -5.381824
v 5.459182 2.160842 -2.490813
v 5.675024 2.157366 -4.817966
v 2.401834 2.160842 2.322006
v 0.003640 2.160842 6.452229
v -4.025880 2.160842 9.320880
v -11.454147 2.160842 10.253419
v -8.954138 2.160842 9.466038
v -6.349641 2.160842 9.613317
v -1.712111 2.160842 8.215219
v 1.202737 2.160842 4.120652
v 4.222684 2.160842 0.190278
v 5.187617 2.160842 -6.440314
v 2.910391 5.470371 -16.971472
v 1.925758 5.470371 -18.305180
v 5.523049 5.470371 -21.003990
v 6.383133 5.470371 -19.009676
v 14.968444 5.470371 -13.172710
v 17.542816 5.470371 -12.365818
v 16.812771 5.470371 -9.753023
v 14.315246 5.470371 -7.236287
v 11.260581 5.470371 -7.927909
v 8.993597 5.470371 -8.984554
v 7.917741 5.470371 -10.079623
v 7.091636 5.470371 -11.578138
v 13.672915 5.470371 -10.593496
v 10.906742 5.470371 -10.376421
v 9.579921 5.470371 -11.422355
v 8.294078 5.470371 -12.760799
v 7.683909 5.470371 -13.972162
v 5.128237 4.034171 -9.873590
v 5.260116 4.034161 -12.078720
v 6.613386 5.470371 -13.537476
v 15.201026 5.470371 -15.715607
v 12.968240 5.470371 -18.258501
v 11.340168 5.470371 -19.452421
v 8.549184 5.470371 -19.840057
v 18.789452 5.470371 -16.291801
v 16.966011 5.470371 -20.608522
v 12.946996 5.470371 -23.213440
v 8.276752 5.470371 -23.176228
v 5.898805 5.403026 -15.173498
v 11.714013 5.403026 -12.942379
v 12.086926 5.403026 -13.526945
v 6.792088 3.012704 -9.486028
v 4.626245 2.975452 -8.077509
v -4.042727 4.034161 -5.115655
v -2.761723 4.034161 -3.058944
v -5.961824 4.034161 -7.631206
v -8.997599 4.034161 -11.610498
v -12.974898 4.034161 -5.273015
v -7.682907 4.034161 -9.887200
v -5.945410 4.034161 -11.037996
v -9.227326 4.034161 -8.603292
v -11.366381 4.034161 -6.825053
v -4.640715 2.228188 17.918121
v 0.842542 2.228188 13.977855
v -1.737376 2.228188 16.682404
v -7.085318 2.228188 18.603413
v 6.058814 2.228188 0.745832
v -4.897052 2.228188 11.999821
v 7.335654 2.228188 -1.949410
v -2.622088 2.228188 10.773182
v 7.610933 2.230078 -4.614917
v -0.209321 2.228188 9.137796
v 7.445429 2.228188 -6.310831
v 1.587188 2.228188 7.179210
v -7.440454 2.228188 12.429523
v 3.039775 2.228188 4.763375
v -9.937143 2.228188 13.155149
v 4.193454 2.228188 2.844662
v 5.643860 2.992955 -8.739298
v 6.490962 2.228188 -7.281770
v 3.370775 2.050873 -4.759902
v 1.454347 2.050873 -8.265977
v 1.454347 4.044375 -8.265977
v 5.669879 2.050873 -6.190436
v 3.753451 2.050873 -9.696511
v 3.753451 4.044375 -9.696511
v 3.370775 2.254587 -4.759902
v 1.645989 4.044375 -7.915370
v 3.124377 2.254587 -5.210683
v 3.124377 2.516505 -5.210683
v 2.877979 2.516505 -5.661464
v 2.877979 2.778424 -5.661464
v 2.631581 2.778424 -6.112245
v 2.631581 3.040342 -6.112245
v 2.385183 3.040342 -6.563026
v 2.385183 3.302261 -6.563026
v 2.138785 3.302261 -7.013807
v 2.138785 3.564179 -7.013807
v 1.892387 3.564179 -7.464589
v 1.892387 3.826097 -7.464589
v 1.645989 3.826097 -7.915370
v 3.945094 4.044375 -9.345904
v 5.669879 2.254587 -6.190436
v 3.945094 3.826097 -9.345904
v 4.191492 3.826097 -8.895123
v 4.191492 3.564179 -8.895123
v 4.437890 3.564179 -8.444342
v 4.437890 3.302261 -8.444342
v 4.684288 3.302261 -7.993561
v 4.684288 3.040342 -7.993561
v 4.930686 3.040342 -7.542779
v 4.930686 2.778424 -7.542779
v 5.177083 2.778424 -7.091998
v 5.177083 2.516505 -7.091998
v 5.423481 2.516505 -6.641217
v 5.423481 2.254587 -6.641217
vn 0.7258 -0.0000 -0.6880
vn -0.7257 -0.0000 0.6880
vn -0.0000 1.0000 -0.0000
vn -0.7258 -0.0000 0.6880
vn -0.6342 -0.0000 -0.7732
vn 0.6342 -0.0000 0.7732
vn 0.0829 0.9861 -0.1439
vn 0.1014 0.9895 -0.1028
vn 0.0669 0.9919 -0.1081
vn 0.0358 0.9929 0.1136
vn 0.0136 0.9952 0.0966
vn 0.0290 0.9953 0.0921
vn -0.0378 0.9901 -0.1355
vn 0.0629 0.9933 0.0965
vn 0.0289 0.9924 0.1197
vn -0.0833 0.9887 -0.1249
vn 0.0982 0.9926 0.0709
vn -0.0050 0.9911 -0.1334
vn -0.0009 0.9921 0.1253
vn -0.0149 0.9955 -0.0932
vn 0.0055 0.9913 0.1313
vn -0.1066 0.9923 -0.0628
vn -0.1135 0.9901 -0.0826
vn -0.1442 0.9895 0.0125
vn 0.1248 0.9902 -0.0622
vn 0.1110 0.9936 -0.0229
vn -0.0991 0.9923 -0.0744
vn 0.1033 0.9924 0.0670
vn 0.1111 0.9902 0.0846
vn -0.1369 0.9898 -0.0385
vn 0.1141 0.9931 0.0268
vn 0.1197 0.9903 0.0702
vn 0.0003 1.0000 0.0001
vn -0.1426 0.8757 0.4613
vn 0.0002 1.0000 -0.0002
vn 0.2478 0.9398 0.2354
vn 0.1114 0.9916 0.0656
vn 0.3871 0.8967 0.2144
vn 0.0796 0.9887 0.1270
vn 0.1608 0.9436 0.2894
vn 0.0295 0.9891 0.1440
vn 0.0945 0.9483 0.3031
vn -0.0023 0.9901 0.1401
vn 0.0033 0.9529 0.3033
vn -0.0538 0.9181 0.3926
vn 0.0774 0.9623 0.2608
vn 0.0535 0.8774 0.4768
vn 0.1489 0.9884 -0.0307
vn 0.2061 0.9605 0.1868
vn 0.1468 0.9885 0.0372
vn 0.1213 0.9894 0.0793
vn 0.3709 0.8981 0.2364
vn 0.1036 0.9916 0.0778
vn -0.1115 0.9937 0.0128
vn 0.0002 1.0000 -0.0007
vn 0.0123 0.9907 0.1355
vn -0.1114 0.9933 -0.0292
vn 0.0007 1.0000 -0.0000
vn -0.0000 1.0000 0.0002
vn -0.0988 0.9931 -0.0631
vn -0.1063 0.9910 -0.0809
vn -0.1146 0.9911 -0.0672
vn -0.0951 0.9932 -0.0675
vn -0.0725 0.9930 -0.0937
vn -0.0339 0.9934 -0.1098
vn -0.0049 0.9928 -0.1197
vn -0.0095 0.9925 -0.1217
vn -0.2055 0.8526 0.4805
vn -0.1627 0.8913 0.4232
vn -0.1172 0.9903 -0.0752
vn -0.0838 0.9955 0.0449
vn 0.0740 0.9958 -0.0536
vn -0.0793 0.9949 0.0625
vn 0.0967 0.9953 0.0012
vn 0.1078 0.9931 -0.0462
vn 0.1393 0.9901 0.0153
vn -0.1441 0.9863 -0.0800
vn -0.1052 0.9892 -0.1021
vn -0.1111 0.9924 -0.0531
vn -0.1162 0.9868 -0.1129
vn -0.1061 0.9870 -0.1211
vn 0.0233 0.9911 -0.1308
vn 0.0216 0.9912 0.1306
vn -0.0249 0.9923 -0.1213
vn 0.0350 0.9935 0.1080
vn 0.0160 0.9946 0.1027
vn -0.0167 0.9847 0.1734
vn -0.1136 0.9907 0.0750
vn -0.0854 0.9926 0.0858
vn 0.0262 0.9873 -0.1566
vn -0.0270 0.9973 -0.0680
vn 0.0955 0.9896 0.1073
vn 0.1119 0.9878 0.1081
vn -0.0970 0.9953 0.0056
vn 0.1348 0.9876 0.0807
vn -0.1438 0.9896 -0.0023
vn -0.0409 0.9832 0.1777
vn -0.1058 0.9928 0.0568
vn -0.0759 0.9971 -0.0069
vn -0.0269 0.9914 0.1282
vn -0.0700 0.9912 0.1121
vn -0.1510 0.9885 0.0002
vn -0.0893 0.9938 0.0662
vn -0.0633 0.9833 -0.1704
vn -0.0252 0.9966 -0.0789
vn 0.1735 0.9848 -0.0027
vn 0.0822 0.9959 -0.0373
vn 0.1085 0.9925 0.0562
vn 0.1019 0.9899 0.0983
vn -0.2092 0.9499 0.2323
vn 0.2335 0.9558 0.1789
vn 0.0131 0.8791 0.4765
vn -0.0249 0.9321 0.3614
vn 0.0686 0.9328 0.3537
vn 0.0042 0.9429 0.3330
vn 0.1805 0.9178 0.3536
vn 0.3348 0.8986 0.2836
vn 0.4343 0.8734 0.2202
vn 0.4203 0.8731 0.2469
vn 0.4364 0.8769 0.2014
vn -0.1336 0.9902 0.0400
vn -0.0275 0.9958 -0.0874
vn 0.0645 0.9925 -0.1036
vn 0.0849 0.9852 -0.1486
vn -0.0821 0.9931 0.0832
vn -0.0572 0.9945 0.0877
vn -0.3116 0.9355 0.1664
vn -0.2492 0.9682 0.0210
vn -0.1376 0.9788 0.1518
vn 0.2827 0.9420 0.1809
vn 0.1184 0.9890 0.0882
vn -0.0343 0.9935 -0.1088
vn -0.1698 0.9846 -0.0423
vn -0.0218 0.9945 0.1029
vn -0.0393 0.9558 0.2914
vn -0.2514 0.9428 0.2190
vn -0.3742 0.9113 0.1718
vn -0.3873 0.8531 0.3497
vn -0.3219 0.8276 0.4598
vn -0.1855 0.8361 0.5163
vn 0.1054 0.9888 -0.1059
vn -0.0830 0.9267 0.3666
vn -0.2932 0.8112 0.5059
vn -0.2852 0.9530 0.1021
vn -0.0397 0.9856 -0.1643
vn -0.1871 0.7509 0.6334
vn 0.2815 0.8452 0.4543
vn 0.1113 0.9775 0.1790
vn 0.3256 0.9382 0.1170
vn -0.2150 0.9278 0.3048
vn 0.2222 0.8677 0.4447
vn 0.1394 0.9367 0.3211
vn 0.5283 -0.0000 0.8491
vn -0.8775 -0.0000 0.4796
vn 0.8775 -0.0000 -0.4796
vn -0.5283 -0.0000 -0.8491
vt 0.625000 0.250000
vt 0.375000 0.500000
vt 0.375000 0.250000
vt 0.875000 0.525000
vt 0.614286 0.525000
vt 0.625000 0.525000
vt 0.614286 0.557143
vt 0.875000 0.557143
vt 0.603571 0.557143
vt 0.603571 0.589286
vt 0.875000 0.589286
vt 0.592857 0.589286
vt 0.592857 0.621429
vt 0.875000 0.621429
vt 0.582143 0.707143
vt 0.625000 1.000000
vt 0.496429 0.717857
vt 0.496429 1.000000
vt 0.464286 0.717857
vt 0.464286 1.000000
vt 0.464286 0.728571
vt 0.432143 0.728571
vt 0.432143 1.000000
vt 0.432143 0.739286
vt 0.400000 0.739286
vt 0.400000 1.000000
vt 0.400000 0.750000
vt 0.375000 1.000000
vt 0.375000 0.750000
vt 0.496429 0.128571
vt 0.528571 0.160714
vt 0.875000 0.500000
vt 0.625000 0.500000
vt 0.000000 0.000000
vt 1.000000 1.000000
vt 0.000000 1.000000
vt 1.000000 0.000000
vt -0.000000 -0.000000
vt 1.000000 -0.000000
vt -0.000000 1.000000
vt -0.000000 -0.000000
vt 0.000000 0.000000
vt 1.000000 0.000000
vt 0.000000 0.000000
vt 0.464286 0.096429
vt 0.875000 0.750000
vt 0.375000 0.000000
vt 0.400000 0.032143
vt 0.400000 0.000000
vt 0.432143 0.032143
vt 0.432143 0.064286
vt 0.625000 0.225000
vt 0.592857 0.225000
vt 0.560714 0.192857
vt 0.592857 0.192857
vt 0.464286 0.064286
vt 0.496429 0.096429
vt 0.528571 0.128571
vt 0.560714 0.160714
vt -0.000000 0.000000
vt -0.000000 0.000000
s 0
usemtl 
f 3/1/1 5/2/1 2/3/1
f 8/4/2 24/5/2 22/6/2
f 21/4/3 25/7/3 24/5/3
f 20/8/4 26/9/4 25/7/4
f 19/8/3 27/10/3 26/9/3
f 18/11/2 28/12/2 27/10/2
f 17/11/3 29/13/3 28/12/3
f 16/14/4 30/15/4 29/13/4
f 15/16/3 31/17/3 30/15/3
f 14/18/2 32/19/2 31/17/2
f 13/20/3 33/21/3 32/19/3
f 12/20/4 34/22/4 33/21/4
f 11/23/3 35/24/3 34/22/3
f 10/23/2 36/25/2 35/24/2
f 9/26/3 23/27/3 36/25/3
f 23/27/2 1/28/2 4/29/2
f 15/30/5 17/31/5 2/3/5
f 3/32/3 22/6/3 6/33/3
f 5/2/6 30/15/6 32/19/6
f 278/4/153 294/5/153 292/6/153
f 291/4/3 295/7/3 294/5/3
f 290/8/153 296/9/153 295/7/153
f 289/8/3 297/10/3 296/9/3
f 288/11/153 298/12/153 297/10/153
f 287/11/3 299/13/3 298/12/3
f 286/14/153 300/15/153 299/13/153
f 285/16/3 301/17/3 300/15/3
f 284/18/153 302/19/153 301/17/153
f 283/20/3 303/21/3 302/19/3
f 282/20/153 304/22/153 303/21/153
f 281/23/3 305/24/3 304/22/3
f 280/23/153 306/25/153 305/24/153
f 279/26/3 293/27/3 306/25/3
f 293/27/153 271/28/153 274/29/153
f 272/3/154 283/45/154 285/30/154
f 273/32/3 292/6/3 276/33/3
f 275/2/155 300/15/155 302/19/155
f 273/32/156 275/2/156 272/3/156
f 3/1/1 6/33/1 5/2/1
f 8/4/4 21/4/4 24/5/4
f 21/4/3 20/8/3 25/7/3
f 20/8/2 19/8/2 26/9/2
f 19/8/3 18/11/3 27/10/3
f 18/11/4 17/11/4 28/12/4
f 17/11/3 16/14/3 29/13/3
f 16/14/2 15/46/2 30/15/2
f 15/16/3 14/18/3 31/17/3
f 14/18/4 13/20/4 32/19/4
f 13/20/3 12/20/3 33/21/3
f 12/20/2 11/23/2 34/22/2
f 11/23/3 10/23/3 35/24/3
f 10/23/4 9/26/4 36/25/4
f 9/26/3 7/26/3 23/27/3
f 23/27/4 7/26/4 1/28/4
f 2/3/5 1/47/5 9/48/5
f 1/47/5 7/49/5 9/48/5
f 9/48/5 10/50/5 11/51/5
f 8/52/5 3/1/5 21/53/5
f 3/1/5 2/3/5 21/53/5
f 19/54/5 20/55/5 21/53/5
f 2/3/5 9/48/5 11/51/5
f 11/51/5 12/56/5 13/45/5
f 13/45/5 14/57/5 15/30/5
f 15/30/5 16/58/5 17/31/5
f 17/31/5 18/59/5 19/54/5
f 19/54/5 21/53/5 2/3/5
f 2/3/5 11/51/5 13/45/5
f 2/3/5 13/45/5 15/30/5
f 17/31/5 19/54/5 2/3/5
f 3/32/3 8/4/3 22/6/3
f 5/2/6 6/33/6 24/5/6
f 6/33/6 22/6/6 24/5/6
f 24/5/6 25/7/6 26/9/6
f 23/27/6 4/29/6 36/25/6
f 4/29/6 5/2/6 36/25/6
f 34/22/6 35/24/6 36/25/6
f 5/2/6 24/5/6 26/9/6
f 26/9/6 27/10/6 28/12/6
f 28/12/6 29/13/6 30/15/6
f 30/15/6 31/17/6 32/19/6
f 32/19/6 33/21/6 34/22/6
f 34/22/6 36/25/6 5/2/6
f 5/2/6 26/9/6 28/12/6
f 5/2/6 28/12/6 30/15/6
f 32/19/6 34/22/6 5/2/6
f 278/4/153 291/4/153 294/5/153
f 291/4/3 290/8/3 295/7/3
f 290/8/153 289/8/153 296/9/153
f 289/8/3 288/11/3 297/10/3
f 288/11/153 287/11/153 298/12/153
f 287/11/3 286/14/3 299/13/3
f 286/14/153 285/46/153 300/15/153
f 285/16/3 284/18/3 301/17/3
f 284/18/153 283/20/153 302/19/153
f 283/20/3 282/20/3 303/21/3
f 282/20/153 281/23/153 304/22/153
f 281/23/3 280/23/3 305/24/3
f 280/23/153 279/26/153 306/25/153
f 279/26/3 277/26/3 293/27/3
f 293/27/153 277/26/153 271/28/153
f 272/3/154 271/47/154 279/48/154
f 271/47/154 277/49/154 279/48/154
f 279/48/154 280/50/154 281/51/154
f 278/52/154 273/1/154 291/53/154
f 273/1/154 272/3/154 291/53/154
f 289/54/154 290/55/154 291/53/154
f 272/3/154 279/48/154 281/51/154
f 281/51/154 282/56/154 283/45/154
f 283/45/154 284/57/154 285/30/154
f 285/30/154 286/58/154 287/31/154
f 287/31/154 288/59/154 289/54/154
f 289/54/154 291/53/154 272/3/154
f 272/3/154 281/51/154 283/45/154
f 285/30/154 287/31/154 272/3/154
f 287/31/154 289/54/154 272/3/154
f 273/32/3 278/4/3 292/6/3
f 275/2/155 276/33/155 294/5/155
f 276/33/155 292/6/155 294/5/155
f 294/5/155 295/7/155 296/9/155
f 293/27/155 274/29/155 306/25/155
f 274/29/155 275/2/155 306/25/155
f 304/22/155 305/24/155 306/25/155
f 275/2/155 294/5/155 296/9/155
f 296/9/155 297/10/155 298/12/155
f 298/12/155 299/13/155 300/15/155
f 300/15/155 301/17/155 302/19/155
f 302/19/155 303/21/155 304/22/155
f 304/22/155 306/25/155 275/2/155
f 275/2/155 296/9/155 298/12/155
f 275/2/155 298/12/155 300/15/155
f 302/19/155 304/22/155 275/2/155
f 273/32/156 276/33/156 275/2/156
s 1
usemtl grass00
f 87/35/3 256/34/3 253/37/3
f 88/35/3 253/34/3 255/37/3
f 88/34/3 254/35/3 89/36/3
f 90/36/3 254/37/3 65/35/3
f 91/36/3 65/37/3 66/35/3
f 92/36/3 66/37/3 67/35/3
f 93/35/3 67/34/3 68/37/3
f 94/35/3 68/34/3 69/37/3
f 95/35/3 69/34/3 70/37/3
f 95/36/3 71/37/3 96/35/33
f 96/36/33 72/37/34 97/35/35
f 73/34/36 49/35/37 74/36/38
f 45/34/39 73/35/36 75/36/40
f 43/34/41 75/35/40 76/36/42
f 41/34/43 76/35/42 77/36/44
f 38/36/11 77/37/44 78/35/45
f 80/34/46 37/37/12 79/35/47
f 79/34/47 38/37/11 78/35/45
f 38/34/11 79/37/47 37/35/12
f 57/35/48 83/38/49 55/39/50
f 83/35/49 53/34/51 55/37/50
f 82/35/52 51/34/53 53/37/51
f 51/37/53 74/36/38 49/34/37
f 58/36/54 263/37/55 60/35/56
f 56/34/57 261/35/58 58/36/54
f 56/40/57 257/39/3 259/35/59
f 54/36/60 268/37/3 257/35/3
f 52/36/61 266/37/3 268/35/3
f 50/36/62 264/37/3 266/35/3
f 48/36/63 262/37/3 264/35/3
f 46/36/64 260/37/3 262/35/3
f 44/36/65 258/37/3 260/35/3
f 42/35/66 265/34/3 258/37/3
f 40/35/67 267/34/3 265/37/3
f 263/40/55 84/39/68 85/35/69
f 84/34/68 97/37/35 72/35/34
f 215/35/3 217/34/3 216/37/3
f 196/36/99 223/37/3 215/35/3
f 178/36/3 101/37/106 98/35/107
f 133/36/3 178/37/3 179/35/3
f 180/35/3 102/34/74 105/37/108
f 180/37/3 136/36/3 134/34/3
f 107/34/109 181/35/110 182/36/3
f 134/35/3 249/38/3 250/39/3
f 246/36/3 132/37/3 133/35/3
f 244/36/3 131/37/111 132/35/3
f 158/34/3 139/35/117 138/36/119
f 137/34/120 155/37/3 138/35/119
f 131/34/111 245/37/3 137/35/120
f 150/35/3 157/34/3 162/37/3
f 151/35/3 145/38/3 144/39/112
f 155/36/3 158/37/3 138/35/119
f 142/34/115 156/37/3 143/35/113
f 155/35/3 162/34/3 159/37/3
f 151/40/3 143/39/113 156/35/3
f 152/37/3 252/36/3 160/34/3
f 153/34/3 248/37/3 146/35/3
f 148/37/3 160/36/3 157/34/3
f 149/37/3 146/36/3 145/34/3
f 157/37/3 153/36/3 149/34/3
f 159/35/3 151/34/3 156/37/3
f 162/37/3 149/36/3 151/34/3
f 160/39/3 248/40/3 153/38/3
f 158/36/3 141/37/114 140/35/116
f 158/35/3 156/34/3 142/37/115
f 103/38/97 176/35/3 99/40/98
f 99/34/98 176/37/3 100/35/96
f 100/34/96 176/37/3 104/35/77
f 106/36/80 229/37/127 108/35/128
f 104/34/77 176/37/3 106/35/80
f 182/39/3 135/40/129 136/38/3
f 105/37/108 182/36/3 180/34/3
f 134/34/3 250/37/3 180/35/3
f 179/36/3 98/37/107 102/35/74
f 132/36/3 177/37/130 178/35/3
f 212/34/136 214/35/3 213/36/3
f 214/40/3 184/39/87 186/35/86
f 225/35/3 222/34/137 221/37/138
f 220/37/139 225/36/3 221/34/138
f 220/34/139 219/37/140 224/35/3
f 224/34/3 223/37/3 195/35/105
f 193/36/123 224/37/3 195/35/105
f 226/34/3 193/35/123 191/36/141
f 223/35/3 219/34/140 218/37/142
f 218/34/142 217/37/3 223/35/3
f 176/36/3 175/37/143 229/35/127
f 227/37/3 183/36/133 230/34/144
f 227/37/3 187/36/90 185/34/145
f 230/36/144 226/37/3 227/35/3
f 227/34/3 191/35/141 189/36/7
f 188/39/134 214/40/3 186/38/86
f 190/37/126 234/36/3 188/34/134
f 190/41/126 232/35/3 233/40/3
f 194/34/103 232/35/3 192/36/125
f 196/37/99 231/36/3 194/34/103
f 234/35/3 213/34/3 214/37/3
f 233/35/3 238/34/3 234/37/3
f 232/34/3 237/35/3 233/36/3
f 231/34/3 236/35/3 232/36/3
f 216/37/3 231/36/3 215/34/3
f 244/37/3 152/36/3 148/34/3
f 137/35/120 150/34/3 155/37/3
f 245/37/3 148/36/3 150/34/3
f 246/37/3 251/36/3 152/34/3
f 252/35/3 147/34/3 248/37/3
f 250/35/3 246/34/3 133/37/3
f 249/37/3 154/36/3 251/34/3
f 251/35/3 161/34/3 252/37/3
f 180/36/3 133/37/3 179/35/3
f 65/34/3 254/37/3 64/35/3
f 255/36/3 62/37/3 63/35/3
f 255/34/3 64/35/3 254/36/3
f 253/35/3 61/38/3 62/39/3
f 261/36/58 97/37/35 263/35/55
f 265/35/3 86/34/3 87/37/3
f 263/34/55 85/37/69 270/35/148
f 259/36/59 94/37/3 95/35/3
f 257/36/3 93/37/3 94/35/3
f 268/36/3 92/37/3 93/35/3
f 266/36/3 91/37/3 92/35/3
f 264/40/3 90/39/3 91/35/3
f 262/36/3 89/37/3 90/35/3
f 259/34/59 96/35/33 261/36/58
f 260/36/3 88/37/3 89/35/3
f 258/35/3 87/38/3 88/39/3
f 270/37/148 60/35/56 263/34/55
f 87/35/3 86/36/3 256/34/3
f 88/35/3 87/36/3 253/34/3
f 88/34/3 255/37/3 254/35/3
f 90/36/3 89/34/3 254/37/3
f 91/36/3 90/34/3 65/37/3
f 92/36/3 91/34/3 66/37/3
f 93/35/3 92/36/3 67/34/3
f 94/35/3 93/36/3 68/34/3
f 95/35/3 94/36/3 69/34/3
f 95/36/3 70/34/3 71/37/3
f 96/36/33 71/34/3 72/37/34
f 73/34/36 47/37/131 49/35/37
f 45/34/39 47/37/131 73/35/36
f 43/34/41 45/37/39 75/35/40
f 41/34/43 43/37/41 76/35/42
f 38/36/11 41/34/43 77/37/44
f 57/35/48 59/40/149 83/38/49
f 83/35/49 82/36/52 53/34/51
f 82/35/52 81/36/118 51/34/53
f 51/37/53 81/35/118 74/36/38
f 58/36/54 261/34/58 263/37/55
f 56/34/57 259/37/59 261/35/58
f 56/40/57 54/60/60 257/39/3
f 54/36/60 52/34/61 268/37/3
f 52/36/61 50/34/62 266/37/3
f 50/36/62 48/34/63 264/37/3
f 48/36/63 46/34/64 262/37/3
f 46/36/64 44/34/65 260/37/3
f 44/36/65 42/34/66 258/37/3
f 42/35/66 40/36/67 265/34/3
f 40/35/67 39/36/132 267/34/3
f 263/40/55 97/61/35 84/39/68
f 215/35/3 223/36/3 217/34/3
f 196/36/99 195/34/105 223/37/3
f 178/36/3 177/34/130 101/37/106
f 133/36/3 132/34/3 178/37/3
f 180/35/3 179/36/3 102/34/74
f 180/37/3 182/35/3 136/36/3
f 107/34/109 109/37/135 181/35/110
f 134/35/3 247/40/3 249/38/3
f 246/36/3 244/34/3 132/37/3
f 244/36/3 245/34/3 131/37/111
f 158/34/3 140/37/116 139/35/117
f 150/35/3 148/36/3 157/34/3
f 151/35/3 149/40/3 145/38/3
f 155/36/3 159/34/3 158/37/3
f 155/35/3 150/36/3 162/34/3
f 151/40/3 144/38/112 143/39/113
f 152/37/3 251/35/3 252/36/3
f 148/37/3 152/35/3 160/36/3
f 149/37/3 153/35/3 146/36/3
f 157/37/3 160/35/3 153/36/3
f 159/35/3 162/36/3 151/34/3
f 162/37/3 157/35/3 149/36/3
f 160/39/3 252/35/3 248/40/3
f 158/36/3 142/34/115 141/37/114
f 158/35/3 159/36/3 156/34/3
f 103/38/97 228/37/152 176/35/3
f 106/36/80 176/34/3 229/37/127
f 182/39/3 181/35/110 135/40/129
f 105/37/108 107/35/109 182/36/3
f 179/36/3 178/34/3 98/37/107
f 132/36/3 131/34/111 177/37/130
f 212/34/136 211/37/150 214/35/3
f 214/40/3 211/38/150 184/39/87
f 225/35/3 226/36/3 222/34/137
f 220/37/139 224/35/3 225/36/3
f 193/36/123 225/34/3 224/37/3
f 226/34/3 225/37/3 193/35/123
f 223/35/3 224/36/3 219/34/140
f 176/36/3 228/34/152 175/37/143
f 227/37/3 185/35/145 183/36/133
f 227/37/3 189/35/7 187/36/90
f 230/36/144 222/34/137 226/37/3
f 227/34/3 226/37/3 191/35/141
f 188/39/134 234/35/3 214/40/3
f 190/37/126 233/35/3 234/36/3
f 190/41/126 192/39/125 232/35/3
f 194/34/103 231/37/3 232/35/3
f 196/37/99 215/35/3 231/36/3
f 234/35/3 238/36/3 213/34/3
f 233/35/3 237/36/3 238/34/3
f 232/34/3 236/37/3 237/35/3
f 231/34/3 235/37/3 236/35/3
f 216/37/3 235/35/3 231/36/3
f 244/37/3 246/35/3 152/36/3
f 137/35/120 245/36/3 150/34/3
f 245/37/3 244/35/3 148/36/3
f 246/37/3 249/35/3 251/36/3
f 252/35/3 161/36/3 147/34/3
f 250/35/3 249/36/3 246/34/3
f 249/37/3 247/35/3 154/36/3
f 251/35/3 154/36/3 161/34/3
f 180/36/3 250/34/3 133/37/3
f 255/36/3 253/34/3 62/37/3
f 255/34/3 63/37/3 64/35/3
f 253/35/3 256/40/3 61/38/3
f 261/36/58 96/34/33 97/37/35
f 265/35/3 267/36/3 86/34/3
f 259/36/59 257/34/3 94/37/3
f 257/36/3 268/34/3 93/37/3
f 268/36/3 266/34/3 92/37/3
f 266/36/3 264/34/3 91/37/3
f 264/40/3 262/38/3 90/39/3
f 262/36/3 260/34/3 89/37/3
f 259/34/59 95/37/3 96/35/33
f 260/36/3 258/34/3 88/37/3
f 258/35/3 265/40/3 87/38/3
usemtl ground00
f 189/34/7 112/35/8 113/36/9
f 170/37/10 38/36/11 37/34/12
f 203/34/13 173/35/14 169/36/15
f 207/34/16 168/35/17 173/36/14
f 206/34/18 169/35/15 172/36/19
f 205/34/20 172/35/19 171/36/21
f 208/37/22 168/36/17 202/34/23
f 200/34/24 198/35/25 166/36/26
f 201/34/27 197/35/28 167/36/29
f 199/34/30 166/35/26 165/36/31
f 208/34/22 167/35/29 174/36/32
f 44/34/65 207/35/16 203/36/13
f 50/34/62 201/35/27 208/36/22
f 40/34/67 206/35/18 205/36/20
f 50/37/62 202/36/23 48/34/63
f 52/34/61 209/35/70 201/36/27
f 122/34/71 128/35/72 126/36/73
f 102/34/74 127/35/75 130/36/76
f 104/34/77 124/35/78 123/36/79
f 106/34/80 125/35/81 124/36/78
f 114/37/82 118/36/83 110/34/84
f 115/37/85 186/36/86 184/34/87
f 112/34/8 120/35/88 117/36/89
f 189/37/7 114/36/82 187/34/90
f 239/37/91 118/36/83 115/34/85
f 124/34/78 164/35/92 163/36/93
f 121/34/94 129/35/95 130/36/76
f 123/34/79 163/35/93 129/36/95
f 130/34/76 122/35/71 121/36/94
f 100/34/96 123/35/79 121/36/94
f 122/37/71 103/36/97 99/34/98
f 113/37/9 119/36/100 114/34/82
f 113/34/9 117/35/89 116/36/101
f 241/37/102 194/36/103 120/34/88
f 196/34/99 240/35/104 195/36/105
f 78/37/45 144/36/112 79/34/47
f 77/37/44 143/36/113 78/34/45
f 77/34/44 141/35/114 142/36/115
f 75/37/40 141/36/114 76/34/42
f 73/37/36 140/36/116 75/34/40
f 74/37/38 139/36/117 73/34/36
f 81/37/118 138/36/119 74/34/38
f 82/37/52 137/36/120 81/34/118
f 56/34/57 200/35/24 199/36/30
f 58/34/54 210/35/121 200/36/24
f 204/37/122 171/36/21 170/34/10
f 209/34/70 165/35/31 197/36/28
f 42/34/66 203/35/13 206/36/18
f 54/34/60 199/35/30 209/36/70
f 193/34/123 240/35/104 111/36/124
f 117/34/89 194/35/103 192/36/125
f 116/34/101 192/35/125 190/36/126
f 46/34/64 202/35/23 207/36/16
f 80/34/46 79/37/47 144/35/112
f 83/37/49 131/36/111 82/34/52
f 169/34/15 45/35/39 43/36/41
f 173/34/14 47/35/131 45/36/39
f 172/34/19 43/35/41 41/36/43
f 171/34/21 41/35/43 38/36/11
f 39/37/132 205/36/20 204/34/122
f 174/37/32 47/36/131 168/34/17
f 198/37/25 57/36/48 166/34/26
f 121/34/94 99/35/98 100/36/96
f 129/34/95 107/35/109 105/36/108
f 183/37/133 110/36/84 239/34/91
f 116/37/101 188/36/134 119/34/100
f 167/34/29 53/35/51 51/36/53
f 165/34/31 57/35/48 55/36/50
f 127/34/75 101/35/106 128/36/72
f 130/34/76 105/35/108 102/36/74
f 163/34/93 109/35/135 107/36/109
f 119/37/100 186/36/86 118/34/83
f 174/34/32 51/35/53 49/36/37
f 197/34/28 55/35/50 53/36/51
f 72/37/34 219/36/140 84/34/68
f 84/37/68 220/36/139 85/34/69
f 221/35/138 175/34/143 242/37/146
f 111/34/124 241/35/102 120/36/88
f 191/34/141 111/35/124 112/36/8
f 187/37/90 110/36/84 185/34/145
f 85/37/69 269/36/147 270/34/148
f 59/37/149 177/36/130 83/34/49
f 242/34/146 220/35/139 221/36/138
f 109/37/135 211/36/150 181/34/110
f 181/37/110 212/36/136 135/34/129
f 230/35/144 108/42/128 229/43/127
f 222/35/137 229/42/127 175/43/143
f 243/42/151 228/35/152 103/36/97
f 228/36/152 242/37/146 175/35/143
f 270/37/148 243/36/151 60/44/56
f 189/34/7 191/37/141 112/35/8
f 170/37/10 171/35/21 38/36/11
f 203/34/13 207/37/16 173/35/14
f 207/34/16 202/37/23 168/35/17
f 206/34/18 203/37/13 169/35/15
f 205/34/20 206/37/18 172/35/19
f 208/37/22 174/35/32 168/36/17
f 200/34/24 210/37/121 198/35/25
f 201/34/27 209/37/70 197/35/28
f 199/34/30 200/37/24 166/35/26
f 208/34/22 201/37/27 167/35/29
f 44/34/65 46/37/64 207/35/16
f 50/34/62 52/37/61 201/35/27
f 40/34/67 42/37/66 206/35/18
f 50/37/62 208/35/22 202/36/23
f 52/34/61 54/37/60 209/35/70
f 122/34/71 127/37/75 128/35/72
f 102/34/74 98/37/107 127/35/75
f 104/34/77 106/37/80 124/35/78
f 106/34/80 108/37/128 125/35/81
f 114/37/82 119/35/100 118/36/83
f 115/37/85 118/35/83 186/36/86
f 112/34/8 111/37/124 120/35/88
f 189/37/7 113/35/9 114/36/82
f 239/37/91 110/35/84 118/36/83
f 124/34/78 125/37/81 164/35/92
f 121/34/94 123/37/79 129/35/95
f 123/34/79 124/37/78 163/35/93
f 130/34/76 127/37/75 122/35/71
f 100/34/96 104/37/77 123/35/79
f 122/37/71 126/35/73 103/36/97
f 113/37/9 116/35/101 119/36/100
f 113/34/9 112/37/8 117/35/89
f 241/37/102 196/35/99 194/36/103
f 196/34/99 241/37/102 240/35/104
f 78/37/45 143/35/113 144/36/112
f 77/37/44 142/35/115 143/36/113
f 77/34/44 76/37/42 141/35/114
f 75/37/40 140/35/116 141/36/114
f 73/37/36 139/35/117 140/36/116
f 74/37/38 138/35/119 139/36/117
f 81/37/118 137/35/120 138/36/119
f 82/37/52 131/35/111 137/36/120
f 56/34/57 58/37/54 200/35/24
f 58/34/54 60/37/56 210/35/121
f 204/37/122 205/35/20 171/36/21
f 209/34/70 199/37/30 165/35/31
f 42/34/66 44/37/65 203/35/13
f 54/34/60 56/37/57 199/35/30
f 193/34/123 195/37/105 240/35/104
f 117/34/89 120/37/88 194/35/103
f 116/34/101 117/37/89 192/35/125
f 46/34/64 48/37/63 202/35/23
f 83/37/49 177/35/130 131/36/111
f 169/34/15 173/37/14 45/35/39
f 173/34/14 168/37/17 47/35/131
f 172/34/19 169/37/15 43/35/41
f 171/34/21 172/37/19 41/35/43
f 39/37/132 40/35/67 205/36/20
f 174/37/32 49/35/37 47/36/131
f 198/37/25 59/35/149 57/36/48
f 121/34/94 122/37/71 99/35/98
f 129/34/95 163/37/93 107/35/109
f 183/37/133 185/35/145 110/36/84
f 116/37/101 190/35/126 188/36/134
f 167/34/29 197/37/28 53/35/51
f 165/34/31 166/37/26 57/35/48
f 127/34/75 98/37/107 101/35/106
f 130/34/76 129/37/95 105/35/108
f 163/34/93 164/37/92 109/35/135
f 119/37/100 188/35/134 186/36/86
f 174/34/32 167/37/29 51/35/53
f 197/34/28 165/37/31 55/35/50
f 72/37/34 218/35/142 219/36/140
f 84/37/68 219/35/140 220/36/139
f 221/35/138 222/36/137 175/34/143
f 111/34/124 240/37/104 241/35/102
f 191/34/141 193/37/123 111/35/124
f 187/37/90 114/35/82 110/36/84
f 85/37/69 242/35/146 269/36/147
f 59/37/149 101/35/106 177/36/130
f 242/34/146 85/37/69 220/35/139
f 109/37/135 184/35/87 211/36/150
f 181/37/110 211/35/150 212/36/136
f 230/35/144 183/36/133 108/42/128
f 222/35/137 230/36/144 229/42/127
f 243/42/151 269/43/147 228/35/152
f 228/36/152 269/34/147 242/37/146
f 270/37/148 269/35/147 243/36/151
