# Blender 5.1.2
# www.blender.org
mtllib terrain_col.mtl
o terrain.002
v -11.454147 4.160842 10.253419
v 4.667614 7.470371 -16.544718
v 6.190019 7.470371 -14.950905
v 1.274360 6.034161 -16.099806
v 0.590701 6.034160 -5.931545
v 6.252836 6.034161 -10.445975
v -12.397482 4.160842 8.428795
v -12.391430 6.034161 -8.363376
v 7.091636 7.470371 -11.578138
v -10.416763 6.034161 -10.425896
v -13.147787 6.034161 -6.956119
v -12.105030 6.034161 -2.531017
v -11.435823 6.034161 0.409971
v -11.157864 6.034161 3.419134
v -8.753516 6.034161 3.443420
v -7.344909 6.034161 3.467707
v -6.300597 6.034161 3.419134
v -5.329144 6.034161 3.151984
v -4.041968 6.034161 2.180531
v -2.900510 6.034161 0.650492
v -1.844043 6.034161 -1.441728
v -3.939891 6.034161 -16.872808
v -0.229481 6.034161 -17.463102
v -7.404270 6.034161 -12.940479
v -0.852118 6.034161 -4.484701
v 7.917741 7.470371 -10.079623
v 8.993597 7.470371 -8.984554
v 11.260581 7.470371 -7.927909
v 14.315246 7.470371 -7.236287
v -12.540975 2.228188 8.151246
v -10.040964 2.228188 7.363865
v -11.303828 2.228188 10.544168
v -8.803820 2.228188 9.756787
v -6.472437 2.228188 7.740973
v -6.332658 2.228188 9.872279
v -4.800545 2.228188 7.611892
v -3.918737 2.228188 9.557250
v -3.084476 2.228188 6.970572
v -1.501020 2.228188 8.364175
v -1.568079 2.228188 5.474404
v 0.221023 2.228188 6.587472
v -0.368982 2.228188 3.142826
v 1.420120 2.228188 4.255895
v 0.830115 2.228188 1.344180
v 2.619217 2.228188 2.457249
v 2.650966 2.228188 -0.787548
v 4.440068 2.228188 0.325521
v 3.646038 2.228188 -2.863569
v 5.709957 2.228188 -2.439257
v 3.687095 2.231664 -4.350412
v 5.949974 2.231664 -4.882632
v 3.143684 2.227460 -5.442862
v 5.429867 2.228188 -6.618107
v -5.894299 2.228188 20.878792
v -3.367377 2.228188 20.414370
v -0.357953 2.228188 18.726685
v 2.088376 2.228188 15.116995
v 3.521177 2.228188 11.341279
v 6.017995 2.228188 9.123466
v 8.164523 2.228188 6.369094
v 8.776204 2.228188 4.132635
v 11.304382 2.228188 2.107857
v 12.762176 2.228188 -0.314320
v 13.188298 2.228188 -3.678455
v 12.807029 2.228188 -5.741792
v -3.388318 2.228188 4.070281
v -2.066844 2.228188 1.707024
v -4.692981 2.228188 5.060480
v -5.704165 2.228188 5.509672
v -7.014129 2.228188 5.759977
v -9.562286 2.228188 5.205065
v -11.614953 2.228188 4.917491
v -13.804014 2.228188 5.567553
v -1.284470 2.228188 -0.021478
v -0.101992 2.228188 -2.133154
v 2.117950 2.228188 -3.805987
v 9.612560 2.228188 -6.936362
v 7.505285 2.228188 -7.916179
v -8.599064 2.228188 15.711481
v -6.085598 2.228188 15.085578
v -3.345305 2.228188 14.299481
v -1.050608 2.228188 12.246837
v 1.210184 2.228188 9.987963
v 3.044271 2.228188 7.810327
v 4.792321 2.228188 5.312494
v 6.149783 2.228188 3.326107
v 7.872225 2.228188 1.216689
v 9.236066 2.228188 -1.376788
v 9.590262 2.228188 -4.295887
v 9.160501 2.228188 -6.049366
v 0.770768 4.034160 -9.231554
v 3.066087 4.034161 -10.491117
v 2.710004 4.034161 -11.537577
v 1.466408 4.034160 -8.260858
v 0.390435 4.034161 -10.995367
v 3.729540 4.034171 -9.665357
v 2.895793 4.034161 -12.271426
v 0.970240 4.034161 -12.749702
v 3.499461 4.034161 -13.002483
v 2.204003 4.034161 -14.238874
v 4.188526 4.034161 -13.606153
v 2.937249 4.034161 -14.891142
v 7.143949 5.403026 -15.667669
v 10.919046 5.403026 -13.168055
v 9.770791 5.403026 -14.370132
v 8.622539 5.403026 -15.446621
v 8.055923 5.403026 -15.641657
v 4.893695 5.403026 -16.231541
v 9.435552 5.403026 -16.507732
v 10.583805 5.403026 -15.431244
v 6.972088 5.403026 -16.993343
v 8.337757 5.403026 -16.948378
v 11.732059 5.403026 -14.229164
v 2.437575 3.966815 -11.473895
v 2.796507 3.966815 -10.343184
v 2.669642 3.966815 -12.327599
v 3.347312 3.966815 -13.147694
v 4.036378 3.966815 -13.751364
v 3.488854 3.966815 -9.464792
v 1.051541 3.966816 -9.385630
v 1.772151 3.966815 -8.389748
v 1.205782 3.966815 -12.691198
v 0.674175 3.966815 -11.061693
v -0.852118 4.034161 -4.484701
v -2.324968 4.034161 -6.399515
v -4.355589 4.034161 -8.964728
v -7.404270 4.034161 -12.940479
v -0.229481 4.034161 -17.463102
v -3.939891 4.034161 -16.872808
v -1.844043 4.034161 -1.441728
v -2.900510 4.034161 0.650492
v -4.041968 4.034161 2.180531
v -5.329144 4.034161 3.151984
v -6.300597 4.034161 3.419134
v -7.344909 4.034161 3.467707
v -8.753516 4.034161 3.443420
v -11.157864 4.034161 3.419134
v -11.435823 4.034161 0.409971
v -12.105030 4.034161 -2.531017
v -13.147787 4.034161 -6.956119
v -5.927079 4.034161 -3.707282
v -9.995623 4.034161 -0.647603
v -4.549664 4.034161 -1.724025
v -8.675831 4.034161 1.401408
v -7.668344 4.034161 -6.214425
v -11.521039 4.034161 -3.015856
v -10.416763 4.034161 -10.425896
v -3.526070 4.034161 -0.250213
v -7.810071 4.034161 2.745529
v -8.208975 4.034161 -1.987098
v -5.477675 4.034161 2.284105
v -5.998538 4.034161 1.469580
v -9.787281 4.034161 -4.455249
v -12.391430 4.034161 -8.363376
v -6.942958 4.034161 -0.007302
v 2.362469 3.966815 -14.087633
v 3.095715 3.966815 -14.739902
v 3.885427 2.160842 -2.814354
v 3.949560 2.157366 -4.412144
v 1.037629 2.160842 1.473282
v -1.360566 2.160842 5.603506
v -4.698267 2.160842 7.837528
v -12.397482 2.160842 8.428795
v -9.897470 2.160842 7.641414
v -6.456224 2.160842 7.988177
v -2.937287 2.160842 7.169842
v -0.161469 2.160842 3.271928
v 6.252836 4.034161 -10.445975
v 4.350149 4.034161 -11.386320
v 0.590701 4.034160 -5.931545
v -0.625178 4.034161 -7.929082
v -1.744811 4.034161 -10.177444
v -3.217015 4.034161 -12.845091
v 1.274360 4.034161 -16.099806
v -0.867944 4.034161 -15.555841
v 6.190019 5.470371 -14.950905
v 4.667614 5.470371 -16.544718
v 7.172686 5.470371 -15.445999
v 6.936204 5.470371 -17.270134
v 8.008797 5.470371 -15.423157
v 8.396602 5.470371 -17.221212
v 8.486591 5.470371 -15.269190
v 9.605303 5.470371 -16.729286
v 9.634846 5.470371 -14.192701
v 10.753557 5.470371 -15.652796
v 10.783099 5.470371 -12.990622
v 11.901811 5.470371 -14.450718
v 11.781249 5.470371 -12.705339
v 12.374862 5.470371 -13.480099
v 2.858479 2.160842 -0.658446
v 3.477411 2.160842 -5.381824
v 5.459182 2.160842 -2.490813
v 5.675024 2.157366 -4.817966
v 2.401834 2.160842 2.322006
v 0.003640 2.160842 6.452229
v -4.025880 2.160842 9.320880
v -11.454147 2.160842 10.253419
v -8.954138 2.160842 9.466038
v -6.349641 2.160842 9.613317
v -1.712111 2.160842 8.215219
v 1.202737 2.160842 4.120652
v 4.222684 2.160842 0.190278
v 5.187617 2.160842 -6.440314
v 2.910391 5.470371 -16.971472
v 1.925758 5.470371 -18.305180
v 5.523049 5.470371 -21.003990
v 6.383133 5.470371 -19.009676
v 14.968444 5.470371 -13.172710
v 17.542816 5.470371 -12.365818
v 16.812771 5.470371 -9.753023
v 14.315246 5.470371 -7.236287
v 11.260581 5.470371 -7.927909
v 8.993597 5.470371 -8.984554
v 7.917741 5.470371 -10.079623
v 7.091636 5.470371 -11.578138
v 13.672915 5.470371 -10.593496
v 10.906742 5.470371 -10.376421
v 9.579921 5.470371 -11.422355
v 8.294078 5.470371 -12.760799
v 7.683909 5.470371 -13.972162
v 5.128237 4.034171 -9.873590
v 5.260116 4.034161 -12.078720
v 6.613386 5.470371 -13.537476
v 15.201026 5.470371 -15.715607
v 12.968240 5.470371 -18.258501
v 11.340168 5.470371 -19.452421
v 8.549184 5.470371 -19.840057
v 18.789452 5.470371 -16.291801
v 16.966011 5.470371 -20.608522
v 12.946996 5.470371 -23.213440
v 8.276752 5.470371 -23.176228
v 5.898805 5.403026 -15.173498
v 11.714013 5.403026 -12.942379
v 12.086926 5.403026 -13.526945
v 16.812771 7.470371 -9.753023
v 17.542816 7.470371 -12.365818
v -4.042727 4.034161 -5.115655
v -2.761723 4.034161 -3.058944
v -5.961824 4.034161 -7.631206
v -8.997599 4.034161 -11.610498
v -12.974898 4.034161 -5.273015
v -7.682907 4.034161 -9.887200
v -5.945410 4.034161 -11.037996
v -9.227326 4.034161 -8.603292
v -11.366381 4.034161 -6.825053
v -4.640715 2.228188 17.918121
v 0.842542 2.228188 13.977855
v -1.737376 2.228188 16.682404
v -7.085318 2.228188 18.603413
v 6.058814 2.228188 0.745832
v -4.897052 2.228188 11.999821
v 7.335654 2.228188 -1.949410
v -2.622088 2.228188 10.773182
v 7.610933 2.230078 -4.614917
v -0.209321 2.228188 9.137796
v 7.445429 2.228188 -6.310831
v 1.587188 2.228188 7.179210
v -7.440454 2.228188 12.429523
v 3.039775 2.228188 4.763375
v -9.937143 2.228188 13.155149
v 4.193454 2.228188 2.844662
v 5.523049 7.470371 -21.003990
v 6.490962 2.228188 -7.281770
v 2.937249 6.034161 -14.891142
v 4.188526 6.034161 -13.606153
v 3.729540 6.034171 -9.665357
v 1.466408 6.034160 -8.260858
v -8.599064 4.228188 15.711481
v 7.505285 4.228188 -7.916179
v 9.612560 4.228188 -6.936362
v 2.117950 4.228188 -3.805987
v -0.101992 4.228188 -2.133154
v -1.284470 4.228188 -0.021478
v -13.804014 4.228188 5.567553
v 1.925758 7.470371 -18.305180
v -11.614953 4.228188 4.917491
v 2.910391 7.470371 -16.971472
v -9.562286 4.228188 5.205065
v -7.014129 4.228188 5.759977
v -5.704165 4.228188 5.509672
v -4.692981 4.228188 5.060480
v -2.066844 4.228188 1.707024
v -3.388318 4.228188 4.070281
v 12.807029 4.228188 -5.741792
v 13.188298 4.228188 -3.678455
v 12.762176 4.228188 -0.314320
v 11.304382 4.228188 2.107857
v 8.776204 4.228188 4.132635
v 8.164523 4.228188 6.369094
v 6.017995 4.228188 9.123466
v 3.521177 4.228188 11.341279
v 2.088376 4.228188 15.116995
v -0.357953 4.228188 18.726685
v -3.367377 4.228188 20.414370
v -5.894299 4.228188 20.878792
v 5.429867 4.228188 -6.618107
v 3.143684 4.227460 -5.442862
v -11.303828 4.228188 10.544168
v -12.540975 4.228188 8.151246
v 5.128237 6.034171 -9.873590
v 5.260116 6.034161 -12.078720
v 6.613386 7.470371 -13.537476
v 18.789452 7.470371 -16.291801
v 16.966011 7.470371 -20.608522
v 12.946996 7.470371 -23.213440
v 8.276752 7.470371 -23.176228
v -8.997599 6.034161 -11.610498
v -12.974898 6.034161 -5.273015
v -7.085318 4.228188 18.603413
v -9.937143 4.228188 13.155149
v 6.490962 4.228188 -7.281770
vn 0.8883 -0.0000 -0.4593
vn 0.8108 -0.0000 -0.5854
vn 0.5786 -0.0000 -0.8156
vn -0.6307 -0.0000 0.7760
vn -0.8409 -0.0000 -0.5412
vn -0.9619 -0.0000 -0.2733
vn 0.8090 -0.0000 0.5879
vn 0.9317 -0.0000 -0.3631
vn 0.6826 -0.0000 0.7308
vn 0.9810 -0.0000 0.1942
vn 0.9650 -0.0000 -0.2624
vn 0.9876 -0.0000 -0.1573
vn 0.6775 -0.0000 -0.7355
vn 0.0137 -0.0000 -0.9999
vn -0.0146 -0.0000 -0.9999
vn -0.1568 -0.0000 -0.9876
vn -0.4417 -0.0000 -0.8972
vn -0.7091 -0.0000 -0.7051
vn -0.8503 -0.0000 -0.5263
vn -0.9244 -0.0000 -0.3814
vn 0.4822 -0.0000 0.8761
vn -0.2853 -0.0000 0.9584
vn 0.6976 -0.0000 0.7165
vn -0.8528 -0.0000 -0.5223
vn 0.8020 -0.0000 -0.5973
vn 0.5771 -0.0000 -0.8167
vn 0.3235 -0.0000 -0.9462
vn -0.2795 -0.0000 -0.9601
vn 0.6803 0.6815 -0.2696
vn 0.0136 0.9952 0.0966
vn 0.6196 0.6707 -0.4077
vn -0.0095 0.9925 -0.1217
vn -0.0023 0.9901 0.1401
vn -0.0049 0.9928 -0.1197
vn 0.0295 0.9891 0.1440
vn -0.0339 0.9934 -0.1098
vn 0.0796 0.9887 0.1270
vn -0.0725 0.9930 -0.0937
vn 0.1184 0.9890 0.0882
vn -0.0951 0.9932 -0.0675
vn 0.1114 0.9916 0.0656
vn -0.1146 0.9911 -0.0672
vn 0.1036 0.9916 0.0778
vn -0.1063 0.9910 -0.0809
vn 0.1213 0.9894 0.0793
vn -0.0988 0.9931 -0.0631
vn 0.1468 0.9885 0.0372
vn -0.1114 0.9933 -0.0292
vn 0.1489 0.9884 -0.0307
vn -0.1115 0.9937 0.0128
vn 0.5762 0.7917 0.2028
vn 0.0051 0.8550 0.5185
vn 0.3521 0.5948 -0.7226
vn -0.2514 0.6720 -0.6965
vn -0.5090 0.6588 -0.5539
vn -0.6491 0.6819 -0.3372
vn -0.5303 0.7650 -0.3656
vn -0.5300 0.6872 -0.4969
vn -0.6673 0.6655 -0.3344
vn -0.5191 0.7837 -0.3410
vn -0.5591 0.6696 -0.4890
vn -0.7069 0.6635 -0.2452
vn -0.7384 0.6741 0.0210
vn -0.6064 0.6112 0.5086
vn 0.4938 0.7561 0.4294
vn 0.6225 0.7168 0.3142
vn 0.3454 0.7340 0.5847
vn 0.2030 0.7338 0.6484
vn -0.0084 0.7551 0.6556
vn -0.1258 0.6987 0.7042
vn 0.0559 0.6623 0.7471
vn 0.7529 0.5691 0.3306
vn 0.6395 0.6976 0.3230
vn 0.5635 0.6636 0.4920
vn 0.4866 0.7505 0.4472
vn -0.2697 0.7159 0.6440
vn 0.0488 0.6139 0.7879
vn 0.6265 0.7071 -0.3279
vn -0.0000 1.0000 -0.0000
vn 0.0003 1.0000 0.0001
vn 0.0002 1.0000 -0.0002
vn 0.0822 0.9959 -0.0373
vn -0.1058 0.9928 0.0568
vn -0.1438 0.9896 -0.0023
vn 0.1679 0.9537 -0.2497
vn 0.0967 0.9953 0.0012
vn -0.3856 0.9225 0.0188
vn -0.1441 0.9863 -0.0800
vn 0.1085 0.9925 0.0562
vn -0.1162 0.9868 -0.1129
vn 0.1019 0.9899 0.0983
vn -0.5646 0.8193 0.0997
vn -0.1275 0.7961 0.5916
vn -0.0249 0.9923 -0.1213
vn 0.0849 0.9852 -0.1486
vn 0.1014 0.9895 -0.1028
vn 0.0669 0.9919 -0.1081
vn 0.0233 0.9911 -0.1308
vn 0.7166 0.4726 -0.5130
vn -0.0700 0.9912 0.1121
vn -0.0854 0.9926 0.0858
vn 0.0216 0.9912 0.1306
vn -0.0269 0.9914 0.1282
vn -0.1136 0.9907 0.0750
vn -0.0970 0.9953 0.0056
vn -0.0838 0.9955 0.0449
vn -0.1111 0.9924 -0.0531
vn -0.1052 0.9892 -0.1021
vn -0.5226 0.7808 0.3425
vn -0.5502 0.5023 -0.6671
vn 0.1078 0.9931 -0.0462
vn -0.3796 0.4537 -0.8063
vn 0.1348 0.9876 0.0807
vn 0.1393 0.9901 0.0153
vn -0.5509 0.7633 -0.3374
vn 0.4807 0.7247 0.4937
vn -0.2235 0.6215 0.7508
vn 0.3712 0.6383 0.6744
vn -0.6688 0.6904 -0.2760
vn -0.6170 0.6881 -0.3819
vn -0.5221 0.6767 -0.5192
vn -0.3290 0.6671 -0.6683
vn -0.1145 0.6830 -0.7214
vn -0.0104 0.7000 -0.7141
vn 0.0097 0.7079 -0.7062
vn 0.5505 0.5829 -0.5976
vn 0.6831 0.7222 -0.1088
vn 0.6730 0.7166 -0.1830
vn 0.7483 0.6466 0.1481
vn 0.4910 0.6948 0.5256
vn 0.5947 0.6780 0.4321
vn 0.1119 0.9878 0.1081
vn -0.4380 0.6854 0.5817
vn 0.1141 0.9931 0.0268
vn 0.1110 0.9936 -0.0229
vn 0.1111 0.9902 0.0846
vn 0.0982 0.9926 0.0709
vn 0.0289 0.9924 0.1197
vn 0.6407 0.7313 -0.2339
vn 0.0055 0.9913 0.1313
vn -0.0009 0.9921 0.1253
vn 0.0629 0.9933 0.0965
vn 0.1197 0.9903 0.0702
vn -0.7880 0.5735 -0.2239
vn -0.6298 0.6626 -0.4053
vn -0.4381 0.7194 0.5390
vn -0.0452 0.9056 -0.4216
vn 0.2724 0.9541 0.1247
vn -0.0397 0.9856 -0.1643
vn 0.0160 0.9946 0.1027
vn 0.0262 0.9873 -0.1566
vn -0.0218 0.9945 0.1029
vn 0.0829 0.9861 -0.1439
vn -0.0572 0.9945 0.0877
vn 0.1054 0.9888 -0.1059
vn -0.0821 0.9931 0.0832
vn 0.0645 0.9925 -0.1036
vn -0.0893 0.9938 0.0662
vn -0.0252 0.9966 -0.0789
vn -0.0759 0.9971 -0.0069
vn 0.1033 0.9924 0.0670
vn 0.1351 0.9894 0.0539
vn -0.1369 0.9898 -0.0385
vn -0.1442 0.9895 0.0125
vn -0.0991 0.9923 -0.0744
vn -0.1135 0.9901 -0.0826
vn -0.0378 0.9901 -0.1355
vn 0.5835 0.7202 -0.3752
vn -0.0149 0.9955 -0.0932
vn -0.0050 0.9911 -0.1334
vn -0.0833 0.9887 -0.1249
vn -0.1066 0.9923 -0.0628
vn -0.1172 0.9903 -0.0752
vn 0.1199 0.9045 0.4094
vn 0.4263 0.6377 -0.6415
vn 0.8076 0.5777 0.1184
vn 0.4295 0.7099 0.5582
vn -0.6738 0.7111 -0.2010
vn -0.6534 0.6546 -0.3802
vn -0.2209 0.6126 -0.7589
vn 0.2360 0.6839 -0.6904
vn 0.4289 0.6691 -0.6069
vn 0.5897 0.6778 -0.4392
vn 0.6844 0.6786 -0.2667
vn -0.2252 0.6726 -0.7049
vn -0.5979 0.6998 0.3909
vn 0.6767 0.7130 -0.1838
vn -0.7702 0.6368 0.0355
vn -0.5846 0.6466 0.4901
vn -0.2131 0.6478 0.7314
vn 0.2545 0.6409 0.7242
vn 0.5983 0.4264 -0.6785
vn -0.0633 0.9833 -0.1704
vn -0.1510 0.9885 0.0002
vn -0.8643 -0.0000 -0.5030
vn -0.9583 -0.0000 -0.2859
vn 0.4531 0.7071 0.5429
vn 0.7135 0.6848 -0.1482
vn -0.0000 1.0000 0.0002
vn 0.0007 1.0000 -0.0000
vn 0.0002 1.0000 -0.0007
vn 0.6098 -0.0000 0.7926
vn 0.3750 0.7071 0.5995
vn 0.1879 -0.0000 0.9822
vn -0.9455 -0.0000 -0.3256
vn -0.7578 -0.0000 -0.6525
vn -0.4498 -0.0000 -0.8931
vn 0.8860 -0.0000 -0.4637
vn 0.0618 -0.0000 0.9981
vn -0.3862 -0.0000 0.9224
vn 0.7368 -0.0000 0.6761
vn 0.7533 -0.0000 0.6577
vn 0.8926 -0.0000 0.4509
vn 0.9156 -0.0000 0.4020
vn 0.9894 -0.0000 0.1451
vn 0.0747 -0.0000 0.9972
vn 0.5535 -0.0000 -0.8329
vn -0.1759 -0.0000 0.9844
vn -0.0128 -0.0000 0.9999
vn 0.2988 -0.0000 0.9543
vn 0.5087 -0.0000 0.8610
vn 0.8927 -0.0000 0.4506
vn 0.7546 -0.0000 0.6562
vn -0.7662 -0.0000 0.6425
vn -0.9996 -0.0000 0.0284
vn -0.9448 -0.0000 -0.3277
vn -0.7527 -0.0000 -0.6584
vn -0.8358 -0.0000 -0.5491
vn -0.8941 -0.0000 -0.4480
vn -0.7295 -0.0000 -0.6840
vn -0.8233 -0.0000 -0.5676
vn -0.8874 -0.0000 -0.4610
vn -0.6766 -0.0000 -0.7363
vn -0.3395 -0.0000 -0.9406
vn 0.4380 -0.0000 -0.8990
vn -0.3796 -0.0000 0.9252
vn 0.9974 -0.0000 -0.0726
vn 0.8871 -0.0000 -0.4617
vn 0.8938 -0.0000 -0.4485
vn -0.3044 -0.0000 -0.9525
vn -0.8370 -0.0000 0.5472
vn 0.9650 -0.0000 -0.2621
vn -0.9989 -0.0000 0.0461
vn -0.7663 -0.0000 0.6425
vn -0.2798 -0.0000 0.9601
vn 0.3315 -0.0000 0.9434
vn 0.6408 -0.0000 0.7677
vn 0.9791 -0.0000 -0.2033
vn 0.5303 -0.0000 0.8478
vt 0.000000 0.000000
vt 1.000000 0.000000
vt 0.000000 1.000000
vt -0.000000 -0.000000
vt 1.000000 -0.000000
vt 1.000000 1.000000
vt -0.000000 1.000000
vt 0.000000 0.933144
vt -0.000000 -0.000000
vt -0.000000 0.000000
vt -0.000000 0.000000
vt 1.000000 0.933144
s 1
usemtl grass00
f 205/1/176 277/2/217 204/2/175
f 260/3/78 268/1/208 79/1/78
f 204/4/175 2/5/2 177/5/148
f 80/6/79 249/1/78 246/2/79
f 81/6/79 246/1/79 248/2/79
f 81/1/79 247/6/79 82/3/79
f 83/3/79 247/2/79 58/6/57
f 84/3/79 58/2/57 59/6/58
f 85/3/79 59/2/58 60/6/59
f 86/6/79 60/1/59 61/2/60
f 87/6/79 61/1/60 62/2/61
f 88/6/79 62/1/61 63/2/62
f 88/3/79 64/2/63 89/6/80
f 89/3/80 65/2/64 90/6/81
f 66/1/65 42/6/41 67/3/66
f 38/1/37 66/6/65 68/3/67
f 36/1/35 68/6/67 69/3/68
f 34/1/33 69/6/68 70/3/69
f 31/3/30 70/2/69 71/6/70
f 73/1/72 30/2/29 72/6/71
f 72/1/71 31/2/30 71/6/70
f 31/1/30 72/2/71 30/6/29
f 50/6/49 76/4/75 48/5/47
f 76/6/75 46/1/45 48/2/47
f 75/6/74 44/1/43 46/2/45
f 44/2/43 67/3/66 42/1/41
f 51/3/50 256/2/201 53/6/52
f 49/1/48 254/6/200 51/3/50
f 49/7/48 250/5/79 252/6/199
f 47/3/46 261/2/79 250/6/79
f 45/3/44 259/2/79 261/6/79
f 43/3/42 257/2/79 259/6/79
f 41/3/40 255/2/79 257/6/79
f 39/3/38 253/2/79 255/6/79
f 37/3/36 251/2/79 253/6/79
f 35/6/34 258/1/79 251/2/79
f 33/6/32 260/1/78 258/2/79
f 256/7/201 77/5/76 78/6/77
f 77/1/76 90/2/81 65/6/64
f 208/6/79 210/1/179 209/2/178
f 189/3/160 216/2/79 208/6/79
f 171/3/79 94/2/85 91/6/82
f 126/3/79 171/2/79 172/6/79
f 173/6/79 95/1/86 98/2/89
f 173/2/79 129/3/118 127/1/116
f 100/1/91 174/6/146 175/3/79
f 127/6/116 242/4/79 243/5/79
f 239/3/79 125/2/79 126/6/79
f 237/3/79 124/2/115 125/6/79
f 151/1/79 132/6/121 131/3/120
f 130/1/119 148/2/79 131/6/120
f 124/1/115 238/2/79 130/6/119
f 143/6/79 150/1/79 155/2/79
f 144/6/79 138/4/127 137/5/126
f 148/3/79 151/2/79 131/6/120
f 135/1/124 149/2/79 136/6/125
f 148/6/79 155/1/79 152/2/79
f 144/7/79 136/5/125 149/6/79
f 145/2/79 245/3/79 153/1/79
f 146/1/79 241/2/198 139/6/128
f 141/2/79 153/3/79 150/1/79
f 142/2/79 139/3/128 138/1/127
f 150/2/79 146/3/79 142/1/79
f 152/6/79 144/1/79 149/2/79
f 155/2/79 142/3/79 144/1/79
f 153/5/79 241/7/198 146/4/79
f 151/3/79 134/2/123 133/6/122
f 151/6/79 149/1/79 135/2/124
f 96/4/87 169/6/79 92/7/83
f 92/1/83 169/2/79 93/6/84
f 93/1/84 169/2/79 97/6/88
f 99/3/90 222/2/186 101/6/92
f 97/1/88 169/2/79 99/6/90
f 175/5/79 128/7/117 129/4/118
f 98/2/89 175/3/79 173/1/79
f 127/1/116 243/2/79 173/6/79
f 172/3/79 91/2/82 95/6/86
f 125/3/79 170/2/145 171/6/79
f 205/1/176 207/6/79 206/3/177
f 207/7/79 177/5/148 179/6/150
f 218/6/79 215/1/184 214/2/183
f 213/2/182 218/3/79 214/1/183
f 213/1/182 212/2/181 217/6/79
f 217/1/79 216/2/79 188/6/159
f 186/3/157 217/2/79 188/6/159
f 219/1/79 186/6/157 184/3/155
f 216/6/79 212/1/181 211/2/180
f 211/1/180 210/2/179 216/6/79
f 169/3/79 168/2/144 222/6/186
f 220/2/79 176/3/147 223/1/187
f 220/2/79 180/3/151 178/1/149
f 223/3/187 219/2/79 220/6/79
f 220/1/79 184/6/155 182/3/153
f 181/5/152 207/7/79 179/4/150
f 183/2/154 227/3/79 181/1/152
f 183/9/154 225/6/79 226/7/79
f 187/1/158 225/6/79 185/3/156
f 189/2/160 224/3/79 187/1/158
f 227/6/79 206/1/177 207/2/79
f 226/6/79 231/1/191 227/2/79
f 225/1/79 230/6/190 226/3/79
f 224/1/79 229/6/189 225/3/79
f 209/2/178 224/3/79 208/1/79
f 237/2/79 145/3/79 141/1/79
f 130/6/119 143/1/79 148/2/79
f 238/2/79 141/3/79 143/1/79
f 239/2/79 244/3/79 145/1/79
f 245/6/79 140/1/129 241/2/198
f 243/6/79 239/1/79 126/2/79
f 242/2/79 147/3/130 244/1/79
f 244/6/79 154/1/131 245/2/79
f 173/3/79 126/2/79 172/6/79
f 58/1/57 247/2/79 57/6/56
f 248/3/79 55/2/54 56/6/55
f 248/1/79 57/6/56 247/3/79
f 246/6/79 54/4/53 55/5/54
f 254/3/200 90/2/81 256/6/201
f 258/6/79 79/1/78 80/2/79
f 256/1/201 78/2/77 263/6/203
f 252/3/199 87/2/79 88/6/79
f 250/3/79 86/2/79 87/6/79
f 261/3/79 85/2/79 86/6/79
f 259/3/79 84/2/79 85/6/79
f 257/7/79 83/5/79 84/6/79
f 255/3/79 82/2/79 83/6/79
f 252/1/199 89/6/80 254/3/200
f 253/3/79 81/2/79 82/6/79
f 251/6/79 80/4/79 81/5/79
f 263/2/203 53/6/52 256/1/201
f 78/2/77 311/6/249 263/6/203
f 263/2/203 296/6/236 53/6/52
f 65/6/64 270/1/210 77/1/76
f 102/2/93 4/6/4 174/6/146
f 154/3/131 11/1/10 140/1/129
f 231/3/191 262/1/202 206/1/177
f 230/3/190 306/1/246 231/1/191
f 139/3/128 13/1/12 138/1/127
f 76/4/75 297/7/237 271/4/211
f 229/2/189 305/6/245 230/6/190
f 79/3/78 309/1/208 249/1/78
f 138/4/127 14/5/13 137/5/126
f 228/2/188 304/6/244 229/6/189
f 170/1/145 267/2/207 94/2/85
f 137/4/126 15/5/14 136/5/125
f 76/6/75 272/3/212 75/3/74
f 209/2/178 303/6/243 228/6/188
f 136/6/125 16/1/15 135/1/124
f 64/1/63 284/2/224 65/2/64
f 75/6/74 273/3/213 74/3/73
f 135/1/124 17/2/16 134/2/123
f 63/1/62 285/2/225 64/2/63
f 240/6/197 10/3/9 147/3/130
f 74/6/73 282/3/222 67/3/66
f 241/2/198 12/6/11 139/6/128
f 134/2/123 18/6/17 133/6/122
f 62/1/61 286/2/226 63/2/62
f 133/2/122 19/6/18 132/6/121
f 61/1/60 287/2/227 62/2/61
f 223/3/187 9/1/8 215/1/184
f 132/6/121 20/3/19 131/3/120
f 60/1/59 288/2/228 61/2/60
f 73/1/72 299/2/239 30/2/29
f 131/6/120 21/1/20 130/1/119
f 59/2/58 289/6/229 60/6/59
f 221/1/185 6/2/6 168/2/144
f 80/6/79 79/3/78 249/1/78
f 81/6/79 80/3/79 246/1/79
f 81/1/79 248/2/79 247/6/79
f 83/3/79 82/1/79 247/2/79
f 84/3/79 83/1/79 58/2/57
f 85/3/79 84/1/79 59/2/58
f 86/6/79 85/3/79 60/1/59
f 87/6/79 86/3/79 61/1/60
f 88/6/79 87/3/79 62/1/61
f 88/3/79 63/1/62 64/2/63
f 89/3/80 64/1/63 65/2/64
f 66/1/65 40/2/39 42/6/41
f 38/1/37 40/2/39 66/6/65
f 36/1/35 38/2/37 68/6/67
f 34/1/33 36/2/35 69/6/68
f 31/3/30 34/1/33 70/2/69
f 50/6/49 52/7/51 76/4/75
f 76/6/75 75/3/74 46/1/45
f 75/6/74 74/3/73 44/1/43
f 44/2/43 74/6/73 67/3/66
f 51/3/50 254/1/200 256/2/201
f 49/1/48 252/2/199 254/6/200
f 49/7/48 47/10/46 250/5/79
f 47/3/46 45/1/44 261/2/79
f 45/3/44 43/1/42 259/2/79
f 43/3/42 41/1/40 257/2/79
f 41/3/40 39/1/38 255/2/79
f 39/3/38 37/1/36 253/2/79
f 37/3/36 35/1/34 251/2/79
f 35/6/34 33/3/32 258/1/79
f 33/6/32 32/3/31 260/1/78
f 256/7/201 90/11/81 77/5/76
f 208/6/79 216/3/79 210/1/179
f 189/3/160 188/1/159 216/2/79
f 171/3/79 170/1/145 94/2/85
f 126/3/79 125/1/79 171/2/79
f 173/6/79 172/3/79 95/1/86
f 173/2/79 175/6/79 129/3/118
f 100/1/91 102/2/93 174/6/146
f 127/6/116 240/7/197 242/4/79
f 239/3/79 237/1/79 125/2/79
f 237/3/79 238/1/79 124/2/115
f 151/1/79 133/2/122 132/6/121
f 143/6/79 141/3/79 150/1/79
f 144/6/79 142/7/79 138/4/127
f 148/3/79 152/1/79 151/2/79
f 148/6/79 143/3/79 155/1/79
f 144/7/79 137/4/126 136/5/125
f 145/2/79 244/6/79 245/3/79
f 141/2/79 145/6/79 153/3/79
f 142/2/79 146/6/79 139/3/128
f 150/2/79 153/6/79 146/3/79
f 152/6/79 155/3/79 144/1/79
f 155/2/79 150/6/79 142/3/79
f 153/5/79 245/6/79 241/7/198
f 151/3/79 135/1/124 134/2/123
f 151/6/79 152/3/79 149/1/79
f 96/4/87 221/2/185 169/6/79
f 99/3/90 169/1/79 222/2/186
f 175/5/79 174/6/146 128/7/117
f 98/2/89 100/6/91 175/3/79
f 172/3/79 171/1/79 91/2/82
f 125/3/79 124/1/115 170/2/145
f 205/1/176 204/2/175 207/6/79
f 207/7/79 204/4/175 177/5/148
f 218/6/79 219/3/79 215/1/184
f 213/2/182 217/6/79 218/3/79
f 186/3/157 218/1/79 217/2/79
f 219/1/79 218/2/79 186/6/157
f 216/6/79 217/3/79 212/1/181
f 169/3/79 221/1/185 168/2/144
f 220/2/79 178/6/149 176/3/147
f 220/2/79 182/6/153 180/3/151
f 223/3/187 215/1/184 219/2/79
f 220/1/79 219/2/79 184/6/155
f 181/5/152 227/6/79 207/7/79
f 183/2/154 226/6/79 227/3/79
f 183/9/154 185/5/156 225/6/79
f 187/1/158 224/2/79 225/6/79
f 189/2/160 208/6/79 224/3/79
f 227/6/79 231/3/191 206/1/177
f 226/6/79 230/3/190 231/1/191
f 225/1/79 229/2/189 230/6/190
f 224/1/79 228/2/188 229/6/189
f 209/2/178 228/6/188 224/3/79
f 237/2/79 239/6/79 145/3/79
f 130/6/119 238/3/79 143/1/79
f 238/2/79 237/6/79 141/3/79
f 239/2/79 242/6/79 244/3/79
f 245/6/79 154/3/131 140/1/129
f 243/6/79 242/3/79 239/1/79
f 242/2/79 240/6/197 147/3/130
f 244/6/79 147/3/130 154/1/131
f 173/3/79 243/1/79 126/2/79
f 248/3/79 246/1/79 55/2/54
f 248/1/79 56/2/55 57/6/56
f 246/6/79 249/7/78 54/4/53
f 254/3/200 89/1/80 90/2/81
f 258/6/79 260/3/78 79/1/78
f 252/3/199 250/1/79 87/2/79
f 250/3/79 261/1/79 86/2/79
f 261/3/79 259/1/79 85/2/79
f 259/3/79 257/1/79 84/2/79
f 257/7/79 255/4/79 83/5/79
f 255/3/79 253/1/79 82/2/79
f 252/1/199 88/2/79 89/6/80
f 253/3/79 251/1/79 81/2/79
f 251/6/79 258/7/79 80/4/79
f 130/6/119 25/1/24 124/1/115
f 58/2/57 290/6/230 59/6/58
f 215/1/184 26/2/25 214/2/183
f 77/5/76 269/6/209 78/6/77
f 168/2/144 301/6/241 222/6/186
f 129/3/118 24/1/23 127/1/116
f 57/6/56 291/1/231 58/1/57
f 214/1/183 27/2/26 213/2/182
f 213/1/182 28/2/27 212/2/181
f 56/2/55 292/6/232 57/6/56
f 128/7/117 22/4/21 129/4/118
f 32/3/31 310/1/208 260/1/78
f 72/6/71 274/1/214 73/1/72
f 212/1/181 29/2/28 211/2/180
f 55/2/54 293/6/233 56/6/55
f 174/6/146 23/7/22 128/7/117
f 71/6/70 276/1/216 72/1/71
f 211/1/180 235/2/195 210/2/179
f 147/3/130 8/1/7 154/1/131
f 70/2/69 278/6/218 71/6/70
f 176/3/147 302/1/242 223/1/187
f 140/1/129 308/2/248 241/2/198
f 69/6/68 279/3/219 70/3/69
f 210/1/179 236/2/196 209/2/178
f 249/7/78 295/4/235 54/4/53
f 68/6/67 280/3/220 69/3/68
f 54/4/53 294/5/234 55/5/54
f 66/6/65 281/3/221 68/3/67
f 222/2/186 265/6/205 101/6/92
f 221/2/185 266/4/206 300/2/240
f 67/3/66 283/1/223 66/1/65
f 127/6/116 307/7/247 240/7/197
f 124/1/115 5/2/5 170/2/145
f 206/3/177 275/1/215 205/1/176
f 296/6/236 96/4/87 53/2/52
f 297/7/237 94/2/85 267/2/207
f 176/2/147 265/6/205 3/3/3
f 264/2/204 177/5/148 2/5/2
f 205/1/176 275/1/215 277/2/217
f 260/3/78 310/3/208 268/1/208
f 204/4/175 277/4/217 2/5/2
f 78/2/77 269/2/209 311/6/249
f 263/2/203 311/2/249 296/6/236
f 65/6/64 284/6/224 270/1/210
f 102/2/93 264/2/204 4/6/4
f 154/3/131 8/3/7 11/1/10
f 231/3/191 306/3/246 262/1/202
f 230/3/190 305/3/245 306/1/246
f 139/3/128 12/3/11 13/1/12
f 76/4/75 52/7/51 297/7/237
f 229/2/189 304/2/244 305/6/245
f 79/3/78 268/3/208 309/1/208
f 138/4/127 13/4/12 14/5/13
f 228/2/188 303/2/243 304/6/244
f 170/1/145 5/1/5 267/2/207
f 137/4/126 14/4/13 15/5/14
f 76/6/75 271/6/211 272/3/212
f 209/2/178 236/2/196 303/6/243
f 136/6/125 15/6/14 16/1/15
f 64/1/63 285/1/225 284/2/224
f 75/6/74 272/6/212 273/3/213
f 135/1/124 16/1/15 17/2/16
f 63/1/62 286/1/226 285/2/225
f 240/6/197 307/6/247 10/3/9
f 74/6/73 273/6/213 282/3/222
f 241/2/198 308/2/248 12/6/11
f 134/2/123 17/2/16 18/6/17
f 62/1/61 287/1/227 286/2/226
f 133/2/122 18/2/17 19/6/18
f 61/1/60 288/1/228 287/2/227
f 223/3/187 302/3/242 9/1/8
f 132/6/121 19/6/18 20/3/19
f 60/1/59 289/1/229 288/2/228
f 73/1/72 274/1/214 299/2/239
f 131/6/120 20/6/19 21/1/20
f 59/2/58 290/2/230 289/6/229
f 221/1/185 300/1/240 6/2/6
f 130/6/119 21/6/20 25/1/24
f 58/2/57 291/2/231 290/6/230
f 215/1/184 9/1/8 26/2/25
f 77/5/76 270/5/210 269/6/209
f 168/2/144 6/2/6 301/6/241
f 129/3/118 22/3/21 24/1/23
f 57/6/56 292/6/232 291/1/231
f 214/1/183 26/1/25 27/2/26
f 213/1/182 27/1/26 28/2/27
f 56/2/55 293/2/233 292/6/232
f 128/7/117 23/7/22 22/4/21
f 32/3/31 298/3/238 310/1/208
f 72/6/71 276/6/216 274/1/214
f 212/1/181 28/1/27 29/2/28
f 55/2/54 294/2/234 293/6/233
f 174/6/146 4/6/4 23/7/22
f 71/6/70 278/6/218 276/1/216
f 211/1/180 29/1/28 235/2/195
f 147/3/130 10/3/9 8/1/7
f 70/2/69 279/2/219 278/6/218
f 176/3/147 3/3/3 302/1/242
f 140/1/129 11/1/10 308/2/248
f 69/6/68 280/6/220 279/3/219
f 210/1/179 235/1/195 236/2/196
f 249/7/78 309/7/208 295/4/235
f 68/6/67 281/6/221 280/3/220
f 54/4/53 295/4/235 294/5/234
f 66/6/65 283/6/223 281/3/221
f 222/2/186 301/2/241 265/6/205
f 221/2/185 96/4/87 266/4/206
f 67/3/66 282/3/222 283/1/223
f 127/6/116 24/6/23 307/7/247
f 124/1/115 25/1/24 5/2/5
f 206/3/177 262/3/202 275/1/215
f 296/6/236 266/4/206 96/4/87
f 297/7/237 52/6/51 94/2/85
f 176/2/147 101/2/92 265/6/205
f 264/2/204 102/6/93 177/5/148
usemtl ground00
f 182/1/153 105/6/96 106/3/97
f 163/2/139 31/3/30 30/1/29
f 196/1/167 166/6/142 162/3/138
f 200/1/171 161/6/137 166/3/142
f 199/1/170 162/6/138 165/3/141
f 198/1/169 165/6/141 164/3/140
f 201/2/172 161/3/137 195/1/166
f 193/1/164 191/6/162 159/3/135
f 194/1/165 190/6/161 160/3/136
f 192/1/163 159/6/135 158/3/134
f 201/1/172 160/6/136 167/3/143
f 37/1/36 200/6/171 196/3/167
f 43/1/42 194/6/165 201/3/172
f 33/1/32 199/6/170 198/3/169
f 43/2/42 195/3/166 41/1/40
f 45/1/44 202/6/173 194/3/165
f 115/1/106 121/6/112 119/8/110
f 95/1/86 120/6/111 123/3/114
f 97/1/88 117/6/108 116/3/107
f 99/1/90 118/6/109 117/3/108
f 107/2/98 111/3/102 103/1/94
f 108/2/99 179/3/150 177/1/148
f 105/1/96 113/6/104 110/3/101
f 182/2/153 107/3/98 180/1/151
f 232/2/192 111/3/102 108/1/99
f 117/1/108 157/6/133 156/3/132
f 114/1/105 122/6/113 123/3/114
f 116/1/107 156/6/132 122/3/113
f 123/1/114 115/6/106 114/3/105
f 93/1/84 116/6/107 114/3/105
f 115/2/106 96/3/87 92/1/83
f 106/2/97 112/3/103 107/1/98
f 106/1/97 110/6/101 109/3/100
f 234/2/194 187/3/158 113/1/104
f 189/1/160 233/6/193 188/3/159
f 49/1/48 193/6/164 192/3/163
f 51/1/50 203/6/174 193/3/164
f 197/2/168 164/3/140 163/1/139
f 202/1/173 158/6/134 190/3/161
f 35/1/34 196/6/167 199/3/170
f 47/1/46 192/6/163 202/3/173
f 186/1/157 233/6/193 104/3/95
f 110/1/101 187/6/158 185/3/156
f 109/1/100 185/6/156 183/3/154
f 39/1/38 195/6/166 200/3/171
f 162/1/138 38/6/37 36/3/35
f 166/1/142 40/6/39 38/3/37
f 165/1/141 36/6/35 34/3/33
f 164/1/140 34/6/33 31/3/30
f 32/2/31 198/3/169 197/1/168
f 167/2/143 40/3/39 161/1/137
f 191/2/162 50/3/49 159/1/135
f 114/1/105 92/6/83 93/3/84
f 122/1/113 100/6/91 98/3/89
f 176/2/147 103/3/94 232/1/192
f 109/2/100 181/3/152 112/1/103
f 160/1/136 46/6/45 44/3/43
f 158/1/134 50/6/49 48/3/47
f 120/1/111 94/6/85 121/3/112
f 123/1/114 98/6/89 95/3/86
f 156/1/132 102/6/93 100/3/91
f 112/2/103 179/3/150 111/1/102
f 167/1/143 44/6/43 42/3/41
f 190/1/161 48/6/47 46/3/45
f 104/1/95 234/6/194 113/3/104
f 184/1/155 104/6/95 105/3/96
f 180/2/151 103/3/94 178/1/149
f 30/1/29 7/2/1 163/2/139
f 32/2/31 1/1/1 298/2/238
f 182/1/153 184/2/155 105/6/96
f 163/2/139 164/6/140 31/3/30
f 196/1/167 200/2/171 166/6/142
f 200/1/171 195/2/166 161/6/137
f 199/1/170 196/2/167 162/6/138
f 198/1/169 199/2/170 165/6/141
f 201/2/172 167/6/143 161/3/137
f 193/1/164 203/2/174 191/6/162
f 194/1/165 202/2/173 190/6/161
f 192/1/163 193/2/164 159/6/135
f 201/1/172 194/2/165 160/6/136
f 37/1/36 39/2/38 200/6/171
f 43/1/42 45/2/44 194/6/165
f 33/1/32 35/2/34 199/6/170
f 43/2/42 201/6/172 195/3/166
f 45/1/44 47/2/46 202/6/173
f 115/1/106 120/2/111 121/6/112
f 95/1/86 91/2/82 120/6/111
f 97/1/88 99/2/90 117/6/108
f 99/1/90 101/2/92 118/6/109
f 107/2/98 112/6/103 111/3/102
f 108/2/99 111/6/102 179/3/150
f 105/1/96 104/2/95 113/6/104
f 182/2/153 106/6/97 107/3/98
f 232/2/192 103/6/94 111/3/102
f 117/1/108 118/2/109 157/6/133
f 114/1/105 116/2/107 122/6/113
f 116/1/107 117/2/108 156/6/132
f 123/1/114 120/2/111 115/6/106
f 93/1/84 97/2/88 116/6/107
f 115/2/106 119/12/110 96/3/87
f 106/2/97 109/6/100 112/3/103
f 106/1/97 105/2/96 110/6/101
f 234/2/194 189/6/160 187/3/158
f 189/1/160 234/2/194 233/6/193
f 49/1/48 51/2/50 193/6/164
f 51/1/50 53/2/52 203/6/174
f 197/2/168 198/6/169 164/3/140
f 202/1/173 192/2/163 158/6/134
f 35/1/34 37/2/36 196/6/167
f 47/1/46 49/2/48 192/6/163
f 186/1/157 188/2/159 233/6/193
f 110/1/101 113/2/104 187/6/158
f 109/1/100 110/2/101 185/6/156
f 39/1/38 41/2/40 195/6/166
f 162/1/138 166/2/142 38/6/37
f 166/1/142 161/2/137 40/6/39
f 165/1/141 162/2/138 36/6/35
f 164/1/140 165/2/141 34/6/33
f 32/2/31 33/6/32 198/3/169
f 167/2/143 42/6/41 40/3/39
f 191/2/162 52/6/51 50/3/49
f 114/1/105 115/2/106 92/6/83
f 122/1/113 156/2/132 100/6/91
f 176/2/147 178/6/149 103/3/94
f 109/2/100 183/6/154 181/3/152
f 160/1/136 190/2/161 46/6/45
f 158/1/134 159/2/135 50/6/49
f 120/1/111 91/2/82 94/6/85
f 123/1/114 122/2/113 98/6/89
f 156/1/132 157/2/133 102/6/93
f 112/2/103 181/6/152 179/3/150
f 167/1/143 160/2/136 44/6/43
f 190/1/161 158/2/134 48/6/47
f 104/1/95 233/2/193 234/6/194
f 184/1/155 186/2/157 104/6/95
f 180/2/151 107/6/98 103/3/94
f 163/1/139 1/2/1 197/2/168
f 203/6/174 52/6/51 191/2/162
f 94/6/85 119/12/110 121/3/112
f 52/6/51 96/3/87 94/6/85
f 108/2/99 176/2/147 232/1/192
f 157/2/133 101/2/92 102/6/93
f 177/1/148 101/2/92 176/2/147
f 30/1/29 299/1/239 7/2/1
f 32/2/31 197/1/168 1/1/1
f 163/1/139 7/1/1 1/2/1
f 203/6/174 53/2/52 52/6/51
f 94/6/85 96/3/87 119/12/110
f 52/6/51 53/2/52 96/3/87
f 108/2/99 177/1/148 176/2/147
f 157/2/133 118/6/109 101/2/92
f 177/1/148 102/6/93 101/2/92
