# Blender 5.1.2
# www.blender.org
mtllib character_lod2.mtl
o handkerchief.002_triangulated_lod2
v 0.272400 1.313786 -0.078031
v 0.304285 1.366329 -0.039624
v 0.301764 1.365636 0.000642
v 0.246784 1.430008 -0.023143
v 0.254146 1.288016 -0.002816
v 0.190841 1.331588 -0.031103
v 0.227181 1.397894 0.029481
v 0.233489 1.404579 -0.073070
v 0.201377 1.352657 0.026860
v 0.210666 1.364171 -0.075233
v 0.256633 1.291049 -0.048075
v 0.286499 1.342975 0.035265
v 0.292450 1.345091 -0.072858
v 0.262253 1.303622 0.031104
v 0.270268 1.368568 -0.073237
v 0.316602 1.412711 -0.114558
v 0.274986 1.372544 -0.066399
v 0.269520 1.365978 -0.067838
v 0.268734 1.416541 -0.088985
v 0.293362 1.372695 -0.085138
v 0.263540 1.363936 -0.072686
v 0.257282 1.359084 -0.148815
v 0.253751 1.384699 -0.094521
v 0.239555 1.391946 -0.119690
v 0.273193 1.351945 -0.098431
v 0.013340 1.825467 0.159610
v 0.033111 1.676853 0.135771
v 0.079704 1.822264 0.130640
v 0.098811 1.675875 0.103701
v 0.047665 1.767105 0.157386
v 0.104742 1.759191 0.118154
v 0.020908 1.624320 0.140507
v 0.088156 1.607841 0.115217
v 0.000000 1.637139 0.170013
v 0.047004 1.579294 0.124659
v 0.000341 1.573065 0.136323
v 0.011192 1.574116 0.133948
v 0.123306 1.815842 0.082850
v 0.114809 1.605702 0.072772
v 0.134977 1.754977 0.007833
v 0.132404 1.745933 0.066331
v 0.060131 1.547570 0.086880
v 0.000000 1.542903 0.039240
v 0.010111 1.521719 0.113753
v 0.129437 1.725578 -0.012142
v 0.050105 1.565612 0.000016
v 0.000000 1.588157 -0.058650
v 0.116607 1.614728 0.011715
v 0.032272 1.584345 -0.044094
v 0.100980 1.610450 -0.013408
v 0.111967 1.621746 -0.003534
v 0.082762 1.620786 -0.048100
v 0.061702 1.592580 -0.039115
v 0.118037 1.649352 -0.030137
v 0.038713 1.596367 -0.063929
v 0.153473 1.667996 -0.033757
v 0.130598 1.626561 -0.010913
v 0.153604 1.705064 -0.036777
v 0.127125 1.701209 -0.010150
v -0.121193 1.817663 0.090323
v 0.000421 1.585989 0.144888
v -0.069814 1.604563 0.123241
v -0.098811 1.675875 0.103701
v -0.023756 1.678362 0.139298
v -0.060421 1.823192 0.142175
v -0.014699 1.761677 0.164326
v -0.051429 1.770646 0.155956
v -0.104742 1.759191 0.118154
v -0.025163 1.534414 0.114269
v 0.000322 1.616095 0.149792
v -0.004069 1.643037 0.150489
v -0.017633 1.574399 0.132361
v -0.118020 1.621332 0.069259
v -0.127595 1.808860 0.072987
v -0.103319 1.597490 0.095422
v -0.134977 1.754977 0.007833
v -0.132404 1.745933 0.066331
v -0.046128 1.537398 0.091329
v -0.129437 1.725578 -0.012142
v -0.116607 1.614728 0.011715
v -0.050105 1.565612 0.000016
v -0.032272 1.584345 -0.044094
v -0.100980 1.610450 -0.013408
v -0.111967 1.621746 -0.003534
v -0.082762 1.620786 -0.048100
v -0.061702 1.592580 -0.039115
v -0.118037 1.649352 -0.030137
v -0.038713 1.596367 -0.063929
v -0.153472 1.667996 -0.033757
v -0.130598 1.626562 -0.010913
v -0.153604 1.705064 -0.036777
v -0.127125 1.701209 -0.010150
v 0.128454 1.784621 0.112625
v 0.098148 1.799240 0.138844
v 0.067620 1.810681 0.152603
v 0.019431 1.838762 0.158032
v 0.104515 1.721646 0.127015
v 0.064819 1.730153 0.153081
v 0.010797 1.555811 -0.250168
v -0.000000 1.709568 -0.217638
v 0.028889 1.523410 -0.250203
v 0.070897 1.689452 -0.193363
v 0.011525 1.570504 -0.233394
v 0.012897 1.616695 -0.240991
v 0.067059 1.542336 -0.186186
v 0.040697 1.576205 -0.031488
v 0.060296 1.528652 -0.164722
v 0.000929 1.568760 -0.279535
v 0.014014 1.544912 -0.280444
v 0.000000 1.505214 -0.250890
v 0.000000 1.499293 -0.159026
v -0.000000 1.576733 -0.044575
v 0.161012 1.495681 -0.193804
v 0.163679 1.665450 -0.115819
v 0.168312 1.604271 -0.152034
v 0.163944 1.540274 -0.172129
v 0.169464 1.558406 -0.105464
v 0.163821 1.512851 -0.135970
v 0.142549 1.541127 -0.102414
v 0.168756 1.531255 -0.214308
v 0.156998 1.555446 -0.216012
v 0.075999 1.588646 -0.012507
v 0.117854 1.681507 -0.178942
v 0.128767 1.514903 -0.224540
v 0.123927 1.557526 -0.196485
v 0.088438 1.492807 -0.151367
v 0.127995 1.541800 -0.210398
v 0.207763 1.535265 -0.106012
v 0.211804 1.636951 -0.006466
v 0.234330 1.495046 -0.060430
v 0.172329 1.766290 0.046073
v 0.208353 1.557538 -0.068705
v 0.197489 1.673396 -0.055014
v 0.227398 1.532778 -0.037644
v 0.198433 1.560529 0.012162
v 0.141732 1.621296 0.029552
v 0.156336 1.555070 0.018336
v 0.173426 1.492529 -0.028580
v 0.247978 1.536244 -0.098877
v 0.218954 1.503897 -0.105730
v 0.096137 1.554949 -0.073865
v 0.147639 1.503966 -0.082814
v 0.112740 1.651399 0.099902
v 0.181912 1.744789 0.013146
v 0.100116 1.576080 0.103183
v 0.143092 1.777942 0.097950
v 0.186640 1.527034 0.028640
v 0.203247 1.536848 0.013815
v 0.113138 1.711161 0.092479
v 0.131200 1.609629 0.073543
v 0.104667 1.622641 0.008798
v 0.113701 1.713979 0.074075
v 0.094498 1.801942 0.113927
v 0.120488 1.693997 0.048627
v 0.174630 1.612027 0.033237
v 0.144697 1.555552 0.071044
v 0.188446 1.548303 0.015853
v 0.171633 1.575703 0.060182
v 0.116106 1.656043 0.029625
v 0.147106 1.554800 0.040353
v 0.172337 1.535819 0.010012
v 0.142422 1.622673 0.091868
v 0.092549 1.798126 -0.189698
v 0.174211 1.760158 -0.096367
v 0.021047 1.789410 -0.218906
v 0.188951 1.775900 -0.011534
v 0.115840 1.874096 -0.141074
v 0.000000 1.921249 -0.159243
v 0.093182 1.922012 -0.111496
v 0.125168 1.820948 -0.166538
v 0.146609 1.887391 -0.089043
v 0.154825 1.892048 -0.030309
v 0.135066 1.879546 0.061159
v 0.016620 1.894174 0.128771
v 0.027429 1.873454 -0.195231
v 0.179177 1.820759 -0.083074
v 0.177289 1.812576 0.009314
v 0.093869 1.871706 0.117357
v 0.091793 1.940456 -0.035207
v 0.000000 1.959967 -0.003177
v 0.070764 1.929532 0.067199
v -0.000000 1.763964 0.176238
v -0.003590 1.733989 0.172014
v 0.054593 1.734563 0.161492
v 0.235532 1.738234 0.002228
v -0.128454 1.784621 0.112625
v -0.098148 1.799240 0.138844
v -0.054204 1.857474 0.144476
v -0.053674 1.731836 0.158017
v -0.104515 1.721646 0.127015
v -0.028889 1.523410 -0.250203
v -0.070897 1.689452 -0.193363
v -0.031985 1.562664 -0.225460
v -0.067059 1.542336 -0.186186
v -0.040697 1.576205 -0.031488
v -0.060296 1.528652 -0.164722
v -0.022681 1.546775 -0.265733
v -0.161012 1.495681 -0.193804
v -0.163679 1.665450 -0.115819
v -0.168312 1.604271 -0.152034
v -0.163944 1.540274 -0.172129
v -0.169464 1.558406 -0.105464
v -0.163821 1.512851 -0.135970
v -0.142549 1.541127 -0.102414
v -0.168756 1.531255 -0.214308
v -0.156998 1.555446 -0.216012
v -0.096137 1.554949 -0.073865
v -0.117854 1.681507 -0.178942
v -0.128767 1.514903 -0.224540
v -0.123927 1.557526 -0.196485
v -0.088438 1.492807 -0.151367
v -0.127995 1.541800 -0.210398
v -0.211804 1.636951 -0.006466
v -0.234330 1.495046 -0.060430
v -0.172329 1.766290 0.046073
v -0.208353 1.557538 -0.068705
v -0.197489 1.673396 -0.055014
v -0.223223 1.540688 -0.031413
v -0.198433 1.560529 0.012162
v -0.141732 1.621296 0.029552
v -0.156336 1.555070 0.018336
v -0.173426 1.492529 -0.028580
v -0.249577 1.536244 -0.096178
v -0.075999 1.588646 -0.012507
v -0.218954 1.503897 -0.105730
v -0.147639 1.503966 -0.082814
v -0.212693 1.532826 -0.106287
v -0.112740 1.651399 0.099902
v -0.181912 1.744789 0.013146
v -0.100116 1.576080 0.103183
v -0.143092 1.777942 0.097950
v -0.186640 1.527034 0.028640
v -0.203247 1.536848 0.013815
v -0.113138 1.711161 0.092479
v -0.131200 1.609629 0.073543
v -0.104667 1.622641 0.008798
v -0.113701 1.713979 0.074075
v -0.094498 1.801942 0.113927
v -0.120488 1.693997 0.048627
v -0.174630 1.612027 0.033237
v -0.144697 1.555552 0.071044
v -0.188446 1.548303 0.015853
v -0.171634 1.575703 0.060182
v -0.116106 1.656043 0.029625
v -0.147106 1.554800 0.040353
v -0.172337 1.535819 0.010012
v -0.142422 1.622673 0.091868
v -0.063119 1.800194 -0.204790
v -0.174211 1.760158 -0.096367
v -0.115840 1.874096 -0.141074
v -0.093552 1.921517 -0.111967
v -0.125168 1.820948 -0.166538
v -0.146609 1.887391 -0.089043
v -0.154825 1.892048 -0.030309
v -0.125787 1.878922 0.081399
v -0.064412 1.910444 0.099744
v -0.046802 1.866190 -0.190436
v -0.179177 1.820759 -0.083074
v -0.177289 1.812576 0.009314
v -0.000527 1.955444 -0.086529
v -0.091793 1.940456 -0.035207
v -0.085878 1.931895 0.034248
v -0.016037 1.937170 0.074204
v -0.067655 1.810394 0.150929
v -0.065220 1.730353 0.152946
v -0.188951 1.775900 -0.011534
v -0.235532 1.738234 0.002228
v 0.170342 0.891773 0.055271
v 0.156808 0.884643 -0.070083
v 0.000000 0.863627 -0.038227
v -0.071860 1.095397 -0.071072
v 0.071579 1.094386 -0.072151
v 0.103732 0.878993 -0.084489
v 0.088859 1.025500 0.086120
v 0.183651 0.889473 -0.009856
v 0.150280 1.013238 -0.061275
v 0.133641 1.016779 0.052398
v -0.001403 1.018578 -0.108411
v -0.000000 0.919065 -0.100113
v 0.112737 1.018560 -0.105514
v 0.157054 1.012977 -0.005575
v 0.000000 0.879981 0.083371
v 0.105146 0.885175 0.095298
v 0.013820 0.870460 0.036371
v 0.012220 0.865218 -0.038472
v 0.047802 0.867153 0.088028
v 0.169603 0.751226 0.052799
v 0.076903 0.778592 -0.086087
v 0.176816 0.734046 -0.016322
v 0.112090 0.798715 0.096595
v 0.020979 0.800738 -0.042386
v 0.052329 0.793346 0.087268
v 0.097019 0.949705 -0.120461
v 0.038008 0.901202 0.088559
v 0.100970 1.424846 0.056818
v -0.009963 1.504442 -0.078657
v 0.047210 1.451843 -0.086413
v 0.000458 1.174541 -0.050757
v -0.009662 1.381765 -0.097630
v 0.071563 1.161120 -0.055378
v 0.135007 1.350025 -0.044088
v 0.117947 1.287558 -0.017801
v 0.107244 1.123495 -0.031383
v 0.048346 1.232828 0.086039
v 0.021298 1.277627 0.102635
v 0.000421 1.021950 0.104302
v 0.118148 1.120583 0.001663
v 0.100790 1.280128 0.045757
v 0.098624 1.128284 0.054861
v 0.050439 1.492310 -0.058385
v 0.011027 1.494919 0.023713
v 0.052624 1.509312 -0.024908
v 0.186339 1.426739 0.021704
v 0.172921 1.366434 -0.047879
v 0.175646 1.379233 0.021543
v 0.186483 1.439383 -0.067841
v 0.166012 1.483776 -0.037701
v 0.045530 0.884619 -0.091989
v 0.071565 1.270855 -0.067999
v 0.107123 1.417456 -0.079717
v 0.444558 1.227677 0.006290
v 0.488038 1.138934 -0.045619
v 0.203046 1.377838 -0.071286
v 0.172578 1.471171 -0.005396
v 0.173131 1.361962 -0.008474
v 0.488951 1.171091 -0.040050
v 0.361534 1.237908 -0.058190
v 0.395903 1.276892 -0.028172
v 0.377506 1.188425 -0.004507
v 0.372868 1.195989 -0.034251
v 0.387810 1.245856 0.026295
v 0.366574 1.273972 -0.055340
v 0.389182 1.197877 0.023886
v 0.114895 0.137402 -0.027127
v 0.078711 0.139502 0.034527
v 0.040263 0.141130 0.009705
v 0.138172 0.525420 -0.004652
v 0.052808 0.509008 0.070172
v 0.132049 0.520987 0.038934
v 0.066893 0.521016 -0.049345
v 0.050378 0.444189 0.045751
v 0.112787 0.525562 -0.041508
v 0.145948 0.388493 -0.036144
v 0.028882 0.379195 -0.047788
v 0.126386 0.189601 0.001646
v 0.068192 0.398548 -0.078453
v 0.099583 0.527030 0.072180
v 0.141005 0.745601 -0.072191
v 0.010011 0.787574 0.028488
v 0.030873 0.523551 -0.022375
v 0.043369 0.000326 0.208848
v 0.113675 0.000382 0.202372
v 0.034096 0.000273 0.014370
v 0.020828 0.000328 0.140630
v 0.147787 0.000430 0.129102
v 0.118382 0.000602 -0.074203
v 0.049355 0.042252 0.199859
v 0.107780 0.042440 0.193500
v 0.046662 0.004682 -0.080752
v 0.042800 0.136767 -0.024125
v 0.131823 0.070537 0.121875
v 0.113862 0.137355 0.010364
v 0.084688 0.082792 0.132950
v 0.038112 0.067971 0.133085
v 0.087544 0.095348 0.090703
v 0.046622 0.090381 0.078012
v 0.061228 0.138782 -0.049978
v 0.586329 1.060484 -0.062633
v 0.565712 1.118442 -0.008126
v 0.606151 1.065291 -0.006383
v 0.512847 1.099047 -0.049220
v 0.491707 1.133160 0.032478
v 0.610689 1.062706 -0.024836
v 0.558123 1.105038 -0.058509
v 0.518348 1.117905 0.056173
v 0.562411 1.122201 0.041155
v 0.573709 1.087509 0.051976
v 0.512621 1.109183 -0.004174
v 0.583446 1.050008 -0.054625
v 0.550528 1.047668 0.063828
v 0.541305 1.072928 0.048040
v 0.609907 1.069843 0.016913
v 0.604959 1.052517 0.020049
v 0.686519 0.993143 0.012909
v 0.658198 1.026909 0.005420
v 0.683448 0.994046 -0.001737
v 0.670018 0.988999 0.007803
v 0.591653 1.049829 -0.000969
v 0.606990 1.058486 0.026083
v 0.608296 1.045440 0.046377
v 0.617028 1.066456 0.030543
v 0.682018 0.999152 0.034416
v 0.669973 0.995481 0.041754
v 0.683234 1.004016 0.047845
v 0.593886 1.052910 0.028688
v 0.597197 1.057041 -0.036126
v 0.593080 1.046305 -0.024227
v 0.672345 0.998713 -0.021267
v 0.671296 0.998282 -0.035272
v 0.648559 1.028803 -0.027314
v 0.602332 1.056851 -0.011908
v 0.659208 0.994147 -0.026412
v 0.603560 1.061445 -0.047789
v 0.657849 1.004110 -0.052075
v 0.647323 0.999706 -0.058707
v 0.656664 1.003890 -0.065058
v 0.613918 1.048926 -0.059276
v 0.592188 1.048877 -0.042326
v 0.572906 1.000558 0.081289
v 0.552734 0.997014 0.075219
v 0.561185 0.990500 0.093210
v 0.528169 1.051598 0.078645
v 0.551334 1.074195 0.067770
v 0.542936 1.062057 0.084968
v 0.520626 1.080235 0.047088
v 0.053663 0.871456 -0.059311
v 0.095384 0.836888 -0.088034
v 0.106727 0.840902 0.100945
v 0.012111 0.826046 0.036626
v 0.045635 0.832037 0.089769
v 0.182543 0.826863 -0.048623
v 0.001086 0.802431 0.013350
v 0.021465 0.840170 -0.062857
v 0.173128 0.849808 0.056130
v 0.158877 0.845112 -0.073265
v 0.186484 0.850354 -0.011081
v 0.009818 0.824193 -0.040538
v 0.020011 0.806185 0.070707
v 0.190484 0.829598 0.028640
v 0.072365 0.814239 0.106136
v 0.151828 0.825291 0.083442
v 0.139452 0.819900 -0.090149
v 0.044327 0.830758 -0.081050
v 0.070774 0.812329 -0.090524
v 0.021541 0.805030 -0.063817
v 0.064320 0.185190 -0.058806
v 0.097780 0.180512 0.034406
v 0.032966 0.184273 0.003946
v 0.097350 0.139700 -0.052476
v 0.124816 0.184039 -0.030556
v 0.059024 0.181096 0.033240
v 0.036221 0.185587 -0.033460
v 0.100448 0.184999 -0.056614
v 0.064854 1.012250 -0.117771
v 0.055375 1.342890 0.133221
v 0.133807 1.386229 0.043375
v 0.103943 1.365733 0.097693
v 0.102778 1.312311 0.103378
v 0.095384 0.836888 -0.088034
v 0.106727 0.840902 0.100945
v 0.012111 0.826046 0.036626
v 0.045635 0.832037 0.089769
v 0.182543 0.826863 -0.048623
v 0.001086 0.802431 0.013350
v 0.044327 0.830758 -0.081050
v 0.021465 0.840170 -0.062857
v 0.173128 0.849808 0.056130
v 0.158877 0.845112 -0.073265
v 0.186484 0.850354 -0.011081
v 0.009818 0.824193 -0.040538
v 0.020011 0.806185 0.070707
v 0.190484 0.829598 0.028640
v 0.072365 0.814239 0.106136
v 0.151828 0.825291 0.083442
v 0.139452 0.819900 -0.090149
v 0.070774 0.812329 -0.090524
v 0.021541 0.805030 -0.063817
v 0.116353 0.404744 -0.072845
v 0.098579 0.456999 0.056222
v 0.021687 0.466586 0.011653
v -0.170342 0.891773 0.055271
v -0.156808 0.884643 -0.070083
v -0.103732 0.878993 -0.084489
v -0.088366 1.030038 0.086284
v -0.183651 0.889473 -0.009856
v -0.148148 1.018702 -0.059794
v -0.131558 1.017601 0.058074
v -0.104688 1.017502 -0.110600
v -0.153480 1.018749 -0.010205
v -0.105146 0.885175 0.095298
v -0.013820 0.870460 0.036371
v -0.012220 0.865218 -0.038472
v -0.047802 0.867153 0.088028
v -0.169603 0.751226 0.052799
v -0.076903 0.778592 -0.086087
v -0.176816 0.734046 -0.016322
v -0.112090 0.798715 0.096594
v -0.020979 0.800738 -0.042386
v -0.052329 0.793347 0.087268
v -0.097019 0.949705 -0.120461
v -0.038008 0.901202 0.088559
v -0.045530 0.884619 -0.091989
v -0.100970 1.424846 0.056818
v -0.108616 1.427076 -0.081617
v -0.067463 1.261473 -0.068592
v -0.071563 1.161120 -0.055378
v -0.117947 1.287558 -0.017801
v -0.107244 1.123495 -0.031383
v -0.043724 1.275365 0.087572
v -0.133661 1.353779 -0.003765
v -0.118148 1.120583 0.001663
v -0.100790 1.280128 0.045757
v -0.098624 1.128284 0.054861
v -0.028649 1.499799 0.013971
v -0.052624 1.509312 -0.024908
v -0.186339 1.426739 0.021704
v -0.172921 1.366434 -0.047879
v -0.175646 1.379233 0.021543
v -0.186483 1.439383 -0.067841
v -0.166011 1.483775 -0.037701
v -0.128080 1.355192 -0.057167
v -0.093768 1.481613 -0.056751
v -0.444558 1.227677 0.006290
v -0.491707 1.133160 0.032478
v -0.488038 1.138934 -0.045619
v -0.203046 1.377838 -0.071286
v -0.172578 1.471171 -0.005396
v -0.173131 1.361962 -0.008474
v -0.488951 1.171091 -0.040050
v -0.361534 1.237908 -0.058190
v -0.395903 1.276892 -0.028172
v -0.377505 1.188425 -0.004507
v -0.372868 1.195989 -0.034251
v -0.387810 1.245856 0.026295
v -0.366574 1.273972 -0.055340
v -0.389181 1.197877 0.023886
v -0.114895 0.137402 -0.027127
v -0.040263 0.141130 0.009705
v -0.138172 0.525420 -0.004652
v -0.052808 0.509008 0.070172
v -0.132049 0.520987 0.038934
v -0.066893 0.521016 -0.049345
v -0.050378 0.444189 0.045751
v -0.112787 0.525562 -0.041508
v -0.145948 0.388493 -0.036144
v -0.028882 0.379195 -0.047788
v -0.126386 0.189601 0.001646
v -0.068192 0.398548 -0.078453
v -0.099583 0.527030 0.072180
v -0.141005 0.745601 -0.072191
v -0.010011 0.787574 0.028488
v -0.030873 0.523551 -0.022375
v -0.043369 0.000326 0.208848
v -0.113675 0.000383 0.202372
v -0.034096 0.000273 0.014370
v -0.020828 0.000328 0.140630
v -0.147787 0.000430 0.129102
v -0.118382 0.000603 -0.074203
v -0.049355 0.042252 0.199859
v -0.107780 0.042440 0.193500
v -0.046662 0.004683 -0.080752
v -0.042800 0.136768 -0.024125
v -0.131823 0.070537 0.121875
v -0.113862 0.137355 0.010364
v -0.084688 0.082792 0.132950
v -0.038112 0.067971 0.133085
v -0.087544 0.095349 0.090703
v -0.078711 0.139502 0.034527
v -0.046622 0.090381 0.078012
v -0.061228 0.138782 -0.049978
v -0.586329 1.060484 -0.062633
v -0.565712 1.118442 -0.008126
v -0.610689 1.062706 -0.024836
v -0.558123 1.105038 -0.058509
v -0.518348 1.117906 0.056173
v -0.562411 1.122201 0.041155
v -0.573709 1.087509 0.051976
v -0.512621 1.109183 -0.004174
v -0.512847 1.099047 -0.049220
v -0.583446 1.050008 -0.054625
v -0.550528 1.047669 0.063827
v -0.541305 1.072928 0.048040
v -0.604238 1.056002 -0.005409
v -0.611168 1.069521 0.014771
v -0.604959 1.052517 0.020049
v -0.683326 0.996203 -0.001487
v -0.686519 0.993143 0.012909
v -0.670019 0.988999 0.007803
v -0.608597 1.069013 -0.003945
v -0.591653 1.049829 -0.000969
v -0.606990 1.058486 0.026084
v -0.608296 1.045439 0.046377
v -0.683234 1.004016 0.047845
v -0.669973 0.995481 0.041754
v -0.617028 1.066456 0.030543
v -0.682018 0.999152 0.034416
v -0.593886 1.052910 0.028688
v -0.597197 1.057041 -0.036126
v -0.672345 0.998713 -0.021267
v -0.671296 0.998282 -0.035272
v -0.648559 1.028803 -0.027314
v -0.602332 1.056851 -0.011908
v -0.659208 0.994147 -0.026412
v -0.593080 1.046305 -0.024227
v -0.603560 1.061445 -0.047789
v -0.657849 1.004110 -0.052075
v -0.647323 0.999706 -0.058707
v -0.656664 1.003890 -0.065058
v -0.613917 1.048926 -0.059276
v -0.592188 1.048877 -0.042326
v -0.572906 1.000558 0.081289
v -0.561185 0.990500 0.093210
v -0.552734 0.997014 0.075219
v -0.528169 1.051598 0.078645
v -0.551334 1.074195 0.067770
v -0.542936 1.062057 0.084968
v -0.520626 1.080235 0.047088
v -0.053663 0.871456 -0.059311
v -0.095384 0.836888 -0.088034
v -0.106727 0.840902 0.100945
v -0.012111 0.826046 0.036626
v -0.045635 0.832037 0.089769
v -0.182543 0.826863 -0.048623
v -0.001086 0.802431 0.013350
v -0.044327 0.830758 -0.081050
v -0.021465 0.840170 -0.062857
v -0.173128 0.849808 0.056130
v -0.158877 0.845112 -0.073265
v -0.186484 0.850354 -0.011081
v -0.009818 0.824193 -0.040538
v -0.020011 0.806185 0.070707
v -0.190484 0.829598 0.028640
v -0.072365 0.814239 0.106136
v -0.151828 0.825291 0.083442
v -0.139452 0.819900 -0.090149
v -0.070774 0.812329 -0.090524
v -0.021541 0.805030 -0.063817
v -0.064320 0.185190 -0.058806
v -0.097780 0.180512 0.034406
v -0.032966 0.184273 0.003946
v -0.097350 0.139700 -0.052476
v -0.124816 0.184039 -0.030556
v -0.059024 0.181096 0.033239
v -0.036221 0.185587 -0.033460
v -0.100448 0.184999 -0.056614
v -0.050771 1.356919 0.127960
v -0.052499 1.301365 0.122750
v -0.133807 1.386229 0.043375
v -0.103943 1.365733 0.097693
v -0.102778 1.312311 0.103378
v -0.095384 0.836888 -0.088034
v -0.106727 0.840902 0.100945
v -0.012111 0.826046 0.036626
v -0.045635 0.832037 0.089769
v -0.182543 0.826863 -0.048623
v -0.001086 0.802431 0.013350
v -0.021465 0.840170 -0.062857
v -0.173128 0.849808 0.056130
v -0.158877 0.845112 -0.073265
v -0.186484 0.850354 -0.011081
v -0.009818 0.824193 -0.040538
v -0.020011 0.806185 0.070707
v -0.190484 0.829598 0.028640
v -0.072365 0.814239 0.106136
v -0.151828 0.825291 0.083442
v -0.139452 0.819900 -0.090149
v -0.044327 0.830758 -0.081050
v -0.070774 0.812329 -0.090524
v -0.021541 0.805030 -0.063817
v -0.116353 0.404744 -0.072845
v -0.098579 0.456999 0.056222
v -0.021687 0.466586 0.011653
vn -0.9438 -0.3032 -0.1318
vn 0.1279 -0.9326 -0.3375
vn 0.0990 -0.9719 0.2136
vn -0.2507 0.6787 -0.6903
vn 0.9647 0.1726 -0.1991
vn 0.7516 -0.0696 -0.6559
vn -0.6836 0.0925 -0.7240
vn -0.3314 0.6385 0.6946
vn 0.9350 0.1748 0.3085
vn -0.0308 0.9993 0.0212
vn 0.2067 -0.6991 0.6845
vn 0.6511 -0.0903 0.7536
vn -0.7801 -0.0344 0.6248
vn 0.3455 -0.5719 -0.7440
vn -0.5239 0.8447 -0.1096
vn 0.6810 0.4246 -0.5967
vn 0.6567 -0.7018 -0.2759
vn -0.4911 -0.7175 0.4940
vn -0.6333 -0.5526 -0.5418
vn 0.1727 -0.0171 0.9848
vn -0.6088 0.6565 -0.4453
vn 0.0490 -0.3650 -0.9297
vn 0.4969 -0.7728 -0.3948
vn -0.0322 0.9161 0.3996
vn 0.7951 0.5675 0.2139
vn 0.2988 -0.0354 0.9537
vn -0.6597 -0.4539 0.5990
vn 0.8877 -0.3980 0.2313
vn 0.5969 -0.1227 0.7928
vn 0.6302 -0.2305 0.7414
vn 0.2862 -0.0896 0.9540
vn -0.2289 -0.0827 0.9699
vn -0.2855 0.2106 0.9350
vn 0.3479 -0.0591 0.9357
vn 0.0892 0.1482 0.9849
vn -0.0791 -0.0964 0.9922
vn 0.7251 -0.0338 0.6878
vn 0.3967 -0.3241 0.8588
vn 0.4494 -0.0626 0.8911
vn 0.0248 -0.3268 0.9448
vn -0.0296 -0.2726 0.9617
vn 0.5971 -0.7876 0.1524
vn 0.1279 -0.8887 0.4402
vn -0.1308 0.2901 0.9480
vn 0.8822 0.1015 0.4598
vn 0.9702 -0.0324 0.2400
vn 0.9942 -0.1041 0.0276
vn 0.8446 -0.5256 -0.1021
vn 0.9898 0.0889 0.1115
vn 0.9922 -0.1245 -0.0052
vn 0.7964 -0.5921 -0.1235
vn 0.6358 -0.6890 -0.3479
vn 0.4650 -0.7716 -0.4341
vn 0.6319 -0.3384 -0.6973
vn 0.8966 -0.2269 -0.3803
vn 0.5108 0.7695 -0.3834
vn 0.7140 -0.6749 -0.1866
vn 0.3815 -0.7341 -0.5618
vn -0.0592 -0.3903 -0.9188
vn -0.7185 -0.0133 0.6954
vn -0.9450 -0.0087 0.3270
vn -0.9680 -0.0418 0.2474
vn -0.6263 -0.1214 0.7701
vn -0.9477 -0.2361 0.2147
vn -0.7981 -0.4099 0.4416
vn -0.4029 -0.0101 0.9152
vn -0.4821 0.1441 0.8642
vn -0.8264 0.0178 0.5627
vn -0.4857 -0.1799 0.8554
vn 0.1077 -0.3721 0.9219
vn -0.3552 -0.6873 0.6336
vn -0.2588 -0.3889 0.8842
vn 0.0235 -0.5524 0.8333
vn -0.5039 -0.8606 0.0735
vn -0.8387 -0.5363 -0.0945
vn -0.9929 -0.1164 0.0257
vn -0.8090 -0.5747 -0.1232
vn 0.0010 -0.9528 0.3037
vn -0.9901 0.0920 0.1058
vn -0.6358 -0.6890 -0.3479
vn -0.6342 -0.3584 -0.6851
vn -0.4650 -0.7716 -0.4341
vn -0.3097 -0.8544 -0.4173
vn -0.7140 -0.6748 -0.1866
vn -0.8966 -0.2269 -0.3803
vn -0.3815 -0.7341 -0.5618
vn 0.0592 -0.3903 -0.9188
vn -0.5108 0.7695 -0.3834
vn 0.5705 0.1082 0.8141
vn -0.6089 -0.7107 0.3523
vn 0.3064 -0.9189 -0.2484
vn 0.3691 0.2734 -0.8883
vn 0.8048 -0.3463 -0.4820
vn 0.5725 0.7455 -0.3412
vn 0.1513 0.0386 -0.9877
vn 0.3489 0.0395 -0.9363
vn 0.2065 -0.4037 -0.8913
vn 0.5060 -0.0283 -0.8621
vn -0.0341 0.8430 -0.5368
vn -0.0572 -0.9208 0.3858
vn -0.0000 -0.9249 0.3803
vn -0.0877 -0.9961 0.0019
vn -0.0198 -0.8886 -0.4582
vn 0.9616 0.1869 -0.2009
vn 0.6881 -0.6257 0.3675
vn 0.5756 -0.7860 -0.2256
vn 0.8246 -0.0335 -0.5647
vn 0.9049 0.1346 -0.4038
vn 0.8631 0.1146 -0.4919
vn 0.2330 0.3781 -0.8959
vn -0.2096 0.6726 -0.7097
vn 0.8366 -0.0281 -0.5472
vn 0.2426 0.8605 -0.4479
vn -0.0913 -0.9918 -0.0896
vn -0.4236 -0.8941 0.1452
vn -0.1980 -0.3568 -0.9129
vn 0.5777 0.1076 -0.8091
vn -0.3840 -0.8778 0.2865
vn 0.6437 -0.7440 0.1795
vn 0.5324 -0.2653 0.8039
vn -0.1287 -0.8963 0.4243
vn -0.1582 -0.4294 0.8891
vn -0.8580 -0.4338 0.2752
vn 0.9487 0.1017 0.2995
vn 0.8524 0.3125 -0.4194
vn 0.2326 0.4543 -0.8599
vn 0.9523 0.1407 -0.2709
vn 0.9614 0.1038 0.2547
vn 0.7731 0.4626 -0.4339
vn 0.2209 -0.6282 -0.7460
vn -0.4535 -0.2594 0.8527
vn -0.3861 -0.6761 0.6275
vn -0.4664 -0.8004 -0.3766
vn 0.7860 -0.0887 0.6118
vn 0.2463 -0.9225 0.2972
vn 0.8890 -0.1843 -0.4191
vn -0.8030 -0.0821 0.5903
vn -0.9204 -0.1024 -0.3772
vn -0.9048 -0.4158 -0.0916
vn -0.8422 -0.4756 -0.2539
vn -0.4016 -0.6282 0.6664
vn 0.9071 -0.0501 0.4178
vn -0.3599 -0.5008 -0.7872
vn 0.5137 -0.1625 0.8425
vn -0.4920 -0.8277 0.2700
vn -0.9910 -0.1330 0.0128
vn -0.1592 -0.1107 0.9810
vn 0.9057 0.3533 0.2344
vn 0.7894 0.0741 0.6094
vn 0.8296 0.1137 0.5467
vn 0.4334 0.5357 -0.7247
vn -0.8950 -0.2706 0.3546
vn -0.0174 0.0664 -0.9976
vn 0.1227 0.1016 -0.9872
vn 0.9073 -0.3921 0.1522
vn 0.9091 0.0403 -0.4147
vn 0.4357 0.1198 -0.8921
vn 0.9102 0.1875 -0.3694
vn 0.1817 0.4688 -0.8644
vn 0.7507 0.5734 -0.3281
vn 0.8014 0.5961 0.0492
vn 0.9384 0.2033 -0.2794
vn 0.5190 0.4792 0.7078
vn 0.0896 0.6401 0.7630
vn 0.1103 0.3295 0.9377
vn 0.5624 0.0592 0.8248
vn -0.0023 0.9686 -0.2486
vn 0.4348 0.9005 -0.0079
vn 0.4386 0.7913 -0.4260
vn 0.0015 0.9942 0.1077
vn 0.3620 0.8395 0.4053
vn -0.0656 0.8955 0.4402
vn 0.7568 0.5110 0.4075
vn 0.5830 0.5078 -0.6342
vn 0.8430 -0.5168 -0.1492
vn 0.3467 0.2483 0.9045
vn 0.8524 -0.4960 -0.1655
vn -0.6701 -0.7187 -0.1858
vn 0.0003 0.0476 0.9989
vn -0.3615 0.1916 0.9125
vn -0.5574 0.1264 0.8205
vn 0.5946 -0.7244 0.3488
vn -0.3209 0.0160 -0.9470
vn -0.7208 -0.4642 -0.5148
vn -0.6516 0.2597 -0.7128
vn -0.6931 0.2351 -0.6814
vn 0.0572 -0.9208 0.3858
vn 0.0877 -0.9961 0.0019
vn -0.6881 -0.6257 0.3675
vn 0.0918 -0.9917 -0.0896
vn -0.8237 -0.0312 -0.5661
vn -0.9616 0.1869 -0.2009
vn -0.9049 0.1346 -0.4038
vn -0.2330 0.3781 -0.8959
vn 0.2096 0.6726 -0.7097
vn -0.5823 0.1024 -0.8065
vn -0.8366 -0.0281 -0.5472
vn -0.5756 -0.7860 -0.2256
vn -0.2426 0.8605 -0.4479
vn 0.4236 -0.8941 0.1452
vn 0.1980 -0.3568 -0.9129
vn -0.2301 -0.4254 -0.8753
vn 0.3840 -0.8778 0.2865
vn -0.6410 -0.7443 0.1875
vn 0.1287 -0.8963 0.4243
vn -0.5361 -0.2656 0.8013
vn 0.8580 -0.4338 0.2752
vn -0.9071 -0.0501 0.4178
vn -0.9534 0.1070 0.2821
vn -0.9621 0.1004 0.2536
vn -0.8630 0.3298 -0.3827
vn -0.2282 0.4388 -0.8691
vn -0.9523 0.1407 -0.2709
vn -0.7953 0.4440 -0.4127
vn -0.2245 -0.6271 -0.7459
vn 0.1582 -0.4294 0.8891
vn 0.4535 -0.2594 0.8527
vn 0.3861 -0.6761 0.6275
vn 0.4664 -0.8004 -0.3766
vn -0.8631 0.1146 -0.4919
vn -0.7860 -0.0887 0.6118
vn 0.4016 -0.6282 0.6664
vn -0.5137 -0.1625 0.8425
vn -0.2463 -0.9225 0.2972
vn 0.8422 -0.4756 -0.2539
vn 0.3599 -0.5008 -0.7872
vn -0.4334 0.5357 -0.7247
vn 0.9048 -0.4158 -0.0916
vn 0.4920 -0.8277 0.2700
vn 0.9204 -0.1024 -0.3772
vn 0.9910 -0.1330 0.0128
vn 0.9676 -0.2434 -0.0669
vn 0.8030 -0.0821 0.5903
vn 0.1592 -0.1107 0.9810
vn -0.8890 -0.1843 -0.4191
vn -0.8296 0.1137 0.5467
vn -0.7915 0.0646 0.6077
vn 0.8950 -0.2706 0.3546
vn -0.3237 0.1284 -0.9374
vn -0.9073 -0.3921 0.1522
vn -0.9091 0.0403 -0.4147
vn -0.9102 0.1875 -0.3694
vn -0.2805 0.4535 -0.8460
vn -0.5875 0.5088 -0.6292
vn -0.4396 0.7889 -0.4294
vn -0.6648 0.2217 -0.7134
vn -0.9384 0.2033 -0.2794
vn -0.7508 0.5734 -0.3278
vn -0.9033 0.3585 0.2356
vn -0.7060 0.4982 0.5034
vn -0.8063 0.5894 0.0505
vn -0.2979 0.4164 0.8590
vn -0.5579 0.0459 0.8286
vn -0.3312 0.7241 0.6050
vn -0.0081 0.7757 -0.6311
vn -0.4291 0.9029 -0.0258
vn -0.4379 0.8601 0.2619
vn -0.3040 -0.9198 -0.2482
vn -0.8524 -0.4960 -0.1655
vn 0.5227 0.2760 -0.8066
vn 0.8148 0.2117 -0.5398
vn 0.8720 0.2560 -0.4172
vn 0.9834 0.1789 0.0312
vn 0.7797 0.2276 0.5833
vn 0.9514 0.2930 0.0948
vn 0.8225 0.1334 0.5529
vn 0.4050 0.0711 0.9116
vn -0.0159 0.2273 -0.9737
vn 0.2301 0.4144 -0.8805
vn 0.0018 0.2340 -0.9722
vn 0.0001 -0.7206 0.6933
vn -0.1947 -0.9518 0.2371
vn -0.1592 -0.1358 0.9779
vn -0.0000 -0.9812 -0.1932
vn 0.1542 -0.5410 -0.8268
vn -0.0430 -0.9304 -0.3641
vn -0.1209 -0.6919 -0.7118
vn 0.2612 0.0056 0.9653
vn 0.8514 -0.0867 0.5172
vn 0.8219 -0.0143 0.5694
vn 0.9947 -0.0226 -0.1004
vn 0.9660 -0.1326 -0.2219
vn -0.9456 0.0001 0.3255
vn -0.5132 -0.0470 0.8570
vn -0.5162 -0.0325 0.8559
vn -0.0302 0.0427 -0.9986
vn 0.5297 -0.1273 -0.8386
vn -0.2506 -0.0396 -0.9673
vn 0.2658 -0.0159 0.9639
vn 0.6740 -0.0313 -0.7380
vn -0.8455 -0.0231 -0.5335
vn -0.9707 -0.0371 0.2372
vn -0.4943 0.0795 -0.8657
vn -0.8364 -0.0439 -0.5464
vn 0.1037 -0.9813 -0.1624
vn 0.1874 0.1055 0.9766
vn -0.4789 -0.1104 0.8709
vn 0.2730 -0.1165 -0.9549
vn 0.7358 -0.0628 -0.6743
vn 0.7999 0.2121 0.5614
vn 0.9831 0.1599 -0.0888
vn 0.0017 -0.3770 -0.9262
vn 0.1719 0.0319 -0.9846
vn -0.1936 -0.8034 -0.5631
vn 0.6325 -0.5812 -0.5120
vn 0.5328 0.0216 0.8459
vn 0.8481 -0.2928 0.4415
vn 0.1760 -0.3542 0.9184
vn 0.9630 -0.1965 -0.1847
vn 0.0011 -0.0605 0.9982
vn 0.3814 -0.1725 -0.9082
vn -0.2304 0.4076 -0.8836
vn 0.2739 0.0375 -0.9610
vn 0.2192 0.2974 -0.9293
vn -0.1156 0.3353 -0.9350
vn 0.4142 0.5281 -0.7413
vn 0.7648 0.6331 0.1196
vn 0.2021 0.3499 0.9147
vn 0.0140 0.2513 -0.9678
vn 0.4025 0.8787 -0.2565
vn 0.3364 0.4338 -0.8358
vn 0.7141 -0.1741 0.6781
vn -0.3060 -0.9154 0.2615
vn 0.0225 -0.4834 0.8751
vn -0.0843 -0.2421 -0.9666
vn 0.0011 0.0235 -0.9997
vn -0.0346 -0.0518 -0.9981
vn 0.4382 0.7627 0.4756
vn -0.1305 -0.2645 -0.9555
vn 0.4312 0.4462 -0.7842
vn -0.3759 -0.3824 -0.8441
vn -0.3645 -0.4669 0.8057
vn -0.6483 -0.7609 -0.0252
vn -0.5685 -0.2528 0.7829
vn -0.5113 -0.7278 -0.4570
vn -0.5675 -0.8049 0.1735
vn 0.5824 0.6505 0.4875
vn 0.7175 0.6837 -0.1331
vn 0.6563 0.7001 -0.2815
vn 0.3642 0.3179 -0.8754
vn 0.2005 0.2418 0.9494
vn 0.3610 0.3601 0.8602
vn 0.5438 0.0189 -0.8390
vn -0.2571 0.0643 -0.9642
vn -0.4685 -0.1604 0.8688
vn 0.3537 -0.1498 0.9233
vn 0.8737 -0.1235 0.4705
vn 0.9769 -0.0510 -0.2076
vn -0.8418 0.0127 -0.5397
vn -0.9782 -0.0420 0.2036
vn -0.5316 -0.1531 0.8330
vn 0.2847 -0.1746 0.9426
vn 0.4820 0.0842 -0.8721
vn -0.2688 0.0688 -0.9607
vn -0.8723 -0.0050 -0.4889
vn 0.9395 -0.1191 0.3212
vn 0.9691 -0.0118 -0.2463
vn 0.0008 -1.0000 0.0001
vn 0.0008 -1.0000 -0.0003
vn -0.0089 -0.9999 -0.0112
vn 0.0013 -1.0000 -0.0002
vn -0.5800 0.1588 -0.7990
vn -0.9589 -0.0511 -0.2793
vn -0.4877 0.0272 -0.8726
vn 0.4714 0.5167 0.7147
vn 0.7530 0.5918 0.2878
vn 0.0170 0.9271 0.3744
vn -0.9661 0.2350 0.1069
vn -0.4463 0.5275 0.7229
vn -0.7338 0.6416 0.2234
vn 0.9640 0.2053 0.1689
vn 0.5604 0.2406 0.7925
vn -0.5314 0.2494 0.8096
vn 0.9430 0.0996 0.3176
vn -0.9929 0.1008 -0.0629
vn -0.7658 0.5774 0.2830
vn 0.4466 0.0449 -0.8936
vn 0.6809 0.1782 -0.7103
vn -0.0095 0.8885 0.4587
vn 0.0180 0.4313 0.9020
vn -0.9491 -0.0391 0.3125
vn -0.3460 -0.9374 0.0398
vn 0.2110 -0.9183 0.3351
vn 0.6315 -0.6739 -0.3836
vn 0.8799 0.4515 0.1479
vn 0.6163 0.7802 -0.1068
vn -0.3222 -0.9459 -0.0395
vn -0.5445 -0.7574 -0.3605
vn 0.8465 0.5276 -0.0716
vn 0.5402 0.6905 0.4811
vn 0.7280 0.4829 -0.4867
vn 0.8672 0.3680 -0.3356
vn -0.6385 -0.5543 -0.5339
vn -0.1218 -0.1369 -0.9831
vn -0.3821 -0.9213 0.0729
vn 0.2851 -0.0162 0.9584
vn -0.0025 -0.8794 -0.4761
vn 0.5594 0.5989 -0.5731
vn 0.3207 0.4484 -0.8343
vn -0.1955 0.5697 0.7983
vn 0.1376 0.2878 0.9478
vn -0.6082 -0.6821 -0.4061
vn 0.9708 -0.0826 0.2251
vn -0.3474 -0.9332 0.0916
vn 0.6160 -0.2759 -0.7379
vn 0.7971 -0.2904 0.5295
vn 0.1529 -0.5200 0.8404
vn 0.6872 0.7240 0.0601
vn 0.7958 -0.0326 0.6046
vn 0.6807 -0.3917 -0.6191
vn -0.2631 -0.9559 0.1302
vn 0.2027 -0.4041 -0.8920
vn -0.4799 -0.5859 0.6530
vn 0.7649 -0.2597 0.5895
vn 0.6485 -0.3081 -0.6961
vn 0.6759 0.7306 -0.0971
vn -0.3288 -0.9396 0.0950
vn 0.6360 -0.5187 0.5713
vn 0.7692 -0.2387 0.5928
vn 0.6598 -0.2301 -0.7154
vn 0.9503 -0.2892 -0.1149
vn 0.2159 -0.2426 -0.9458
vn -0.8903 -0.3251 0.3189
vn 0.0763 -0.7651 0.6394
vn -0.4299 -0.6938 -0.5777
vn -0.8858 0.2711 -0.3767
vn -0.9518 0.0520 -0.3024
vn -0.9905 0.1207 0.0653
vn 0.9773 0.1839 -0.1051
vn 0.9661 0.1512 0.2093
vn 0.9913 0.0752 -0.1078
vn 0.8039 0.1868 0.5647
vn 0.5362 0.1615 0.8285
vn 0.8152 0.0659 0.5754
vn -0.9451 0.1582 0.2859
vn -0.9443 0.0382 0.3268
vn -0.8452 0.1356 0.5170
vn -0.4370 0.5094 -0.7413
vn -0.4061 0.3058 -0.8612
vn -0.6915 0.2511 -0.6774
vn -0.0442 0.2382 -0.9702
vn 0.2288 0.1554 -0.9610
vn -0.0964 0.1259 -0.9874
vn 0.6392 0.2098 -0.7398
vn 0.8885 0.1639 -0.4287
vn 0.6637 0.0945 -0.7420
vn 0.2169 0.1989 0.9557
vn -0.2207 0.1656 0.9612
vn 0.2130 0.1311 0.9682
vn -0.1613 0.2582 -0.9525
vn -0.5711 0.0758 0.8174
vn -0.5270 0.1936 0.8275
vn -0.7757 0.0156 -0.6309
vn 0.4335 -0.1205 -0.8931
vn -0.3299 -0.1074 -0.9379
vn -0.8956 -0.1068 -0.4318
vn -0.9531 -0.0825 0.2912
vn -0.4318 -0.0707 0.8992
vn 0.9128 -0.1641 -0.3740
vn 0.4171 -0.0796 0.9054
vn 0.9617 -0.0458 -0.2704
vn 0.2257 0.0778 0.9711
vn 0.3460 0.5205 0.7806
vn 0.6729 -0.4043 0.6195
vn 0.6367 0.2969 0.7116
vn 0.8858 -0.2711 0.3767
vn 0.9905 -0.1207 -0.0653
vn 0.9518 -0.0520 0.3024
vn -0.9773 -0.1839 0.1051
vn -0.9913 -0.0752 0.1078
vn -0.9661 -0.1512 -0.2093
vn -0.8039 -0.1868 -0.5647
vn -0.8152 -0.0659 -0.5754
vn -0.5362 -0.1615 -0.8285
vn 0.9451 -0.1582 -0.2859
vn 0.8452 -0.1356 -0.5170
vn 0.9443 -0.0382 -0.3268
vn 0.4370 -0.5094 0.7413
vn 0.6915 -0.2511 0.6774
vn 0.4061 -0.3058 0.8612
vn 0.0442 -0.2382 0.9702
vn 0.0964 -0.1259 0.9874
vn -0.2288 -0.1554 0.9610
vn -0.6392 -0.2098 0.7398
vn -0.6637 -0.0945 0.7420
vn -0.8885 -0.1639 0.4287
vn -0.2169 -0.1989 -0.9557
vn -0.2130 -0.1311 -0.9682
vn 0.2207 -0.1656 -0.9612
vn 0.5270 -0.1936 -0.8275
vn 0.5711 -0.0758 -0.8174
vn -0.4131 0.2723 -0.8690
vn -0.8135 0.2109 -0.5421
vn -0.7749 0.2239 0.5911
vn -0.9838 0.1764 0.0314
vn -0.9529 0.2938 0.0756
vn -0.3862 0.0731 0.9195
vn -0.8333 0.1340 0.5364
vn -0.8660 0.2741 -0.4182
vn 0.1947 -0.9518 0.2371
vn 0.1576 -0.1389 0.9777
vn -0.1037 -0.9813 -0.1624
vn -0.1542 -0.5410 -0.8268
vn 0.1209 -0.6919 -0.7118
vn 0.0430 -0.9304 -0.3641
vn 0.4794 -0.1115 0.8705
vn -0.8514 -0.0867 0.5172
vn -0.2612 0.0056 0.9653
vn -0.8219 -0.0143 0.5694
vn -0.9947 -0.0226 -0.1004
vn 0.5132 -0.0470 0.8570
vn 0.9456 0.0001 0.3255
vn 0.5162 -0.0325 0.8559
vn 0.0302 0.0427 -0.9986
vn -0.5297 -0.1273 -0.8386
vn -0.6740 -0.0313 -0.7380
vn -0.2658 -0.0159 0.9639
vn -0.9660 -0.1326 -0.2219
vn 0.9707 -0.0371 0.2372
vn 0.8455 -0.0231 -0.5335
vn 0.2506 -0.0396 -0.9673
vn 0.4943 0.0795 -0.8657
vn -0.7383 -0.0509 -0.6726
vn -0.2787 -0.0995 -0.9552
vn -0.8096 0.2098 0.5482
vn -0.9800 0.1788 -0.0870
vn -0.1822 0.0919 0.9790
vn 0.1968 -0.8074 -0.5562
vn -0.1689 0.0873 -0.9818
vn -0.5090 -0.4407 -0.7393
vn -0.3765 -0.4534 0.8079
vn -0.8522 -0.2929 0.4336
vn -0.9582 -0.2086 -0.1958
vn -0.3587 -0.1635 -0.9190
vn -0.2745 0.0291 -0.9612
vn -0.7232 0.6862 -0.0777
vn -0.4371 0.3567 0.8257
vn -0.3485 0.4401 -0.8276
vn -0.2266 0.6760 -0.7012
vn 0.2464 -0.9392 0.2392
vn -0.7440 -0.6426 0.1832
vn -0.7034 -0.1449 0.6959
vn -0.4000 0.8799 -0.2564
vn -0.4396 0.7621 0.4754
vn -0.3552 0.5244 0.7738
vn 0.3645 -0.4669 0.8057
vn 0.6483 -0.7609 -0.0252
vn 0.5675 -0.8049 0.1735
vn -0.2005 0.2418 0.9494
vn 0.5685 -0.2528 0.7829
vn 0.5113 -0.7278 -0.4570
vn 0.3759 -0.3824 -0.8441
vn 0.1305 -0.2645 -0.9555
vn -0.7012 0.6982 -0.1439
vn -0.5824 0.6505 0.4875
vn -0.6563 0.7001 -0.2815
vn -0.4312 0.4462 -0.7842
vn -0.3642 0.3179 -0.8754
vn 0.0913 -0.2434 -0.9656
vn -0.0225 -0.4834 0.8751
vn -0.3610 0.3601 0.8602
vn -0.5438 0.0189 -0.8390
vn 0.8418 0.0127 -0.5397
vn 0.2571 0.0643 -0.9642
vn 0.4685 -0.1604 0.8688
vn -0.8737 -0.1235 0.4705
vn -0.3537 -0.1498 0.9233
vn -0.9769 -0.0510 -0.2076
vn 0.5316 -0.1531 0.8330
vn 0.9782 -0.0420 0.2036
vn -0.2847 -0.1746 0.9426
vn -0.4820 0.0842 -0.8721
vn 0.2688 0.0688 -0.9607
vn -0.9395 -0.1191 0.3212
vn -0.9691 -0.0118 -0.2463
vn 0.8723 -0.0050 -0.4889
vn 0.8364 -0.0439 -0.5464
vn 0.0089 -0.9999 -0.0112
vn -0.5684 -0.5303 -0.6291
vn 0.5203 -0.4814 -0.7054
vn -0.0008 -1.0000 -0.0003
vn -0.0008 -1.0000 0.0001
vn -0.0013 -1.0000 -0.0002
vn -0.4714 0.5167 0.7147
vn -0.0170 0.9271 0.3744
vn -0.7530 0.5918 0.2878
vn -0.4466 0.0449 -0.8936
vn 0.4877 0.0272 -0.8726
vn 0.9661 0.2350 0.1069
vn 0.4463 0.5275 0.7229
vn 0.5314 0.2494 0.8096
vn -0.9640 0.2053 0.1689
vn -0.5604 0.2406 0.7925
vn 0.9589 -0.0511 -0.2793
vn 0.9929 0.1008 -0.0629
vn -0.9430 0.0996 0.3176
vn 0.7658 0.5774 0.2830
vn 0.0095 0.8885 0.4587
vn 0.7338 0.6416 0.2234
vn -0.0180 0.4313 0.9020
vn 0.9491 -0.0391 0.3125
vn -0.2110 -0.9183 0.3351
vn 0.3460 -0.9374 0.0398
vn -0.6315 -0.6739 -0.3836
vn -0.8855 0.4465 0.1289
vn -0.7717 0.6196 -0.1434
vn 0.5445 -0.7574 -0.3605
vn 0.3444 -0.9382 -0.0348
vn -0.8448 0.5322 0.0545
vn -0.7507 0.4774 -0.4566
vn -0.5316 0.6932 0.4867
vn -0.8216 0.4813 -0.3054
vn -0.3207 0.4484 -0.8343
vn 0.1218 -0.1369 -0.9831
vn 0.6385 -0.5543 -0.5339
vn 0.3827 -0.9210 0.0727
vn -0.2851 -0.0162 0.9584
vn 0.4799 -0.5859 0.6530
vn -0.5594 0.5989 -0.5731
vn -0.9708 -0.0826 0.2251
vn 0.1955 0.5697 0.7983
vn -0.6612 -0.1392 -0.7372
vn -0.8063 -0.3118 0.5027
vn 0.3045 -0.9500 0.0696
vn -0.1322 -0.4892 0.8621
vn 0.1916 -0.0033 -0.9815
vn 0.2631 -0.9559 0.1302
vn -0.6807 -0.3917 -0.6191
vn -0.2351 -0.4684 -0.8517
vn -0.7958 -0.0326 0.6046
vn -0.6485 -0.3081 -0.6961
vn -0.7649 -0.2597 0.5895
vn -0.6759 0.7306 -0.0971
vn -0.6317 -0.5363 0.5597
vn 0.3288 -0.9396 0.0950
vn -0.6598 -0.2302 -0.7154
vn -0.7692 -0.2387 0.5928
vn 0.2925 -0.9545 -0.0586
vn -0.1376 0.2878 0.9478
vn -0.9503 -0.2892 -0.1149
vn -0.0763 -0.7651 0.6394
vn 0.8903 -0.3251 0.3189
vn 0.4299 -0.6938 -0.5777
vn -0.2159 -0.2426 -0.9458
vn 0.6082 -0.6821 -0.4061
vn 0.0025 -0.8794 -0.4761
vn 0.8858 0.2711 -0.3767
vn 0.9905 0.1207 0.0653
vn 0.9518 0.0520 -0.3024
vn -0.9773 0.1839 -0.1051
vn -0.9913 0.0752 -0.1078
vn -0.9661 0.1512 0.2093
vn -0.8039 0.1868 0.5647
vn -0.8152 0.0659 0.5754
vn -0.5362 0.1615 0.8285
vn 0.9451 0.1582 0.2859
vn 0.8452 0.1356 0.5170
vn 0.9443 0.0382 0.3268
vn 0.4370 0.5094 -0.7413
vn 0.6915 0.2511 -0.6774
vn 0.4061 0.3058 -0.8612
vn 0.0442 0.2382 -0.9702
vn 0.0964 0.1259 -0.9874
vn -0.2288 0.1554 -0.9610
vn -0.6392 0.2098 -0.7398
vn -0.6637 0.0945 -0.7420
vn -0.8885 0.1639 -0.4287
vn -0.2169 0.1989 0.9557
vn -0.2130 0.1311 0.9682
vn 0.2207 0.1656 0.9612
vn 0.5270 0.1936 0.8275
vn 0.5711 0.0758 0.8174
vn -0.4335 -0.1205 -0.8931
vn 0.3299 -0.1074 -0.9379
vn 0.9531 -0.0825 0.2912
vn -0.9128 -0.1641 -0.3740
vn 0.8956 -0.1068 -0.4318
vn -0.4171 -0.0796 0.9054
vn -0.9617 -0.0458 -0.2704
vn 0.4318 -0.0707 0.8992
vn -0.2029 0.2815 0.9379
vn -0.2272 -0.4897 0.8418
vn -0.6383 0.2756 0.7188
vn -0.6892 -0.3690 0.6236
vn -0.8858 -0.2711 0.3767
vn -0.9518 -0.0520 0.3024
vn -0.9905 -0.1207 -0.0653
vn 0.9773 -0.1839 0.1051
vn 0.9661 -0.1512 -0.2093
vn 0.9913 -0.0752 0.1078
vn 0.8039 -0.1868 -0.5647
vn 0.5362 -0.1615 -0.8285
vn 0.8152 -0.0659 -0.5754
vn -0.9451 -0.1582 -0.2859
vn -0.9443 -0.0382 -0.3268
vn -0.8452 -0.1356 -0.5170
vn -0.4370 -0.5094 0.7413
vn -0.4061 -0.3058 0.8612
vn -0.6915 -0.2511 0.6774
vn -0.0442 -0.2382 0.9702
vn 0.2288 -0.1554 0.9610
vn -0.0964 -0.1259 0.9874
vn 0.6392 -0.2098 0.7398
vn 0.8885 -0.1639 0.4287
vn 0.6637 -0.0945 0.7420
vn 0.2169 -0.1989 -0.9557
vn -0.2207 -0.1656 -0.9612
vn 0.2130 -0.1311 -0.9682
vn -0.1613 -0.2582 0.9525
vn -0.5711 -0.0758 -0.8174
vn -0.5270 -0.1936 -0.8275
vn -0.7757 -0.0156 0.6309
vn 0.5847 0.1449 0.7982
vn 0.6084 -0.6143 -0.5025
vn 0.3097 -0.8544 -0.4173
vn -0.9922 -0.1245 -0.0052
vn -0.6084 -0.6143 -0.5025
vn -0.0975 -0.9869 0.1282
vn -0.0000 -0.9666 0.2564
vn -0.9676 -0.2434 -0.0669
vn 0.6619 0.2319 -0.7128
vn -0.0519 -0.9972 -0.0531
vn -0.0246 -0.9993 -0.0272
vn -0.2925 -0.9545 -0.0586
vn 0.1613 -0.2582 0.9525
vn 0.7757 -0.0156 0.6309
vn 0.1613 0.2582 -0.9525
vn 0.7757 0.0156 -0.6309
vt 0.966725 0.013251
vt 0.992483 0.113999
vt 0.934626 0.115606
vt 0.643939 0.013251
vt 0.699654 0.116889
vt 0.643939 0.116186
vt 0.534570 0.013251
vt 0.587588 0.013444
vt 0.534570 0.113999
vt 0.815507 0.013488
vt 0.757401 0.116104
vt 0.724611 0.013251
vt 0.883231 0.114473
vt 0.815507 0.115593
vt 0.883231 0.013251
vt 0.587588 0.115268
vt 0.519972 0.105229
vt 0.481804 0.142329
vt 0.519972 0.035584
vt 0.482464 0.010347
vt 0.450112 0.109261
vt 0.450112 0.047908
vt 0.498801 0.010347
vt 0.469355 0.010347
vt 0.498801 0.142329
vt 0.468868 0.142329
vt 0.682155 0.178393
vt 0.766598 0.192613
vt 0.705994 0.267367
vt 0.646337 0.278316
vt 0.655905 0.268539
vt 0.657666 0.266862
vt 0.689401 0.158477
vt 0.762282 0.195887
vt 0.705916 0.264693
vt 0.668047 0.212094
vt 0.656127 0.267255
vt 0.394388 0.692229
vt 0.381038 0.796491
vt 0.361343 0.686856
vt 0.280089 0.796304
vt 0.205183 0.796236
vt 0.227817 0.742015
vt 0.306214 0.944509
vt 0.255180 1.041835
vt 0.221818 0.928125
vt 0.389358 0.936265
vt 0.301439 0.637477
vt 0.263159 0.707585
vt 0.239636 0.648553
vt 0.233829 0.696100
vt 0.339446 0.602236
vt 0.244518 0.547121
vt 0.236557 0.729870
vt 0.045834 0.642631
vt 0.044414 0.633559
vt 0.053322 0.631233
vt 0.036549 0.612287
vt 0.032659 0.599585
vt 0.046172 0.610249
vt 0.053038 0.620746
vt 0.055164 0.625797
vt 0.027410 0.591696
vt 0.045610 0.597938
vt 0.049336 0.606770
vt 0.051344 0.599454
vt 0.043607 0.560922
vt 0.043594 0.565350
vt 0.038067 0.563697
vt 0.407416 0.654021
vt 0.473731 0.626233
vt 0.454586 0.676896
vt 0.049785 0.612958
vt 0.048867 0.609751
vt 0.055124 0.611307
vt 0.056715 0.616969
vt 0.084056 0.936265
vt 0.056453 0.995783
vt 0.053149 0.924014
vt 0.092376 0.796491
vt 0.070836 0.720294
vt 0.094061 0.668520
vt 0.161636 0.954744
vt 0.149356 1.039298
vt 0.061996 1.028768
vt 0.138718 0.679978
vt 0.254181 0.620690
vt 0.200961 0.561836
vt 0.212989 0.624001
vt 0.236697 0.625749
vt 0.133968 0.602236
vt 0.037945 0.566240
vt 0.046140 0.570701
vt 0.034629 0.571807
vt 0.045742 0.538250
vt 0.053266 0.549659
vt 0.044336 0.547344
vt 0.045596 0.583040
vt 0.030827 0.582888
vt 0.037938 0.590489
vt 0.053001 0.560170
vt 0.049315 0.574182
vt 0.043614 0.551826
vt 0.043588 0.547401
vt 0.046897 0.550933
vt 0.430882 0.551244
vt 0.385133 0.526109
vt 0.049757 0.567982
vt 0.048840 0.571196
vt 0.055108 0.569630
vt 0.056695 0.563955
vt 0.061307 0.563438
vt 0.062806 0.567239
vt 0.718100 0.423192
vt 0.745786 0.360212
vt 0.757721 0.385947
vt 0.926366 0.915524
vt 0.959609 0.919567
vt 0.939698 0.936795
vt 0.893250 0.903038
vt 0.855885 0.813249
vt 0.950889 0.833036
vt 0.952296 0.956186
vt 0.939841 0.976917
vt 0.930369 0.297944
vt 0.918106 0.297892
vt 0.919318 0.258806
vt 0.896496 0.239514
vt 0.905104 0.236691
vt 0.966025 0.677075
vt 0.957552 0.627003
vt 0.991102 0.651604
vt 0.931072 0.613185
vt 0.912369 0.674208
vt 0.869919 0.655521
vt 0.954358 0.756004
vt 0.978152 0.759532
vt 0.993950 0.691282
vt 0.994655 0.724390
vt 0.961274 0.267567
vt 0.938010 0.252112
vt 0.954512 0.251022
vt 0.939402 0.234844
vt 0.922986 0.247334
vt 0.863803 0.744051
vt 0.994457 0.786558
vt 0.946446 0.225550
vt 0.948054 0.231827
vt 0.945016 0.279370
vt 0.947567 0.239850
vt 0.986260 0.285407
vt 0.977757 0.309741
vt 0.973257 0.291280
vt 0.966474 0.308105
vt 0.948638 0.328749
vt 0.938307 0.503649
vt 0.902813 0.458526
vt 0.962365 0.489227
vt 0.928544 0.557683
vt 0.952691 0.585312
vt 0.852070 0.575513
vt 0.866120 0.513643
vt 0.972761 0.554146
vt 0.982455 0.275521
vt 0.991941 0.271781
vt 0.942027 0.313932
vt 0.941571 0.302752
vt 0.967679 0.279311
vt 0.979944 0.268920
vt 0.973121 0.262707
vt 0.878320 0.410348
vt 0.914679 0.403786
vt 0.917775 0.431781
vt 0.912509 0.332450
vt 0.913782 0.315469
vt 0.926795 0.352830
vt 0.965628 0.351827
vt 0.976919 0.359375
vt 0.959336 0.358559
vt 0.972185 0.332265
vt 0.976337 0.353110
vt 0.937541 0.364752
vt 0.902862 0.353043
vt 0.923596 0.315814
vt 0.901891 0.290670
vt 0.761143 0.564029
vt 0.757907 0.469663
vt 0.772560 0.508450
vt 0.989084 0.353269
vt 0.980135 0.348923
vt 0.841881 0.386991
vt 0.865364 0.449888
vt 0.906701 0.437385
vt 0.932442 0.320202
vt 0.831685 0.890053
vt 0.778546 0.846708
vt 0.791833 0.534065
vt 0.803610 0.642912
vt 0.786932 0.770392
vt 0.785207 0.566905
vt 0.735464 0.815229
vt 0.740073 0.668062
vt 0.729112 0.618058
vt 0.770645 0.643202
vt 0.686785 0.489941
vt 0.639266 0.490901
vt 0.643948 0.423241
vt 0.743364 0.446486
vt 0.660957 0.734520
vt 0.693690 0.647649
vt 0.715396 0.707747
vt 0.651442 0.637997
vt 0.669539 0.558572
vt 0.639412 0.565027
vt 0.712625 0.543560
vt 0.747425 0.716188
vt 0.812425 0.363011
vt 0.656285 0.303238
vt 0.692995 0.371513
vt 0.947966 0.324381
vt 0.920843 0.304788
vt 0.945181 0.307428
vt 0.782562 0.543277
vt 0.655561 0.301417
vt 0.639858 0.342855
vt 0.692936 0.371321
vt 0.745677 0.360228
vt 0.933970 0.887400
vt 0.950043 0.946656
vt 0.903816 0.227546
vt 0.901987 0.220180
vt 0.901842 0.227694
vt 0.919318 0.258806
vt 0.973120 0.262707
vt 0.954358 0.756004
vt 0.863803 0.744051
vt 0.939402 0.234844
vt 0.922986 0.247334
vt 0.950889 0.833036
vt 0.948637 0.328749
vt 0.972185 0.332265
vt 0.931688 0.498523
vt 0.928544 0.557683
vt 0.954723 0.582454
vt 0.972662 0.547798
vt 0.993394 0.272079
vt 0.941571 0.302752
vt 0.981470 0.269320
vt 0.869919 0.655521
vt 0.878320 0.410348
vt 0.881413 0.369241
vt 0.841881 0.386991
vt 0.914679 0.403786
vt 0.965628 0.351827
vt 0.976919 0.359375
vt 0.976337 0.353110
vt 0.980135 0.348923
vt 0.902862 0.353043
vt 0.917147 0.313622
vt 0.772560 0.508450
vt 0.757907 0.469663
vt 0.906701 0.437385
vt 0.917775 0.431781
vt 0.852750 0.320530
vt 0.786104 0.805050
vt 0.791833 0.534064
vt 0.803610 0.642912
vt 0.742077 0.795918
vt 0.747425 0.716188
vt 0.716277 0.707724
vt 0.775455 0.726317
vt 0.761143 0.564029
vt 0.704791 0.526312
vt 0.729112 0.618058
vt 0.664798 0.451689
vt 0.666619 0.525383
vt 0.695799 0.794863
vt 0.693690 0.647649
vt 0.682642 0.586880
vt 0.947889 0.324403
vt 0.920610 0.332675
vt 0.723348 0.419887
vt 0.159580 0.463227
vt 0.125187 0.543858
vt 0.133683 0.465756
vt 0.103191 0.535750
vt 0.078281 0.472672
vt 0.109076 0.456188
vt 0.072045 0.542061
vt 0.050518 0.488638
vt 0.197811 0.506241
vt 0.158480 0.526095
vt 0.176517 0.483201
vt 0.098187 0.017233
vt 0.041950 0.042161
vt 0.110332 0.054293
vt 0.031657 0.017233
vt 0.336752 0.123751
vt 0.358388 0.083239
vt 0.323965 0.061514
vt 0.251888 0.952657
vt 0.280776 0.891673
vt 0.277034 0.959988
vt 0.299219 0.960908
vt 0.302287 0.884943
vt 0.212874 0.935222
vt 0.238353 0.903217
vt 0.233368 0.939697
vt 0.339776 0.952920
vt 0.322919 0.889536
vt 0.344206 0.901757
vt 0.257162 0.910375
vt 0.321414 0.958374
vt 0.373547 0.939581
vt 0.389971 0.893535
vt 0.398335 0.934046
vt 0.358411 0.945893
vt 0.367565 0.907582
vt 0.375131 0.047374
vt 0.368176 0.021536
vt 0.060679 0.125116
vt 0.221233 0.102355
vt 0.057058 0.072945
vt 0.276957 0.100262
vt 0.336752 0.178187
vt 0.177708 0.241661
vt 0.065577 0.183779
vt 0.069768 0.239406
vt 0.192825 0.186026
vt 0.292760 0.021536
vt 0.218334 0.177536
vt 0.336752 0.238465
vt 0.403993 0.570461
vt 0.390898 0.612337
vt 0.381082 0.585785
vt 0.036117 0.648633
vt 0.069095 0.704165
vt 0.024314 0.698634
vt 0.105745 0.724301
vt 0.007673 0.465905
vt 0.148574 0.709859
vt 0.112374 0.798346
vt 0.158113 0.525988
vt 0.146582 0.591902
vt 0.175477 0.899402
vt 0.200299 0.941088
vt 0.175189 0.952611
vt 0.134538 0.856481
vt 0.003712 0.959981
vt 0.017931 0.962856
vt 0.003712 0.988819
vt 0.017931 0.941761
vt 0.003712 0.941761
vt 0.017931 0.925779
vt 0.123981 0.968971
vt 0.116385 0.915134
vt 0.487561 0.580810
vt 0.496119 0.616316
vt 0.482507 0.606854
vt 0.420516 0.586062
vt 0.405959 0.623502
vt 0.180563 0.613746
vt 0.183430 0.813568
vt 0.065105 0.895677
vt 0.030245 0.936208
vt 0.009594 0.902632
vt 0.411115 0.777385
vt 0.428091 0.878377
vt 0.417485 0.887625
vt 0.475983 0.813807
vt 0.482844 0.892463
vt 0.465522 0.894175
vt 0.400232 0.805909
vt 0.401418 0.893879
vt 0.389211 0.816396
vt 0.451382 0.828108
vt 0.440856 0.885754
vt 0.436561 0.776729
vt 0.423421 0.761905
vt 0.462862 0.789312
vt 0.466822 0.592804
vt 0.450388 0.581932
vt 0.376293 0.621203
vt 0.435836 0.567218
vt 0.319315 0.770525
vt 0.336337 0.765798
vt 0.216025 0.892922
vt 0.254629 0.761802
vt 0.268288 0.774453
vt 0.285384 0.771431
vt 0.301868 0.772830
vt 0.353274 0.765225
vt 0.366015 0.733850
vt 0.239387 0.733112
vt 0.256162 0.728059
vt 0.270988 0.737485
vt 0.318780 0.706386
vt 0.332328 0.701765
vt 0.346219 0.691460
vt 0.293475 0.611067
vt 0.304974 0.700891
vt 0.078020 0.890573
vt 0.106322 0.913582
vt 0.085684 0.917416
vt 0.080615 0.839647
vt 0.115370 0.884017
vt 0.570334 0.706877
vt 0.532215 0.788443
vt 0.525594 0.767114
vt 0.590112 0.936979
vt 0.564133 0.929430
vt 0.573829 0.901916
vt 0.610909 0.862673
vt 0.600605 0.911033
vt 0.585368 0.875014
vt 0.570311 0.981653
vt 0.599949 0.960747
vt 0.614560 0.917184
vt 0.520182 0.870588
vt 0.588250 0.771847
vt 0.563129 0.835708
vt 0.516489 0.745200
vt 0.556522 0.665555
vt 0.560047 0.887233
vt 0.533641 0.847557
vt 0.535072 0.812683
vt 0.380785 0.445113
vt 0.390780 0.443694
vt 0.386337 0.442397
vt 0.311063 0.400521
vt 0.316519 0.398110
vt 0.303397 0.399240
vt 0.368818 0.446337
vt 0.398261 0.434247
vt 0.280405 0.402441
vt 0.269876 0.483422
vt 0.272769 0.395517
vt 0.293776 0.400300
vt 0.296832 0.476830
vt 0.391812 0.340216
vt 0.385652 0.299980
vt 0.400414 0.430466
vt 0.351749 0.447269
vt 0.364844 0.339257
vt 0.339730 0.404708
vt 0.351358 0.383175
vt 0.323612 0.379862
vt 0.324743 0.408994
vt 0.322357 0.466417
vt 0.440384 0.483914
vt 0.430015 0.492914
vt 0.429686 0.438509
vt 0.410136 0.288801
vt 0.424046 0.289841
vt 0.408310 0.273084
vt 0.438177 0.447420
vt 0.448251 0.463080
vt 0.284667 0.560036
vt 0.279496 0.535919
vt 0.270413 0.512511
vt 0.318236 0.531191
vt 0.314456 0.556087
vt 0.364842 0.557293
vt 0.369777 0.556772
vt 0.364009 0.565221
vt 0.369644 0.445955
vt 0.356519 0.451703
vt 0.284522 0.337878
vt 0.257649 0.284782
vt 0.263770 0.281164
vt 0.347595 0.558111
vt 0.344798 0.551956
vt 0.351523 0.451397
vt 0.341199 0.462050
vt 0.342265 0.557817
vt 0.301748 0.288179
vt 0.307629 0.288596
vt 0.302446 0.344241
vt 0.387378 0.550422
vt 0.384817 0.543241
vt 0.381927 0.550040
vt 0.372514 0.447528
vt 0.320398 0.306203
vt 0.325714 0.306804
vt 0.404830 0.533084
vt 0.429421 0.385555
vt 0.465217 0.291311
vt 0.444954 0.296799
vt 0.438856 0.315588
vt 0.421020 0.438586
vt 0.424233 0.386594
vt 0.462371 0.277206
vt 0.438323 0.277705
vt 0.468243 0.281314
vt 0.353496 0.445984
vt 0.430651 0.308531
vt 0.423263 0.517946
vt 0.431312 0.328089
vt 0.216490 0.233504
vt 0.040578 0.405415
vt 0.040826 0.335176
vt 0.003118 0.295908
vt 0.237786 0.405415
vt 0.206519 0.295714
vt 0.237579 0.335140
vt 0.181564 0.405415
vt 0.158038 0.295947
vt 0.181401 0.335165
vt 0.040578 0.405415
vt 0.040834 0.335098
vt 0.058518 0.295607
vt 0.086958 0.405415
vt 0.087251 0.335620
vt 0.057893 0.366913
vt 0.130052 0.405415
vt 0.157975 0.295561
vt 0.129944 0.335091
vt 0.181597 0.405415
vt 0.206519 0.295661
vt 0.181401 0.335199
vt 0.130052 0.405415
vt 0.102706 0.295474
vt 0.130014 0.335219
vt 0.102599 0.296356
vt 0.087112 0.335176
vt 0.086958 0.405415
vt 0.003118 0.405415
vt 0.058336 0.296356
vt 0.316100 0.609559
vt 0.327122 0.607970
vt 0.338170 0.604217
vt 0.260004 0.599212
vt 0.271405 0.601567
vt 0.304973 0.609371
vt 0.348920 0.599212
vt 0.282392 0.604506
vt 0.575437 0.626995
vt 0.565668 0.578907
vt 0.575437 0.577935
vt 0.526418 0.627252
vt 0.516741 0.580068
vt 0.526418 0.578692
vt 0.555758 0.625545
vt 0.565668 0.627039
vt 0.545934 0.624804
vt 0.555758 0.578602
vt 0.536247 0.625160
vt 0.540806 0.577843
vt 0.595078 0.627639
vt 0.585471 0.576602
vt 0.595078 0.580068
vt 0.585471 0.626713
vt 0.221217 0.075137
vt 0.025009 0.753492
vt 0.048992 0.833156
vt 0.047818 0.739684
vt 0.044629 0.777341
vt 0.067123 0.809219
vt 0.003118 0.295908
vt 0.087251 0.335620
vt 0.163147 0.467455
vt 0.125187 0.543858
vt 0.074958 0.473345
vt 0.103191 0.535750
vt 0.112105 0.461355
vt 0.050161 0.492957
vt 0.072045 0.542061
vt 0.133262 0.469626
vt 0.110332 0.054293
vt 0.008997 0.032595
vt 0.323965 0.061514
vt 0.238353 0.903217
vt 0.322919 0.889536
vt 0.184512 0.244173
vt 0.194320 0.180903
vt 0.213154 0.177286
vt 0.383929 0.583297
vt 0.032771 0.689114
vt 0.150129 0.694288
vt 0.119704 0.802781
vt 0.003712 0.978337
vt 0.002895 0.931632
vt 0.017931 0.994172
vt 0.138480 0.877546
vt 0.149028 0.943567
vt 0.368104 0.597130
vt 0.502782 0.590567
vt 0.170932 0.994932
vt 0.123981 0.968971
vt 0.019444 0.908446
vt 0.048992 0.833156
vt 0.066587 0.927030
vt 0.475983 0.813807
vt 0.489478 0.813563
vt 0.462862 0.789312
vt 0.465522 0.894175
vt 0.400232 0.805909
vt 0.417485 0.887625
vt 0.411115 0.777385
vt 0.389211 0.816396
vt 0.436561 0.776729
vt 0.428091 0.878377
vt 0.423421 0.761905
vt 0.405959 0.623502
vt 0.420516 0.586062
vt 0.466822 0.592804
vt 0.216025 0.892922
vt 0.293475 0.611067
vt 0.225917 0.101581
vt 0.103888 0.804721
vt 0.084868 0.802808
vt 0.573829 0.901916
vt 0.564133 0.929430
vt 0.525594 0.767114
vt 0.570334 0.706876
vt 0.532215 0.788443
vt 0.487837 0.983792
vt 0.585368 0.875014
vt 0.533641 0.847557
vt 0.390780 0.443695
vt 0.380785 0.445112
vt 0.386337 0.442397
vt 0.316519 0.398110
vt 0.311063 0.400521
vt 0.303397 0.399240
vt 0.398261 0.434247
vt 0.368818 0.446337
vt 0.280447 0.400855
vt 0.272769 0.395517
vt 0.269876 0.483422
vt 0.295703 0.401829
vt 0.322357 0.466417
vt 0.318236 0.531191
vt 0.324743 0.408993
vt 0.385652 0.299980
vt 0.391812 0.340216
vt 0.364844 0.339258
vt 0.351749 0.447269
vt 0.339730 0.404708
vt 0.341199 0.462051
vt 0.323612 0.379862
vt 0.438177 0.447420
vt 0.286632 0.277953
vt 0.280915 0.272554
vt 0.364842 0.557293
vt 0.369777 0.556773
vt 0.279772 0.397595
vt 0.293065 0.396121
vt 0.368491 0.449952
vt 0.344798 0.551956
vt 0.347595 0.558111
vt 0.351523 0.451397
vt 0.301748 0.288179
vt 0.302446 0.344241
vt 0.297247 0.397870
vt 0.384817 0.543241
vt 0.387378 0.550422
vt 0.399645 0.533021
vt 0.403639 0.528544
vt 0.313089 0.400692
vt 0.429686 0.438509
vt 0.429421 0.385555
vt 0.424233 0.386594
vt 0.421020 0.438586
vt 0.417765 0.390881
vt 0.444954 0.296799
vt 0.465217 0.291311
vt 0.438856 0.315588
vt 0.438323 0.277705
vt 0.468243 0.281314
vt 0.408310 0.273084
vt 0.430651 0.308531
vt 0.430015 0.492914
vt 0.423263 0.517946
vt 0.431312 0.328089
vt 0.210579 0.228693
vt 0.565668 0.627039
vt 0.540806 0.577843
vt 0.516741 0.627639
vt 0.555758 0.578602
vt 0.585471 0.576602
vt 0.217479 0.113839
vt 0.186878 0.020797
vt 0.023822 0.762753
vt 0.026909 0.723749
vt 0.047818 0.739684
vt 0.093088 0.786465
vt 0.414232 1.018374
vt 0.351625 1.037438
vt 0.420265 0.924014
vt 0.029077 0.559161
vt 0.030217 0.556384
vt 0.031712 0.563172
vt 0.054798 0.603644
vt 0.046895 0.561812
vt 0.385133 0.526109
vt 0.430882 0.551244
vt 0.061319 0.617479
vt 0.062811 0.613684
vt 0.026815 0.586988
vt 0.055122 0.555103
vt 0.031686 0.549597
vt 0.029066 0.553613
vt 0.054789 0.577306
vt 0.051339 0.581505
vt 0.038053 0.549072
vt 0.632581 0.300859
vt 0.903667 0.262781
vt 0.881413 0.369241
vt 0.852750 0.320530
vt 0.924478 0.277267
vt 0.940062 0.276778
vt 0.920800 0.304744
vt 0.920599 0.332678
vt 0.865364 0.449888
vt 0.920612 0.303675
vt 0.924617 0.276357
vt 0.072997 0.850491
vt 0.489478 0.813563
vt 0.494319 0.869574
vt 0.506817 0.872286
vt 0.313089 0.400692
vt 0.353129 0.355580
vt 0.280915 0.272554
vt 0.286641 0.276563
vt 0.275469 0.397483
vt 0.264802 0.445820
vt 0.403639 0.528544
vt 0.216800 0.123751
vt 0.218666 0.024079
vt 0.263770 0.281164
vt 0.275469 0.397483
vt 0.381927 0.550040
vt 0.370145 0.444218
s 1
usemtl char_body_mat
f 6/1/1 11/2/2 5/3/3
f 8/4/4 2/5/5 13/6/6
f 6/7/1 10/8/7 11/9/2
f 7/10/8 3/11/9 4/12/10
f 14/13/11 12/14/12 7/10/8
f 6/1/1 14/13/11 9/15/13
f 10/8/7 13/6/6 1/16/14
f 7/17/8 4/18/10 9/19/13
f 9/19/13 4/18/10 6/20/1
f 4/18/10 8/21/4 6/20/1
f 10/22/7 6/20/1 8/21/4
f 12/19/12 14/17/11 3/23/9
f 3/23/9 14/17/11 2/24/5
f 14/17/11 5/25/3 2/24/5
f 2/24/5 5/25/3 13/22/6
f 5/25/3 11/26/2 13/22/6
f 13/22/6 11/26/2 1/21/14
f 19/27/15 16/28/16 20/29/17
f 18/30/18 19/27/15 15/31/19
f 17/32/20 18/30/18 20/29/17
f 20/29/17 18/30/18 15/31/19
f 16/28/16 19/27/15 17/32/20
f 19/27/15 20/29/17 15/31/19
f 24/33/21 22/34/22 25/35/23
f 25/35/23 23/36/24 15/31/25
f 25/35/23 18/30/26 21/37/27
f 15/31/25 23/36/24 18/30/26
f 22/34/22 24/33/21 23/36/24
f 94/114/89 98/115/90 97/116/91
f 103/117/92 101/118/93 99/119/94
f 104/120/95 102/121/96 105/122/97
f 99/119/94 109/123/98 108/124/99
f 106/125/100 112/126/101 107/127/102
f 107/127/102 110/128/103 101/129/93
f 116/130/104 118/131/105 113/132/106
f 116/130/104 117/133/107 118/131/105
f 115/134/108 114/135/109 117/133/107
f 125/136/110 116/130/104 127/137/111
f 125/136/110 115/134/108 116/130/104
f 116/130/104 120/138/112 121/139/113
f 119/140/114 126/141/115 118/142/105
f 124/143/116 126/141/115 105/144/97
f 127/137/111 105/122/97 125/136/110
f 125/136/110 102/121/96 123/145/117
f 127/137/111 121/139/113 124/146/116
f 124/143/116 121/147/113 120/148/112
f 141/149/118 106/125/100 107/127/102
f 124/143/116 120/148/112 113/150/106
f 113/150/106 126/141/115 124/143/116
f 130/151/119 135/152/120 138/153/121
f 135/152/120 137/154/122 138/153/121
f 135/152/120 136/155/123 137/154/122
f 134/156/124 135/157/120 130/158/119
f 132/159/125 134/156/124 128/160/126
f 133/161/127 129/162/128 132/159/125
f 128/160/126 134/156/124 139/163/129
f 134/156/124 130/158/119 139/163/129
f 130/151/119 140/164/130 139/165/129
f 137/154/122 151/166/131 122/167/132
f 140/164/130 142/168/133 119/140/114
f 128/169/126 119/140/114 117/170/107
f 132/159/125 114/135/109 133/161/127
f 142/168/133 122/167/132 141/149/118
f 130/151/119 142/168/133 140/164/130
f 158/171/134 147/172/135 148/173/136
f 143/174/137 149/175/138 150/176/139
f 160/177/140 147/178/135 156/179/141
f 155/180/142 161/181/143 136/155/123
f 162/182/144 150/176/139 156/179/141
f 145/183/145 150/176/139 162/182/144
f 149/175/138 154/184/146 150/176/139
f 143/174/137 153/185/147 149/175/138
f 177/186/148 146/187/149 131/188/150
f 160/177/140 150/176/139 136/155/123
f 147/178/135 161/181/143 148/189/136
f 161/181/143 157/190/151 148/189/136
f 162/191/144 131/188/150 146/187/149
f 155/192/142 158/171/134 157/193/151
f 150/176/139 159/194/152 136/155/123
f 151/166/131 136/155/123 159/194/152
f 100/195/153 165/196/154 102/121/96
f 129/162/128 133/161/127 144/197/155
f 123/145/117 164/198/156 114/135/109
f 102/121/96 163/199/157 123/145/117
f 133/161/127 166/200/158 144/197/155
f 175/201/159 163/199/157 165/196/154
f 171/202/160 172/203/161 176/204/162
f 176/204/162 166/200/158 164/198/156
f 176/204/162 172/203/161 177/186/148
f 178/205/163 174/206/164 96/207/165
f 93/208/166 178/205/163 94/114/89
f 260/209/167 179/210/168 169/211/169
f 260/209/167 180/212/170 179/210/168
f 180/212/170 181/213/171 179/210/168
f 263/214/172 174/206/164 181/213/171
f 181/213/171 178/205/163 173/215/173
f 181/213/171 173/215/173 172/203/161
f 171/202/160 179/210/168 172/203/161
f 167/216/174 169/211/169 171/202/160
f 93/208/166 143/217/137 146/187/149
f 96/207/165 184/218/175 95/219/176
f 98/220/90 93/221/166 97/222/91
f 93/208/166 94/114/89 97/116/91
f 185/223/177 144/197/155 166/200/158
f 131/188/150 144/197/155 185/223/177
f 189/224/178 182/225/179 264/226/180
f 187/114/181 265/227/182 264/226/180
f 104/120/95 192/121/183 100/195/153
f 191/118/184 193/228/185 197/229/186
f 197/229/186 103/117/92 99/119/94
f 103/117/92 193/228/185 104/120/95
f 197/230/186 108/231/99 109/232/98
f 112/126/101 195/125/187 196/233/188
f 191/129/184 109/232/98 110/128/103
f 110/128/103 196/233/188 191/129/184
f 203/142/189 204/140/190 202/234/191
f 201/130/192 202/133/191 200/134/193
f 201/130/192 210/235/194 212/137/195
f 210/235/194 200/134/193 208/236/196
f 201/130/192 205/138/197 198/132/198
f 212/137/195 206/139/199 201/130/192
f 211/141/200 204/140/190 203/142/189
f 209/237/201 194/238/202 211/141/200
f 212/137/195 194/239/202 209/146/201
f 210/235/194 192/121/183 194/239/202
f 212/137/195 209/146/201 206/139/199
f 209/237/201 205/148/197 206/147/199
f 195/125/187 207/149/203 196/233/188
f 211/141/200 198/150/198 209/237/201
f 214/151/204 222/153/205 219/152/206
f 219/152/206 220/240/207 240/241/208
f 218/242/209 219/157/206 213/162/210
f 218/242/209 216/243/211 227/244/212
f 213/162/210 217/161/213 216/243/211
f 227/244/212 223/245/214 218/242/209
f 214/151/204 223/246/214 225/164/215
f 221/154/216 236/166/217 220/240/207
f 222/153/205 224/247/218 221/154/216
f 225/164/215 204/140/190 226/168/219
f 227/248/212 204/140/190 225/164/215
f 216/243/211 199/249/220 202/133/191
f 227/248/212 225/164/215 223/246/214
f 226/168/219 224/247/218 222/153/205
f 226/168/219 214/151/204 225/164/215
f 243/250/221 241/251/222 247/252/223
f 243/250/221 232/253/224 241/251/222
f 245/254/225 232/255/224 246/256/226
f 240/241/208 246/256/226 242/257/227
f 235/176/228 230/258/229 247/182/223
f 234/175/230 239/184/231 237/259/232
f 228/174/233 234/175/230 238/185/234
f 235/176/228 245/254/225 220/240/207
f 232/255/224 233/189/235 246/256/226
f 246/256/226 233/189/235 242/257/227
f 215/260/236 247/252/223 231/261/237
f 242/262/227 233/263/235 243/250/221
f 235/176/228 244/194/238 239/184/231
f 220/240/207 245/254/225 246/256/226
f 230/264/229 228/217/233 247/252/223
f 220/240/207 236/166/217 244/194/238
f 248/265/239 100/195/153 192/121/183
f 215/260/236 229/266/240 213/162/210
f 249/267/241 208/236/196 199/249/220
f 217/161/213 249/267/241 199/249/220
f 248/265/239 192/121/183 208/236/196
f 266/200/242 217/161/213 229/266/240
f 165/196/154 257/268/243 175/201/159
f 257/268/243 250/269/244 251/270/245
f 252/271/246 250/269/244 257/268/243
f 258/204/247 253/202/248 252/271/246
f 252/271/246 253/202/248 250/269/244
f 266/200/242 258/204/247 249/267/241
f 259/272/249 255/273/250 254/274/251
f 259/272/249 231/261/237 255/273/250
f 187/114/181 188/275/252 255/273/250
f 186/208/253 187/114/181 255/273/250
f 174/206/164 256/276/254 188/275/252
f 260/209/167 168/277/255 251/270/245
f 261/278/256 260/209/167 251/270/245
f 180/212/170 260/209/167 261/278/256
f 262/279/257 180/212/170 261/278/256
f 256/276/254 263/214/172 262/279/257
f 255/273/250 262/279/257 254/274/251
f 253/202/248 261/278/256 251/270/245
f 265/280/182 186/221/253 264/281/180
f 186/208/253 228/217/233 238/282/234
f 182/225/179 96/207/165 188/275/252
f 186/221/253 265/280/182 190/222/258
f 186/208/253 190/116/258 187/114/181
f 231/261/237 186/208/253 255/273/250
f 267/223/259 266/200/242 229/266/240
f 215/260/236 267/223/259 229/266/240
f 267/223/259 259/272/249 266/200/242
f 280/283/260 303/284/261 276/285/262
f 307/286/263 277/287/264 281/288/265
f 309/289/266 274/290/267 277/287/264
f 278/291/268 272/292/269 444/293/270
f 303/284/261 281/288/265 276/285/262
f 282/294/271 284/295/272 294/296/273
f 270/297/274 284/295/272 282/294/271
f 273/298/275 416/299/276 318/300/277
f 283/301/278 287/302/279 268/303/280
f 275/304/281 287/302/279 289/305/282
f 284/306/283 292/307/284 286/308/285
f 273/309/286 348/310/287 288/311/288
f 286/308/285 290/312/289 283/301/278
f 269/313/290 289/305/282 348/310/287
f 285/314/291 349/315/292 284/316/283
f 416/317/293 288/311/288 291/318/294
f 285/319/295 270/320/274 318/300/277
f 283/321/296 274/322/267 286/323/297
f 293/324/298 269/325/299 273/298/275
f 281/326/265 268/327/300 275/328/301
f 277/329/264 283/321/296 268/327/300
f 279/330/302 318/300/277 270/320/274
f 269/325/299 276/331/262 275/332/301
f 320/333/303 314/334/304 301/335/305
f 274/290/267 309/289/266 304/336/306
f 308/337/307 305/338/308 304/336/306
f 307/286/263 308/337/307 309/289/266
f 303/284/261 302/339/309 307/286/263
f 306/340/310 304/336/306 305/338/308
f 319/341/311 302/339/309 303/284/261
f 319/341/311 301/342/305 302/339/309
f 271/343/312 300/344/313 272/292/269
f 297/345/314 296/346/315 310/347/316
f 297/345/314 310/347/316 320/348/303
f 312/349/317 46/350/51 311/351/318
f 312/349/317 49/352/54 46/350/51
f 310/353/316 47/354/319 49/352/54
f 310/347/316 317/355/320 316/356/321
f 446/357/322 325/358/323 315/359/324
f 320/333/303 316/360/321 323/361/325
f 319/341/311 300/344/313 298/362/326
f 319/341/311 298/362/326 299/363/327
f 324/364/328 312/365/317 311/366/318
f 327/367/329 326/368/330 322/369/331
f 333/370/332 378/371/333 372/372/334
f 330/373/335 378/374/333 329/375/336
f 321/376/337 369/377/338 328/378/339
f 328/378/339 326/368/330 332/379/340
f 323/361/325 332/379/340 327/367/329
f 325/358/323 333/370/332 315/359/324
f 315/359/324 331/380/341 313/381/342
f 313/381/342 321/376/337 324/382/328
f 314/334/304 327/367/329 330/373/335
f 316/360/321 328/378/339 332/379/340
f 314/334/304 329/375/336 325/383/323
f 317/384/320 321/376/337 328/378/339
f 288/311/288 342/385/343 340/386/344
f 349/387/292 338/388/345 292/307/284
f 347/389/346 339/390/347 287/302/279
f 287/302/279 337/391/348 289/305/282
f 349/315/292 350/392/349 470/393/350
f 348/310/287 337/391/348 342/385/343
f 338/388/345 470/394/350 341/395/351
f 338/388/345 469/396/352 347/389/346
f 340/386/344 468/397/353 346/398/354
f 350/392/349 346/398/354 344/399/355
f 469/396/352 345/400/356 339/390/347
f 339/390/347 343/401/357 337/391/348
f 337/391/348 468/397/353 342/385/343
f 292/307/284 347/389/346 290/312/289
f 469/396/352 339/390/347 347/389/346
f 291/318/294 288/311/288 350/392/349
f 294/296/273 286/323/297 274/322/267
f 354/402/358 352/403/359 351/404/359
f 353/405/360 355/406/361 354/402/358
f 359/407/362 360/408/363 367/409/364
f 358/410/365 361/411/366 363/412/367
f 354/413/368 357/414/369 364/415/370
f 355/416/371 358/410/365 352/417/372
f 352/417/372 357/414/369 351/418/373
f 355/416/371 362/419/374 361/411/366
f 353/420/375 366/421/376 360/408/363
f 354/413/368 366/421/376 353/420/375
f 359/407/362 439/422/377 356/423/378
f 365/424/379 366/421/376 364/415/370
f 358/410/365 363/412/367 357/414/369
f 363/412/367 365/424/379 364/415/370
f 365/424/379 363/412/367 361/411/366
f 366/421/376 335/425/380 336/426/381
f 362/419/374 365/424/379 361/411/366
f 364/415/370 357/414/369 363/412/367
f 306/340/310 274/290/267 304/336/306
f 397/427/382 408/428/383 396/429/384
f 396/430/384 403/431/385 373/432/386
f 388/433/387 379/434/388 397/427/382
f 382/435/389 376/436/390 391/437/391
f 397/427/382 379/434/388 408/428/383
f 370/438/392 403/431/385 369/439/338
f 370/438/392 376/436/390 382/435/389
f 371/440/393 322/441/331 368/442/394
f 395/443/395 378/444/333 388/433/387
f 395/443/395 377/445/396 381/446/397
f 379/434/388 378/444/333 371/440/393
f 407/447/398 368/448/394 374/449/399
f 376/450/390 375/451/400 414/452/401
f 378/453/333 415/454/402 372/455/334
f 376/450/390 413/456/403 377/457/396
f 376/436/390 369/439/338 321/458/337
f 376/436/390 372/459/334 375/460/400
f 374/449/399 322/461/331 326/462/330
f 378/444/333 322/441/331 371/440/393
f 387/463/404 386/464/405 384/465/406
f 386/464/405 387/463/404 370/466/392
f 387/463/404 384/465/406 383/467/407
f 388/433/387 387/463/404 383/467/407
f 370/466/392 387/463/404 388/433/387
f 382/435/389 385/468/408 370/438/392
f 394/469/409 392/470/410 391/437/391
f 392/471/410 393/472/411 389/473/412
f 390/474/413 394/475/409 377/445/396
f 393/472/411 390/474/413 395/443/395
f 389/473/412 393/472/411 395/443/395
f 398/476/414 399/477/415 400/478/416
f 399/479/415 402/480/417 396/429/384
f 402/480/417 398/481/414 401/482/418
f 396/429/384 402/480/417 397/427/382
f 402/480/417 401/482/418 397/427/382
f 404/483/419 406/484/420 403/431/385
f 406/485/420 379/434/388 368/442/394
f 414/452/401 409/486/421 413/456/403
f 409/487/421 380/488/422 413/489/403
f 412/490/423 411/491/424 414/452/401
f 410/492/425 412/493/423 380/488/422
f 410/492/425 409/487/421 411/494/424
f 389/473/412 395/443/395 382/495/389
f 401/482/418 388/433/387 397/427/382
f 415/454/402 381/496/397 380/488/422
f 415/454/402 412/493/423 372/455/334
f 412/490/423 375/451/400 372/497/334
f 412/493/423 415/454/402 380/488/422
f 381/496/397 377/498/396 413/489/403
f 275/332/301 276/331/262 281/499/265
f 285/500/426 427/501/427 422/502/428
f 275/503/429 429/504/430 426/505/431
f 268/506/432 431/507/433 424/508/434
f 284/509/435 419/510/436 428/511/437
f 416/512/438 433/513/439 423/514/440
f 273/515/441 432/516/442 417/517/443
f 269/518/444 421/519/445 425/520/446
f 283/521/447 430/522/448 418/523/449
f 433/513/439 417/517/443 434/524/450
f 428/511/437 420/525/451 286/526/452
f 286/526/452 284/509/435 428/511/437
f 285/500/426 416/512/438 423/514/440
f 433/513/439 273/515/441 417/517/443
f 422/502/428 419/510/436 284/509/435
f 284/527/435 285/500/426 422/502/428
f 432/516/442 273/515/441 269/518/444
f 269/518/444 425/520/446 432/516/442
f 429/504/430 275/503/429 268/506/432
f 268/506/432 424/508/434 429/504/430
f 421/519/445 269/518/444 275/503/429
f 275/503/429 426/505/431 421/519/445
f 431/507/433 268/506/432 283/521/447
f 283/521/447 418/523/449 431/507/433
f 430/522/448 286/526/452 420/525/451
f 286/526/452 430/522/448 283/521/447
f 273/515/441 433/513/439 416/512/438
f 423/514/440 427/501/427 285/500/426
f 423/514/440 433/513/439 435/528/453
f 346/398/354 443/529/454 436/530/455
f 344/399/355 436/530/455 442/531/456
f 341/395/351 438/532/457 441/533/458
f 345/400/356 440/534/459 343/401/357
f 470/393/350 442/531/456 438/535/457
f 341/395/351 437/536/460 469/396/352
f 343/401/357 443/529/454 468/397/353
f 443/537/454 334/538/461 439/539/377
f 438/540/457 360/541/363 336/542/381
f 345/543/356 334/538/461 440/544/459
f 437/545/460 362/546/374 345/543/356
f 441/547/458 336/542/381 335/548/380
f 442/549/456 367/550/364 360/551/363
f 436/552/455 439/539/377 367/550/364
f 279/330/302 444/553/270 293/324/298
f 274/322/267 282/294/271 294/296/273
f 445/554/462 295/555/463 311/366/318
f 448/556/464 445/554/462 305/338/308
f 447/557/465 448/556/464 446/558/322
f 302/339/309 448/556/464 308/337/307
f 285/500/466 454/559/467 460/501/468
f 275/503/469 459/505/470 462/504/471
f 268/506/472 457/508/473 464/507/474
f 284/509/475 461/511/476 451/510/477
f 416/512/478 456/514/479 455/560/480
f 273/515/481 449/517/482 465/516/483
f 269/518/484 458/520/485 453/519/486
f 283/521/487 450/523/488 463/522/489
f 461/511/476 286/526/490 452/525/491
f 286/526/490 461/511/476 284/509/475
f 285/500/466 456/514/479 416/512/478
f 455/560/480 449/517/482 273/515/481
f 454/559/467 284/509/475 451/510/477
f 284/527/475 454/559/467 285/500/466
f 465/516/483 269/518/484 273/515/481
f 269/518/484 465/516/483 458/520/485
f 462/504/471 268/506/472 275/503/469
f 268/506/472 462/504/471 457/508/473
f 453/519/486 275/503/469 269/518/484
f 275/503/469 453/519/486 459/505/470
f 464/507/474 283/521/487 268/506/472
f 283/521/487 464/507/474 450/523/488
f 463/522/489 452/525/491 286/526/490
f 286/526/490 283/521/487 463/522/489
f 273/515/481 416/512/478 455/560/480
f 456/514/479 285/500/466 460/501/468
f 478/561/492 498/562/493 271/343/312
f 477/563/494 501/564/495 479/565/496
f 474/566/497 503/567/498 477/563/494
f 479/565/496 498/562/493 476/568/499
f 481/295/500 282/294/271 491/569/501
f 270/297/274 481/295/500 482/570/502
f 473/298/503 492/571/504 608/299/505
f 491/569/501 483/323/506 481/295/500
f 484/302/507 480/301/508 471/303/509
f 475/304/510 484/302/507 471/303/509
f 489/572/511 481/306/512 483/308/513
f 473/309/514 540/573/515 472/313/516
f 487/312/517 483/308/513 480/301/508
f 472/313/516 486/305/518 475/304/510
f 541/315/519 482/314/520 481/316/512
f 485/311/521 473/309/514 608/317/522
f 270/320/274 482/319/502 492/571/504
f 472/325/523 490/324/524 473/298/503
f 471/327/525 479/574/496 475/328/526
f 480/321/527 477/575/494 471/327/525
f 492/571/504 279/330/302 270/320/274
f 472/325/523 475/332/526 476/576/499
f 507/334/528 494/333/529 511/577/530
f 499/578/531 502/337/532 503/567/498
f 502/337/532 501/564/495 503/567/498
f 497/339/533 498/562/493 501/564/495
f 497/339/533 495/579/534 498/562/493
f 511/580/530 495/579/534 497/339/533
f 495/579/534 298/362/326 496/344/535
f 495/579/534 299/363/327 298/362/326
f 81/350/77 505/349/536 504/581/537
f 505/349/536 82/352/81 296/582/315
f 43/583/78 504/581/537 311/351/318
f 494/584/529 509/356/538 512/585/539
f 518/383/540 511/577/530 500/586/541
f 638/357/542 518/358/540 500/587/541
f 505/588/536 512/585/539 510/589/543
f 494/584/529 299/363/327 511/580/530
f 504/590/537 517/364/544 493/591/545
f 271/343/312 278/291/268 478/561/492
f 517/364/544 505/365/536 510/592/543
f 526/593/546 568/371/547 522/594/548
f 524/595/549 514/596/550 526/593/546
f 523/597/551 515/598/552 520/599/553
f 568/374/547 523/597/551 522/600/548
f 562/377/554 513/376/555 521/601/556
f 519/602/557 521/601/556 525/603/558
f 516/604/559 525/603/558 509/605/538
f 526/593/546 518/358/540 508/359/560
f 524/595/549 508/359/560 506/606/561
f 513/376/555 506/606/561 517/382/544
f 507/334/528 520/599/553 516/604/559
f 509/605/538 521/601/556 510/384/543
f 522/600/548 507/334/528 518/383/540
f 510/384/543 513/376/555 517/382/544
f 485/311/521 534/385/562 540/573/515
f 542/392/563 532/386/564 485/311/521
f 530/388/565 541/607/519 489/572/511
f 531/390/566 539/389/567 484/302/507
f 529/391/568 484/302/507 486/305/518
f 540/573/515 529/391/568 486/305/518
f 530/388/565 533/395/569 662/394/570
f 661/396/571 530/388/565 539/389/567
f 532/386/564 660/397/572 534/385/562
f 542/392/563 538/398/573 532/386/564
f 537/608/574 661/396/571 531/390/566
f 535/401/575 531/390/566 529/391/568
f 662/393/570 536/399/576 542/392/563
f 660/397/572 529/391/568 534/385/562
f 539/389/567 489/572/511 487/312/517
f 661/396/571 539/389/567 531/390/566
f 541/315/519 542/392/563 488/318/577
f 491/569/501 474/609/497 483/323/506
f 545/405/578 548/610/579 551/611/580
f 544/403/581 546/402/582 543/404/581
f 547/406/583 545/405/578 546/402/582
f 550/410/584 555/612/585 553/613/586
f 631/422/587 560/614/588 551/615/580
f 546/413/589 549/414/590 543/418/591
f 550/410/584 547/416/592 544/417/593
f 551/615/580 552/616/594 545/420/595
f 549/414/590 544/417/593 543/418/591
f 547/416/592 554/419/596 548/617/579
f 559/421/597 546/413/589 545/420/595
f 631/422/587 551/615/580 548/423/579
f 559/421/597 557/424/598 556/618/599
f 555/612/585 550/410/584 549/414/590
f 555/612/585 556/618/599 557/424/598
f 557/424/598 553/613/586 555/612/585
f 558/619/600 554/419/596 557/424/598
f 552/616/594 528/426/601 559/421/597
f 556/618/599 555/612/585 549/414/590
f 306/340/310 499/578/531 474/566/497
f 506/606/561 508/359/560 638/357/542
f 600/620/602 594/621/603 588/622/604
f 595/623/605 588/624/604 563/625/606
f 570/626/607 580/627/608 594/621/603
f 574/628/609 585/629/610 566/630/611
f 594/621/603 600/620/602 570/626/607
f 579/631/612 595/623/605 563/625/606
f 566/630/611 579/631/612 574/628/609
f 564/632/613 515/633/552 561/634/614
f 515/635/552 569/636/615 561/442/614
f 562/439/554 564/632/613 595/623/605
f 568/637/547 587/638/616 580/627/608
f 587/638/616 567/639/617 582/640/618
f 595/623/605 564/632/613 599/641/619
f 605/642/620 566/450/611 567/457/617
f 514/459/550 566/630/611 565/460/621
f 515/635/552 568/637/547 569/636/615
f 574/628/609 576/643/622 577/644/623
f 578/645/624 577/465/623 576/646/622
f 575/647/625 574/628/609 577/644/623
f 573/648/626 576/643/622 579/631/612
f 578/645/624 576/646/622 573/649/626
f 584/650/627 586/651/628 581/652/629
f 582/640/618 583/475/630 584/650/627
f 582/640/618 584/650/627 587/638/616
f 566/630/611 585/629/610 583/469/630
f 590/477/631 589/653/632 591/654/633
f 592/655/634 591/654/633 589/653/632
f 593/656/635 590/657/631 588/622/604
f 592/482/634 593/656/635 594/621/603
f 563/625/606 588/624/604 591/654/633
f 598/484/636 596/483/637 595/623/605
f 600/620/602 596/658/637 597/659/638
f 570/626/607 600/620/602 597/659/638
f 600/660/602 595/623/605 596/483/637
f 570/626/607 598/485/636 561/442/614
f 606/661/639 601/662/640 602/663/641
f 604/664/642 602/663/641 603/665/643
f 571/666/644 601/667/640 605/668/620
f 604/669/642 603/492/643 571/666/644
f 603/492/643 602/670/641 601/667/640
f 580/627/608 587/638/616 575/467/625
f 580/627/608 592/482/634 594/621/603
f 592/655/634 579/631/612 563/625/606
f 604/669/642 607/454/645 514/671/550
f 571/666/644 605/668/620 572/672/646
f 565/673/621 604/664/642 514/674/550
f 572/672/646 605/668/620 567/675/617
f 475/332/526 479/676/496 476/576/499
f 482/500/647 614/559/648 620/501/649
f 475/503/650 619/505/651 622/504/652
f 471/506/653 617/508/654 624/507/655
f 481/509/656 621/511/657 611/510/658
f 608/512/659 616/514/660 615/560/661
f 473/515/662 609/517/663 625/516/664
f 472/518/665 618/520/666 613/519/667
f 480/521/668 610/523/669 623/522/670
f 621/511/657 483/526/671 612/525/672
f 483/526/671 621/511/657 481/509/656
f 482/500/647 616/514/660 608/512/659
f 615/560/661 609/517/663 473/515/662
f 614/559/648 481/509/656 611/510/658
f 481/527/656 614/559/648 482/500/647
f 625/516/664 472/518/665 473/515/662
f 472/518/665 625/516/664 618/520/666
f 622/504/652 471/506/653 475/503/650
f 471/506/653 622/504/652 617/508/654
f 613/519/667 475/503/650 472/518/665
f 475/503/650 613/519/667 619/505/651
f 624/507/655 480/521/668 471/506/653
f 480/521/668 624/507/655 610/523/669
f 623/522/670 612/525/672 483/526/671
f 483/526/671 480/521/668 623/522/670
f 473/515/662 608/512/659 615/560/661
f 616/514/660 482/500/647 620/501/649
f 538/398/573 635/529/673 660/397/572
f 536/399/576 628/530/674 538/398/573
f 533/395/569 630/532/675 662/394/570
f 632/534/676 537/608/574 535/401/575
f 662/393/570 634/531/677 536/399/576
f 629/536/678 533/395/569 661/396/571
f 635/529/673 535/401/575 660/397/572
f 635/537/673 527/538/679 632/677/676
f 629/545/678 558/678/600 633/547/680
f 630/540/675 552/541/594 634/679/677
f 527/538/679 537/543/574 632/677/676
f 554/680/596 629/545/678 537/543/574
f 633/547/680 528/542/601 630/540/675
f 634/549/677 560/681/588 628/552/674
f 628/552/674 631/539/587 635/537/673
f 490/324/524 476/576/499 478/682/492
f 474/609/497 282/294/271 306/683/310
f 636/684/681 311/366/318 504/590/537
f 305/338/308 637/685/682 499/578/531
f 493/591/545 636/684/681 504/590/537
f 493/591/545 638/558/542 639/557/683
f 499/578/531 640/686/684 502/337/532
f 636/684/681 640/686/684 637/685/682
f 640/686/684 639/557/683 638/558/542
f 500/687/541 640/686/684 638/558/542
f 497/339/533 640/686/684 500/687/541
f 482/500/685 651/501/686 646/559/687
f 475/503/688 653/504/689 650/505/690
f 471/506/691 655/507/692 648/508/693
f 481/509/694 643/510/695 652/511/696
f 608/512/697 657/513/698 647/514/699
f 473/515/700 656/516/701 641/517/702
f 472/518/703 645/519/704 649/520/705
f 480/521/706 654/522/707 642/523/708
f 657/513/698 641/517/702 658/524/709
f 652/511/696 644/525/710 483/526/711
f 483/526/711 481/509/694 652/511/696
f 482/500/685 608/512/697 647/514/699
f 657/513/698 473/515/700 641/517/702
f 646/559/687 643/510/695 481/509/694
f 481/527/694 482/500/685 646/559/687
f 656/516/701 473/515/700 472/518/703
f 472/518/703 649/520/705 656/516/701
f 653/504/689 475/503/688 471/506/691
f 471/506/691 648/508/693 653/504/689
f 645/519/704 472/518/703 475/503/688
f 475/503/688 650/505/690 645/519/704
f 655/507/692 471/506/691 480/521/706
f 480/521/706 642/523/708 655/507/692
f 654/522/707 483/526/711 644/525/710
f 483/526/711 654/522/707 480/521/706
f 473/515/700 657/513/698 608/512/697
f 647/514/699 651/501/686 482/500/685
f 647/514/699 657/513/698 659/528/712
f 4/12/10 3/11/9 2/5/5
f 8/4/4 4/12/10 2/5/5
f 11/9/2 10/8/7 1/16/14
f 7/10/8 12/14/12 3/11/9
f 9/15/13 14/13/11 7/10/8
f 6/1/1 5/3/3 14/13/11
f 10/8/7 8/4/4 13/6/6
f 17/32/20 19/27/15 18/30/18
f 16/28/16 17/32/20 20/29/17
f 18/30/26 23/36/24 21/37/27
f 25/35/23 15/31/25 18/30/26
f 24/33/21 21/37/27 23/36/24
f 25/35/23 22/34/22 23/36/24
f 21/37/27 24/33/21 25/35/23
f 182/225/179 183/707/718 184/218/175
f 94/114/89 95/219/176 98/115/90
f 104/120/95 100/195/153 102/121/96
f 105/144/97 107/127/102 101/129/93
f 103/117/92 105/122/97 101/118/93
f 103/117/92 104/120/95 105/122/97
f 99/119/94 101/118/93 109/123/98
f 107/127/102 112/126/101 111/708/719
f 101/129/93 110/128/103 109/232/98
f 107/127/102 111/708/719 110/128/103
f 123/145/117 114/135/109 115/134/108
f 118/142/105 117/170/107 119/140/114
f 116/130/104 115/134/108 117/133/107
f 125/136/110 123/145/117 115/134/108
f 116/130/104 113/132/106 120/138/112
f 127/137/111 116/130/104 121/139/113
f 119/140/114 141/149/118 126/141/115
f 118/142/105 126/141/115 113/150/106
f 126/141/115 107/127/102 105/144/97
f 127/137/111 124/146/116 105/122/97
f 125/136/110 105/122/97 102/121/96
f 141/149/118 122/167/132 106/125/100
f 126/141/115 141/149/118 107/127/102
f 129/162/128 131/188/150 155/192/142
f 135/152/120 155/180/142 136/155/123
f 134/156/124 129/162/128 135/157/120
f 129/162/128 155/192/142 135/157/120
f 132/159/125 129/162/128 134/156/124
f 137/154/122 136/155/123 151/166/131
f 138/153/121 137/154/122 122/167/132
f 142/168/133 141/149/118 119/140/114
f 128/169/126 140/164/130 119/140/114
f 128/160/126 117/133/107 132/159/125
f 132/159/125 117/133/107 114/135/109
f 128/169/126 139/165/129 140/164/130
f 142/168/133 138/153/121 122/167/132
f 130/151/119 138/153/121 142/168/133
f 158/171/134 162/191/144 156/709/141
f 158/171/134 156/709/141 147/172/135
f 158/171/134 155/192/142 131/188/150
f 160/177/140 161/181/143 147/178/135
f 155/180/142 157/190/151 161/181/143
f 149/175/138 152/259/720 154/184/146
f 160/177/140 156/179/141 150/176/139
f 162/191/144 158/171/134 131/188/150
f 157/193/151 158/171/134 148/173/136
f 150/176/139 154/184/146 159/194/152
f 136/155/123 161/181/143 160/177/140
f 162/191/144 146/187/149 143/217/137
f 145/183/145 143/174/137 150/176/139
f 145/710/145 162/191/144 143/217/137
f 102/121/96 165/196/154 163/199/157
f 131/188/150 129/162/128 144/197/155
f 123/145/117 163/199/157 170/271/721
f 123/145/117 170/271/721 164/198/156
f 133/161/127 114/135/109 164/198/156
f 133/161/127 164/198/156 166/200/158
f 175/201/159 170/271/721 163/199/157
f 168/277/255 169/211/169 175/201/159
f 175/201/159 169/211/169 167/216/174
f 170/271/721 175/201/159 167/216/174
f 176/204/162 170/271/721 171/202/160
f 170/271/721 167/216/174 171/202/160
f 176/204/162 177/186/148 166/200/158
f 177/186/148 172/203/161 173/215/173
f 177/186/148 173/215/173 146/187/149
f 170/271/721 176/204/162 164/198/156
f 146/187/149 173/215/173 178/205/163
f 94/114/89 178/205/163 95/219/176
f 95/219/176 178/205/163 96/207/165
f 178/205/163 181/213/171 174/206/164
f 168/277/255 260/209/167 169/211/169
f 180/212/170 263/214/172 181/213/171
f 179/210/168 181/213/171 172/203/161
f 171/202/160 169/211/169 179/210/168
f 184/711/175 183/712/718 95/713/176
f 93/208/166 153/282/147 143/217/137
f 96/207/165 182/225/179 184/218/175
f 98/220/90 95/714/176 93/221/166
f 146/187/149 178/205/163 93/208/166
f 185/223/177 177/186/148 131/188/150
f 185/223/177 166/200/158 177/186/148
f 189/224/178 183/707/718 182/225/179
f 187/114/181 190/116/258 265/227/182
f 191/129/184 196/233/188 194/238/202
f 191/118/184 194/239/202 193/228/185
f 193/228/185 194/239/202 192/121/183
f 197/229/186 193/228/185 103/117/92
f 193/228/185 192/121/183 104/120/95
f 99/119/94 108/124/99 197/229/186
f 111/708/719 112/126/101 196/233/188
f 191/129/184 197/230/186 109/232/98
f 110/128/103 111/708/719 196/233/188
f 200/134/193 199/249/220 208/236/196
f 201/130/192 198/132/198 203/131/189
f 201/130/192 203/131/189 202/133/191
f 200/134/193 202/133/191 199/249/220
f 210/235/194 201/130/192 200/134/193
f 201/130/192 206/139/199 205/138/197
f 211/141/200 207/149/203 204/140/190
f 198/150/198 211/141/200 203/142/189
f 194/238/202 196/233/188 211/141/200
f 212/137/195 210/235/194 194/239/202
f 210/235/194 208/236/196 192/121/183
f 195/125/187 224/247/218 207/149/203
f 196/233/188 207/149/203 211/141/200
f 209/237/201 198/150/198 205/148/197
f 240/715/208 215/260/236 213/162/210
f 219/152/206 222/153/205 221/154/216
f 219/152/206 221/154/216 220/240/207
f 218/242/209 214/158/204 219/157/206
f 219/157/206 240/715/208 213/162/210
f 218/242/209 213/162/210 216/243/211
f 218/242/209 223/245/214 214/158/204
f 221/154/216 224/247/218 236/166/217
f 204/140/190 207/149/203 226/168/219
f 227/248/212 202/234/191 204/140/190
f 216/243/211 202/133/191 227/244/212
f 216/243/211 217/161/213 199/249/220
f 226/168/219 207/149/203 224/247/218
f 226/168/219 222/153/205 214/151/204
f 243/250/221 233/263/235 232/253/224
f 215/260/236 240/715/208 243/250/221
f 228/174/233 235/176/228 234/175/230
f 245/254/225 241/179/222 232/255/224
f 240/241/208 220/240/207 246/256/226
f 247/182/223 241/179/222 235/176/228
f 234/175/230 235/176/228 239/184/231
f 259/272/249 215/260/236 231/261/237
f 235/176/228 241/179/222 245/254/225
f 215/260/236 243/250/221 247/252/223
f 240/715/208 242/262/227 243/250/221
f 235/176/228 220/240/207 244/194/238
f 228/217/233 231/261/237 247/252/223
f 235/176/228 228/174/233 230/258/229
f 213/162/210 229/266/240 217/161/213
f 252/271/246 248/265/239 208/236/196
f 249/267/241 252/271/246 208/236/196
f 266/200/242 249/267/241 217/161/213
f 248/265/239 165/196/154 100/195/153
f 165/196/154 248/265/239 257/268/243
f 248/265/239 252/271/246 257/268/243
f 175/201/159 257/268/243 168/277/255
f 257/268/243 251/270/245 168/277/255
f 253/202/248 258/204/247 254/274/251
f 266/200/242 259/272/249 258/204/247
f 258/204/247 259/272/249 254/274/251
f 249/267/241 258/204/247 252/271/246
f 264/226/180 188/275/252 187/114/181
f 96/207/165 174/206/164 188/275/252
f 188/275/252 256/276/254 255/273/250
f 262/279/257 263/214/172 180/212/170
f 256/276/254 174/206/164 263/214/172
f 255/273/250 256/276/254 262/279/257
f 254/274/251 262/279/257 261/278/256
f 253/202/248 254/274/251 261/278/256
f 250/269/244 253/202/248 251/270/245
f 183/712/718 264/716/180 95/713/176
f 186/208/253 231/261/237 228/217/233
f 189/717/178 264/716/180 183/712/718
f 264/226/180 182/225/179 188/275/252
f 215/260/236 259/272/249 267/223/259
f 280/283/260 272/292/269 303/284/261
f 307/286/263 309/289/266 277/287/264
f 278/291/268 271/343/312 272/292/269
f 303/284/261 307/286/263 281/288/265
f 279/330/302 293/324/298 318/300/277
f 270/297/274 285/570/295 284/295/272
f 294/296/273 284/295/272 286/323/297
f 283/301/278 290/312/289 287/302/279
f 275/304/281 268/303/280 287/302/279
f 284/306/283 349/387/292 292/307/284
f 273/309/286 269/313/290 348/310/287
f 286/308/285 292/307/284 290/312/289
f 269/313/290 275/304/281 289/305/282
f 285/314/291 291/318/294 349/315/292
f 291/318/294 285/314/291 416/317/293
f 416/317/293 273/309/286 288/311/288
f 293/324/298 276/331/262 269/325/299
f 281/326/265 277/329/264 268/327/300
f 277/329/264 274/322/267 283/321/296
f 299/363/327 296/346/315 297/345/314
f 320/333/303 323/361/325 314/334/304
f 304/336/306 309/289/266 308/337/307
f 307/286/263 302/339/309 308/337/307
f 272/292/269 300/344/313 303/284/261
f 300/344/313 319/341/311 303/284/261
f 319/341/311 320/348/303 301/342/305
f 271/343/312 298/362/326 300/344/313
f 312/349/317 310/353/316 49/352/54
f 310/353/316 296/582/315 47/354/319
f 311/351/318 46/350/51 43/583/78
f 320/348/303 310/347/316 316/356/321
f 301/335/305 314/334/304 325/383/323
f 295/555/463 313/718/342 324/364/328
f 446/357/322 301/587/305 325/358/323
f 312/588/317 317/355/320 310/347/316
f 272/292/269 280/283/260 444/293/270
f 311/366/318 295/555/463 324/364/328
f 320/348/303 319/341/311 299/363/327
f 297/345/314 320/348/303 299/363/327
f 318/300/277 293/324/298 273/298/275
f 324/364/328 317/592/320 312/365/317
f 333/370/332 329/719/336 378/371/333
f 331/380/341 333/370/332 372/372/334
f 331/380/341 372/372/334 321/376/337
f 330/373/335 327/367/329 322/369/331
f 328/378/339 369/377/338 326/368/330
f 330/373/335 322/369/331 378/374/333
f 332/379/340 326/368/330 327/367/329
f 323/361/325 316/360/321 332/379/340
f 325/358/323 329/719/336 333/370/332
f 315/359/324 333/370/332 331/380/341
f 313/381/342 331/380/341 321/376/337
f 314/334/304 323/361/325 327/367/329
f 316/360/321 317/384/320 328/378/339
f 314/334/304 330/373/335 329/375/336
f 317/384/320 324/382/328 321/376/337
f 288/311/288 348/310/287 342/385/343
f 350/392/349 288/311/288 340/386/344
f 349/387/292 470/394/350 338/388/345
f 287/302/279 339/390/347 337/391/348
f 292/307/284 338/388/345 347/389/346
f 348/310/287 289/305/282 337/391/348
f 338/388/345 341/395/351 469/396/352
f 340/386/344 342/385/343 468/397/353
f 350/392/349 340/386/344 346/398/354
f 339/390/347 345/400/356 343/401/357
f 470/393/350 350/392/349 344/399/355
f 337/391/348 343/401/357 468/397/353
f 349/315/292 291/318/294 350/392/349
f 290/312/289 347/389/346 287/302/279
f 353/405/360 359/611/722 356/610/723
f 354/402/358 355/406/361 352/403/359
f 353/405/360 356/610/723 355/406/361
f 439/422/377 359/407/362 367/409/364
f 354/413/368 351/418/373 357/414/369
f 355/416/371 361/411/366 358/410/365
f 359/407/362 353/420/375 360/408/363
f 352/417/372 358/410/365 357/414/369
f 355/416/371 356/617/378 362/419/374
f 356/617/378 439/720/377 334/721/461
f 356/617/378 334/721/461 362/419/374
f 354/413/368 364/415/370 366/421/376
f 365/424/379 335/425/380 366/421/376
f 335/425/380 365/424/379 362/419/374
f 360/408/363 366/421/376 336/426/381
f 313/381/342 446/357/322 315/359/324
f 396/430/384 408/722/383 403/431/385
f 370/438/392 373/432/386 403/431/385
f 370/438/392 369/439/338 376/436/390
f 374/449/399 368/448/394 322/461/331
f 379/434/388 371/440/393 368/442/394
f 369/439/338 403/431/385 374/449/399
f 395/443/395 381/446/397 378/444/333
f 381/446/397 415/723/402 378/444/333
f 395/443/395 390/474/413 377/445/396
f 403/431/385 407/447/398 374/449/399
f 388/433/387 378/444/333 379/434/388
f 376/450/390 414/452/401 413/456/403
f 374/449/399 326/462/330 369/439/338
f 376/436/390 321/458/337 372/459/334
f 385/468/408 384/724/406 386/725/405
f 383/647/407 384/724/406 385/468/408
f 385/468/408 386/725/405 370/438/392
f 383/647/407 385/468/408 382/435/389
f 393/472/411 392/471/410 394/475/409
f 391/437/391 392/470/410 389/726/412
f 390/474/413 393/472/411 394/475/409
f 377/727/396 394/469/409 376/436/390
f 376/436/390 394/469/409 391/437/391
f 402/480/417 399/479/415 398/481/414
f 401/655/418 398/476/414 400/478/416
f 400/478/416 399/477/415 396/430/384
f 401/655/418 400/478/416 373/432/386
f 373/432/386 400/478/416 396/430/384
f 403/431/385 406/484/420 407/447/398
f 408/428/383 405/728/724 404/658/419
f 405/728/724 406/485/420 404/658/419
f 379/434/388 405/728/724 408/428/383
f 408/722/383 404/483/419 403/431/385
f 407/447/398 406/484/420 368/448/394
f 406/485/420 405/728/724 379/434/388
f 414/452/401 411/491/424 409/486/421
f 412/490/423 410/665/425 411/491/424
f 409/487/421 410/492/425 380/488/422
f 389/726/412 382/435/389 391/437/391
f 388/433/387 383/467/407 395/443/395
f 383/467/407 382/495/389 395/443/395
f 401/482/418 370/466/392 388/433/387
f 401/655/418 373/432/386 370/438/392
f 414/452/401 375/451/400 412/490/423
f 380/488/422 381/496/397 413/489/403
f 423/514/440 435/528/453 427/501/427
f 416/299/276 285/319/295 318/300/277
f 346/398/354 468/397/353 443/529/454
f 344/399/355 346/398/354 436/530/455
f 341/395/351 470/394/350 438/532/457
f 469/396/352 437/536/460 345/400/356
f 470/393/350 344/399/355 442/531/456
f 341/395/351 441/533/458 437/536/460
f 343/401/357 440/534/459 443/529/454
f 443/537/454 440/544/459 334/538/461
f 437/545/460 441/547/458 335/548/380
f 438/540/457 442/679/456 360/541/363
f 345/543/356 362/546/374 334/538/461
f 437/545/460 335/548/380 362/546/374
f 441/547/458 438/540/457 336/542/381
f 442/549/456 436/552/455 367/550/364
f 436/552/455 443/537/454 439/539/377
f 293/324/298 444/553/270 280/729/260
f 293/324/298 280/729/260 276/331/262
f 279/330/302 278/730/268 444/553/270
f 274/322/267 306/683/310 282/294/271
f 311/366/318 636/684/681 445/554/462
f 445/554/462 637/685/682 305/338/308
f 445/554/462 447/557/465 295/555/463
f 295/555/463 447/557/465 446/558/322
f 305/338/308 308/337/307 448/556/464
f 448/556/464 447/557/465 445/554/462
f 301/342/305 446/558/322 448/556/464
f 313/718/342 295/555/463 446/558/322
f 302/339/309 301/342/305 448/556/464
f 455/560/480 466/524/725 449/517/482
f 460/501/468 467/528/726 456/514/479
f 456/514/479 467/528/726 455/560/480
f 478/561/492 476/568/499 498/562/493
f 477/563/494 503/567/498 501/564/495
f 479/565/496 501/564/495 498/562/493
f 492/571/504 490/324/524 279/330/302
f 270/297/274 282/294/271 481/295/500
f 484/302/507 487/312/517 480/301/508
f 475/304/510 486/305/518 484/302/507
f 489/572/511 541/607/519 481/306/512
f 473/309/514 485/311/521 540/573/515
f 487/312/517 489/572/511 483/308/513
f 472/313/516 540/573/515 486/305/518
f 541/315/519 488/318/577 482/314/520
f 608/317/522 482/314/520 488/318/577
f 488/318/577 485/311/521 608/317/522
f 480/321/527 483/323/506 474/609/497
f 472/325/523 476/576/499 490/324/524
f 471/327/525 477/575/494 479/574/496
f 480/321/527 474/609/497 477/575/494
f 494/584/529 296/346/315 299/363/327
f 507/334/528 516/604/559 494/333/529
f 474/566/497 499/578/531 503/567/498
f 502/337/532 497/339/533 501/564/495
f 500/687/541 511/580/530 497/339/533
f 306/340/310 305/338/308 499/578/531
f 498/562/493 496/344/535 271/343/312
f 498/562/493 495/579/534 496/344/535
f 496/344/535 298/362/326 271/343/312
f 512/585/539 296/346/315 494/584/529
f 505/349/536 81/350/77 82/352/81
f 296/582/315 82/352/81 47/354/319
f 43/583/78 81/350/77 504/581/537
f 512/585/539 509/356/538 510/589/543
f 518/383/540 507/334/528 511/577/530
f 517/364/544 506/718/561 493/591/545
f 638/357/542 508/359/560 518/358/540
f 494/333/529 516/604/559 509/605/538
f 505/588/536 296/346/315 512/585/539
f 511/580/530 299/363/327 495/579/534
f 473/298/503 490/324/524 492/571/504
f 517/364/544 504/590/537 505/365/536
f 520/599/553 515/598/552 519/602/557
f 526/593/546 514/596/550 568/371/547
f 513/376/555 514/596/550 524/595/549
f 519/602/557 562/377/554 521/601/556
f 568/374/547 515/598/552 523/597/551
f 520/599/553 519/602/557 525/603/558
f 516/604/559 520/599/553 525/603/558
f 526/593/546 522/594/548 518/358/540
f 524/595/549 526/593/546 508/359/560
f 513/376/555 524/595/549 506/606/561
f 507/334/528 523/597/551 520/599/553
f 509/605/538 525/603/558 521/601/556
f 522/600/548 523/597/551 507/334/528
f 510/384/543 521/601/556 513/376/555
f 485/311/521 532/386/564 534/385/562
f 530/388/565 662/394/570 541/607/519
f 529/391/568 531/390/566 484/302/507
f 541/315/519 662/393/570 542/392/563
f 539/389/567 530/388/565 489/572/511
f 540/573/515 534/385/562 529/391/568
f 661/396/571 533/395/569 530/388/565
f 532/386/564 538/398/573 660/397/572
f 542/392/563 536/399/576 538/398/573
f 535/401/575 537/608/574 531/390/566
f 660/397/572 535/401/575 529/391/568
f 484/302/507 539/389/567 487/312/517
f 488/318/577 542/392/563 485/311/521
f 544/403/581 547/406/583 546/402/582
f 547/406/583 548/610/579 545/405/578
f 551/615/580 560/614/588 552/616/594
f 546/413/589 556/618/599 549/414/590
f 550/410/584 553/613/586 547/416/592
f 549/414/590 550/410/584 544/417/593
f 547/416/592 553/613/586 554/419/596
f 545/420/595 552/616/594 559/421/597
f 527/721/679 631/720/587 548/617/579
f 554/419/596 527/721/679 548/617/579
f 559/421/597 556/618/599 546/413/589
f 559/421/597 558/619/600 557/424/598
f 559/421/597 528/426/601 558/619/600
f 554/419/596 553/613/586 557/424/598
f 595/623/605 600/660/602 588/624/604
f 579/631/612 562/439/554 595/623/605
f 566/630/611 562/439/554 579/631/612
f 561/442/614 569/636/615 570/626/607
f 568/637/547 572/446/646 587/638/616
f 568/637/547 607/723/645 572/446/646
f 587/638/616 572/446/646 567/639/617
f 570/626/607 568/637/547 580/627/608
f 570/626/607 569/636/615 568/637/547
f 599/641/619 564/632/613 561/634/614
f 566/450/611 606/661/639 565/673/621
f 568/453/547 514/671/550 607/454/645
f 605/642/620 606/661/639 566/450/611
f 566/630/611 513/458/555 562/439/554
f 562/439/554 519/462/557 564/632/613
f 514/459/550 513/458/555 566/630/611
f 564/632/613 519/462/557 515/633/552
f 578/645/624 575/467/625 577/465/623
f 579/631/612 576/643/622 574/628/609
f 580/627/608 575/467/625 578/645/624
f 573/649/626 580/627/608 578/645/624
f 583/469/630 585/629/610 586/731/628
f 583/475/630 586/651/628 584/650/627
f 581/732/629 586/731/628 585/629/610
f 582/640/618 567/639/617 583/475/630
f 566/630/611 583/469/630 567/727/617
f 581/652/629 587/638/616 584/650/627
f 589/733/632 590/657/631 593/656/635
f 588/624/604 590/477/631 591/654/633
f 593/656/635 592/482/634 589/733/632
f 563/625/606 591/654/633 592/655/634
f 588/622/604 594/621/603 593/656/635
f 599/641/619 598/484/636 595/623/605
f 596/658/637 598/485/636 597/659/638
f 561/634/614 598/484/636 599/641/619
f 570/626/607 597/659/638 598/485/636
f 606/661/639 605/642/620 601/662/640
f 571/666/644 603/492/643 601/667/640
f 604/664/642 606/661/639 602/663/641
f 585/629/610 574/628/609 581/732/629
f 581/652/629 574/495/609 587/638/616
f 573/649/626 579/734/612 580/627/608
f 587/638/616 574/495/609 575/467/625
f 580/627/608 579/734/612 592/482/634
f 607/454/645 571/666/644 572/672/646
f 604/664/642 565/673/621 606/661/639
f 604/669/642 571/666/644 607/454/645
f 615/560/661 626/524/727 609/517/663
f 620/501/649 627/528/728 616/514/660
f 616/514/660 627/528/728 615/560/661
f 492/571/504 482/319/502 608/299/505
f 538/398/573 628/530/674 635/529/673
f 536/399/576 634/531/677 628/530/674
f 533/395/569 633/533/680 630/532/675
f 537/608/574 629/536/678 661/396/571
f 662/393/570 630/535/675 634/531/677
f 629/536/678 633/533/680 533/395/569
f 635/529/673 632/534/676 535/401/575
f 635/537/673 631/539/587 527/538/679
f 630/540/675 528/542/601 552/541/594
f 527/538/679 554/680/596 537/543/574
f 554/680/596 558/678/600 629/545/678
f 633/547/680 558/678/600 528/542/601
f 634/549/677 552/551/594 560/681/588
f 628/552/674 560/681/588 631/539/587
f 490/324/524 478/682/492 278/730/268
f 279/330/302 490/324/524 278/730/268
f 474/609/497 491/569/501 282/294/271
f 636/684/681 637/685/682 445/554/462
f 493/591/545 639/557/683 636/684/681
f 499/578/531 637/685/682 640/686/684
f 636/684/681 639/557/683 640/686/684
f 638/558/542 493/591/545 506/718/561
f 497/339/533 502/337/532 640/686/684
f 647/514/699 659/528/712 651/501/686
usemtl char_face_mat
f 39/38/28 29/39/29 33/40/30
f 27/41/31 64/42/32 71/43/33
f 30/44/34 26/45/35 66/46/36
f 29/39/29 30/44/34 27/41/31
f 27/41/31 66/46/36 64/42/32
f 39/38/28 31/47/37 29/39/29
f 35/48/38 32/49/39 61/50/40
f 32/49/39 70/51/41 61/50/40
f 42/52/42 33/40/30 44/53/43
f 71/43/33 32/49/39 27/41/31
f 70/51/41 32/49/39 34/54/44
f 33/40/30 27/41/31 32/49/39
f 38/55/45 41/56/46 40/57/47
f 39/58/28 42/59/42 48/60/48
f 41/56/46 59/61/49 45/62/50
f 42/59/42 44/63/43 46/64/51
f 39/58/28 48/60/48 59/61/49
f 46/64/51 50/65/52 48/60/48
f 50/65/52 46/64/51 53/66/53
f 49/67/54 53/68/53 46/69/51
f 59/70/49 56/71/55 58/72/56
f 57/73/57 51/74/58 54/75/59
f 54/75/59 56/76/55 57/73/57
f 68/77/60 74/78/61 77/79/62
f 63/80/63 73/81/64 75/82/65
f 71/43/33 64/42/32 70/51/41
f 26/45/35 67/83/66 66/46/36
f 65/84/67 60/85/68 67/83/66
f 67/83/66 63/80/63 64/42/32
f 68/77/60 73/81/64 63/80/63
f 70/51/41 62/86/69 61/50/40
f 37/87/70 69/88/71 44/53/43
f 37/87/70 72/89/72 69/88/71
f 36/90/73 61/50/40 72/89/72
f 62/86/69 69/88/71 72/89/72
f 75/82/65 78/91/74 69/88/71
f 71/43/33 70/51/41 34/54/44
f 63/80/63 75/82/65 62/86/69
f 64/42/32 62/86/69 70/51/41
f 73/92/64 80/93/75 75/94/65
f 74/95/61 76/96/76 77/97/62
f 80/93/75 81/98/77 78/99/74
f 78/99/74 43/100/78 44/63/43
f 77/97/62 92/101/79 73/92/64
f 83/102/80 81/98/77 80/93/75
f 82/103/81 86/104/82 88/105/83
f 92/70/79 90/106/84 80/107/75
f 92/70/79 89/71/85 90/106/84
f 90/108/84 84/109/86 80/93/75
f 87/110/87 89/111/85 91/112/88
f 91/112/88 92/113/79 87/110/87
f 31/47/37 38/688/45 28/689/713
f 31/47/37 41/690/46 38/688/45
f 31/47/37 28/689/713 30/44/34
f 30/44/34 28/689/713 26/45/35
f 29/39/29 31/47/37 30/44/34
f 66/46/36 27/41/31 30/44/34
f 39/38/28 41/690/46 31/47/37
f 35/48/38 33/40/30 32/49/39
f 44/53/43 35/48/38 37/87/70
f 36/90/73 35/48/38 61/50/40
f 44/53/43 33/40/30 35/48/38
f 42/52/42 39/38/28 33/40/30
f 71/43/33 34/54/44 32/49/39
f 33/40/30 29/39/29 27/41/31
f 48/60/48 42/59/42 46/64/51
f 41/56/46 45/62/50 40/57/47
f 41/56/46 39/58/28 59/61/49
f 48/60/48 50/65/52 51/74/58
f 44/691/43 43/692/78 46/693/51
f 50/65/52 53/66/53 52/694/714
f 49/67/54 55/695/715 53/68/53
f 59/70/49 48/696/48 57/697/57
f 59/70/49 57/697/57 56/71/55
f 57/73/57 48/60/48 51/74/58
f 54/75/59 58/698/56 56/76/55
f 58/698/56 54/75/59 59/699/49
f 68/77/60 60/85/68 74/78/61
f 26/45/35 65/84/67 67/83/66
f 67/83/66 60/85/68 68/77/60
f 67/83/66 68/77/60 63/80/63
f 64/42/32 66/46/36 67/83/66
f 68/77/60 77/79/62 73/81/64
f 62/86/69 72/89/72 61/50/40
f 62/86/69 75/82/65 69/88/71
f 64/42/32 63/80/63 62/86/69
f 69/700/71 78/99/74 44/63/43
f 75/94/65 80/93/75 78/99/74
f 77/97/62 79/701/716 92/101/79
f 76/96/76 79/701/716 77/97/62
f 73/92/64 92/101/79 80/93/75
f 84/109/86 83/102/80 80/93/75
f 81/702/77 43/692/78 78/703/74
f 85/704/717 86/705/82 83/102/80
f 83/102/80 86/705/82 81/98/77
f 82/103/81 81/706/77 86/104/82
f 92/70/79 91/72/88 89/71/85
f 90/108/84 87/110/87 84/109/86
f 87/110/87 90/108/84 89/111/85
