# Blender 5.1.2
# www.blender.org
mtllib palm_tree.mtl
o palm_tree
v 1.372187 4.354166 0.081491
v 3.307604 3.812753 0.245960
v 1.375431 4.341037 -0.053039
v 3.313950 3.787071 -0.017206
v 2.880793 4.442894 0.412785
v 2.898530 4.371109 -0.322827
v 2.071785 4.535720 -0.278731
v 2.057871 4.592029 0.298295
v 3.173949 4.117181 0.372306
v 3.187899 4.060725 -0.206228
v 1.419324 4.371627 0.036772
v 2.157272 4.076063 -1.816358
v 1.302051 4.417439 -0.012518
v 1.927864 4.165680 -1.912780
v 2.341334 4.512310 -1.197580
v 1.700085 4.762810 -1.467101
v 1.459062 4.780813 -0.658316
v 1.962068 4.584317 -0.446899
v 2.314364 4.277100 -1.568547
v 1.810042 4.474110 -1.780516
v 1.383703 4.412243 -0.075079
v 0.064908 5.147617 -1.411501
v 1.307980 4.453685 0.028988
v -0.083219 5.228683 -1.207927
v 0.811403 5.272556 -1.226537
v 0.397352 5.499158 -0.657498
v 0.969091 5.096526 -0.184686
v 1.293879 4.918775 -0.631049
v 0.409408 5.235528 -1.401741
v 0.083771 5.413743 -0.954211
v 1.295139 4.303392 -0.053999
v -0.203338 5.196493 0.957414
v 1.365613 4.283192 0.059609
v -0.065478 5.156979 1.179651
v 0.300342 5.398515 0.398334
v 0.685694 5.288063 1.019539
v 1.219576 4.867657 0.518762
v 0.917300 4.954297 0.031478
v -0.027994 5.346366 0.686680
v 0.275073 5.259499 1.175238
v 1.317369 4.423475 0.093289
v 1.912353 4.705048 1.999261
v 1.436648 4.369549 0.059435
v 2.145683 4.599560 1.933036
v 1.678798 5.155107 1.407672
v 2.331009 4.860241 1.222559
v 1.964651 4.718798 0.475348
v 1.453046 4.950095 0.620554
v 1.789660 4.963601 1.788070
v 2.302603 4.731699 1.642485
v 1.511267 4.793931 0.032794
v 2.736630 4.585137 1.107279
v 1.574150 4.759748 -0.050962
v 2.859641 4.518270 0.943437
v 2.384286 5.070513 0.899117
v 2.728132 4.883605 0.441138
v 2.151608 4.940732 0.070391
v 1.881889 5.087346 0.429638
v 2.594797 4.834914 1.068715
v 2.865221 4.687917 0.708529
v 1.563775 4.804276 0.020909
v 2.897124 4.310542 -0.802520
v 1.507592 4.820130 -0.072525
v 2.787219 4.341554 -0.985294
v 2.749879 4.783659 -0.405597
v 2.442669 4.870346 -0.916495
v 1.913465 5.006184 -0.498659
v 2.154445 4.938185 -0.097903
v 2.895114 4.528917 -0.611992
v 2.653503 4.597094 -1.013796
v 1.591112 4.812768 -0.076172
v 1.317859 5.024383 -1.682467
v 1.493505 4.856749 -0.050162
v 1.126923 5.110416 -1.631585
v 1.741891 5.228938 -1.256530
v 1.208179 5.469422 -1.114303
v 1.373296 5.292433 -0.470480
v 1.791948 5.103794 -0.582045
v 1.548377 5.129080 -1.541426
v 1.128630 5.318213 -1.429570
v 1.519496 4.722050 -0.079487
v 0.064095 5.461900 -0.264039
v 1.515355 4.733377 0.030023
v 0.055995 5.484059 -0.049818
v 0.662271 5.570051 -0.447229
v 0.639628 5.631990 0.151570
v 1.219798 5.262568 0.146392
v 1.237559 5.213982 -0.323316
v 0.308349 5.548639 -0.393690
v 0.290542 5.597352 0.077247
v 1.470150 4.845374 0.002134
v 1.015032 5.467559 1.453127
v 1.565197 4.808394 0.043804
v 1.200962 5.395221 1.534641
v 1.133600 5.693627 0.871832
v 1.653318 5.491423 1.099683
v 1.741025 5.210025 0.478218
v 1.333350 5.368637 0.299488
v 1.032635 5.621644 1.208299
v 1.441376 5.462617 1.387496
v -0.033898 -0.001488 -0.296936
v 1.415482 4.460516 -0.009974
v 0.311395 -0.001487 -0.044300
v 1.448467 4.434456 0.020569
v 0.118129 -0.001488 0.295606
v 1.435868 4.444410 0.069988
v -0.225773 -0.001487 0.261071
v 1.395095 4.476623 0.069988
v -0.326059 -0.001488 -0.052270
v 1.382496 4.486578 0.020569
v -0.065777 1.023263 -0.194022
v 0.006960 1.898013 -0.179880
v 0.251212 2.822993 -0.159996
v 0.768143 3.641171 -0.088100
v 0.859430 3.569048 -0.003573
v 0.418963 2.745662 -0.025791
v 0.235151 1.869522 -0.034591
v 0.165908 0.969957 -0.036305
v 0.824562 3.596596 0.133193
v 0.354888 2.775200 0.191358
v 0.131571 1.880405 0.207445
v 0.064277 0.990318 0.218886
v 0.711724 3.685745 0.133193
v 0.147536 2.870787 0.191358
v -0.117652 1.915622 0.207445
v -0.195831 1.056207 0.218886
v 0.676856 3.713294 -0.003573
v 0.083460 2.900325 -0.025791
v -0.194666 1.926505 -0.031935
v -0.276209 1.076568 -0.036305
v 1.372187 4.354166 0.081491
v 3.307604 3.812753 0.245960
v 1.375431 4.341037 -0.053039
v 3.313950 3.787071 -0.017206
v 2.880793 4.442894 0.412785
v 2.898530 4.371109 -0.322827
v 2.071785 4.535720 -0.278731
v 2.057871 4.592029 0.298295
v 3.173949 4.117181 0.372306
v 3.187899 4.060725 -0.206228
v 1.419324 4.371627 0.036772
v 2.157272 4.076063 -1.816358
v 1.302051 4.417439 -0.012518
v 1.927864 4.165680 -1.912780
v 2.341334 4.512310 -1.197580
v 1.700085 4.762810 -1.467101
v 1.459062 4.780813 -0.658316
v 1.962068 4.584317 -0.446899
v 2.314364 4.277100 -1.568547
v 1.810042 4.474110 -1.780516
v 1.383703 4.412243 -0.075079
v 0.064908 5.147617 -1.411501
v 1.307980 4.453685 0.028988
v -0.083219 5.228683 -1.207927
v 0.811403 5.272556 -1.226537
v 0.397352 5.499158 -0.657498
v 0.969091 5.096526 -0.184686
v 1.293879 4.918775 -0.631049
v 0.409408 5.235528 -1.401741
v 0.083771 5.413743 -0.954211
v 1.295139 4.303392 -0.053999
v -0.203338 5.196493 0.957414
v 1.365613 4.283192 0.059609
v -0.065478 5.156979 1.179651
v 0.300342 5.398515 0.398334
v 0.685694 5.288063 1.019539
v 1.219576 4.867657 0.518762
v 0.917300 4.954297 0.031478
v -0.027994 5.346366 0.686680
v 0.275073 5.259499 1.175238
v 1.317369 4.423475 0.093289
v 1.912353 4.705048 1.999261
v 1.436648 4.369549 0.059435
v 2.145683 4.599560 1.933036
v 1.678798 5.155107 1.407672
v 2.331009 4.860241 1.222559
v 1.964651 4.718798 0.475348
v 1.453046 4.950095 0.620554
v 1.789660 4.963601 1.788070
v 2.302603 4.731699 1.642485
v 1.511267 4.793931 0.032794
v 2.736630 4.585137 1.107279
v 1.574150 4.759748 -0.050962
v 2.859641 4.518270 0.943437
v 2.384286 5.070513 0.899117
v 2.728132 4.883605 0.441138
v 2.151608 4.940732 0.070391
v 1.881889 5.087346 0.429638
v 2.594797 4.834914 1.068715
v 2.865221 4.687917 0.708529
v 1.563775 4.804276 0.020909
v 2.897124 4.310542 -0.802520
v 1.507592 4.820130 -0.072525
v 2.787219 4.341554 -0.985294
v 2.749879 4.783659 -0.405597
v 2.442669 4.870346 -0.916495
v 1.913465 5.006184 -0.498659
v 2.154445 4.938185 -0.097903
v 2.895114 4.528917 -0.611992
v 2.653503 4.597094 -1.013796
v 1.591112 4.812768 -0.076172
v 1.317859 5.024383 -1.682467
v 1.493505 4.856749 -0.050162
v 1.126923 5.110416 -1.631585
v 1.741891 5.228938 -1.256530
v 1.208179 5.469422 -1.114303
v 1.373296 5.292433 -0.470480
v 1.791948 5.103794 -0.582045
v 1.548377 5.129080 -1.541426
v 1.128630 5.318213 -1.429570
v 1.519496 4.722050 -0.079487
v 0.064095 5.461900 -0.264039
v 1.515355 4.733377 0.030023
v 0.055995 5.484059 -0.049818
v 0.662271 5.570051 -0.447229
v 0.639628 5.631990 0.151570
v 1.219798 5.262568 0.146392
v 1.237559 5.213982 -0.323316
v 0.308349 5.548639 -0.393690
v 0.290542 5.597352 0.077247
v 1.470150 4.845374 0.002134
v 1.015032 5.467559 1.453127
v 1.565197 4.808394 0.043804
v 1.200962 5.395221 1.534641
v 1.133600 5.693627 0.871832
v 1.653318 5.491423 1.099683
v 1.741025 5.210025 0.478218
v 1.333350 5.368637 0.299488
v 1.032635 5.621644 1.208299
v 1.441376 5.462617 1.387496
vn 0.9128 0.4081 -0.0178
vn 0.1898 0.9776 -0.0908
vn -0.2978 0.9494 -0.0998
vn 0.7395 0.6715 -0.0477
vn 0.4939 0.4952 -0.7148
vn 0.3339 0.9393 0.0786
vn 0.1192 0.8526 0.5087
vn 0.4884 0.7205 -0.4923
vn -0.2031 0.8499 -0.4862
vn 0.5412 0.8388 0.0598
vn 0.7738 0.5255 0.3538
vn 0.0582 0.9413 -0.3325
vn -0.2685 0.9059 0.3276
vn 0.5094 0.8444 -0.1658
vn 0.7730 0.5000 -0.3906
vn -0.0017 0.9844 0.1761
vn 0.4678 0.6816 0.5626
vn 0.3125 0.8936 -0.3224
vn 0.1083 0.6893 -0.7163
vn 0.4612 0.8392 0.2881
vn 0.7780 0.5004 0.3799
vn 0.2314 0.9491 -0.2136
vn -0.1694 0.8615 -0.4787
vn 0.6569 0.7281 0.1960
vn 0.8195 0.3811 -0.4281
vn 0.2560 0.9666 0.0100
vn -0.1635 0.9517 0.2598
vn 0.6966 0.6475 -0.3090
vn 0.1217 0.6914 -0.7122
vn 0.4364 0.8899 0.1327
vn 0.4587 0.6792 0.5729
vn 0.2556 0.8450 -0.4698
vn -0.3837 0.9170 -0.1094
vn 0.5355 0.8419 -0.0668
vn 0.8713 0.4905 -0.0178
vn -0.0759 0.9915 -0.1054
vn 0.0921 0.8397 0.5351
vn 0.4601 0.8314 -0.3115
vn 0.5046 0.5225 -0.6873
vn 0.2430 0.9311 0.2721
vn 0.4978 -0.3163 -0.8075
vn 0.7823 -0.5411 0.3085
vn 0.0375 0.0474 0.9982
vn -0.7074 0.6359 0.3085
vn -0.4229 0.4111 -0.8075
vn -0.6410 0.0569 -0.7654
vn -0.5885 0.0620 -0.8061
vn -0.5678 0.1673 -0.8060
vn -0.4723 0.3666 -0.8016
vn -0.9517 0.0391 0.3046
vn -0.9478 0.0903 0.3057
vn -0.9159 0.2594 0.3064
vn -0.7735 0.5563 0.3039
vn -0.0997 0.0714 0.9925
vn 0.0032 0.0126 0.9999
vn 0.0025 0.0174 0.9998
vn 0.0249 0.0540 0.9982
vn 0.8625 0.1251 0.4904
vn 0.9246 -0.0719 0.3740
vn 0.8990 -0.1926 0.3934
vn 0.8350 -0.4556 0.3084
vn 0.5878 0.0946 -0.8034
vn 0.5558 -0.0412 -0.8303
vn 0.5252 -0.1017 -0.8449
vn 0.5265 -0.2616 -0.8089
vn -0.5929 0.0393 -0.8043
vn -0.5850 0.0603 -0.8088
vn -0.5678 0.1672 -0.8060
vn -0.4622 0.3631 -0.8090
vn -0.9522 0.0395 0.3031
vn -0.9470 0.0893 0.3087
vn -0.9160 0.2597 0.3056
vn -0.7716 0.5562 0.3087
vn 0.0100 0.0396 0.9992
vn 0.0019 0.0131 0.9999
vn 0.0069 0.0149 0.9999
vn 0.0385 0.0487 0.9981
vn 0.9283 0.0785 0.3634
vn 0.9164 -0.0642 0.3951
vn 0.9256 -0.2256 0.3038
vn 0.8363 -0.4556 0.3050
vn 0.5755 0.0994 -0.8118
vn 0.5341 -0.0308 -0.8449
vn 0.5800 -0.1359 -0.8032
vn 0.5345 -0.2643 -0.8028
vn -0.9128 -0.4081 0.0178
vn -0.1898 -0.9776 0.0908
vn 0.2978 -0.9494 0.0998
vn -0.7395 -0.6715 0.0477
vn -0.4939 -0.4952 0.7148
vn -0.3339 -0.9393 -0.0786
vn -0.1192 -0.8526 -0.5087
vn -0.4884 -0.7205 0.4923
vn 0.2031 -0.8499 0.4862
vn -0.5412 -0.8388 -0.0598
vn -0.7738 -0.5255 -0.3538
vn -0.0582 -0.9413 0.3325
vn 0.2685 -0.9059 -0.3276
vn -0.5094 -0.8444 0.1658
vn -0.7730 -0.5000 0.3906
vn 0.0017 -0.9844 -0.1761
vn -0.4678 -0.6816 -0.5626
vn -0.3125 -0.8936 0.3224
vn -0.1083 -0.6893 0.7163
vn -0.4612 -0.8392 -0.2881
vn -0.7780 -0.5004 -0.3799
vn -0.2314 -0.9491 0.2136
vn 0.1694 -0.8615 0.4787
vn -0.6569 -0.7281 -0.1960
vn -0.8195 -0.3811 0.4281
vn -0.2560 -0.9666 -0.0100
vn 0.1635 -0.9517 -0.2598
vn -0.6966 -0.6475 0.3090
vn -0.1217 -0.6914 0.7122
vn -0.4364 -0.8899 -0.1327
vn -0.4587 -0.6792 -0.5729
vn -0.2556 -0.8450 0.4698
vn 0.3837 -0.9170 0.1094
vn -0.5355 -0.8419 0.0668
vn -0.8713 -0.4905 0.0178
vn 0.0759 -0.9915 0.1054
vn -0.0921 -0.8397 -0.5351
vn -0.4601 -0.8314 0.3115
vn -0.5046 -0.5225 0.6873
vn -0.2430 -0.9311 -0.2721
vt 0.829869 0.522166
vt 1.000000 1.000000
vt 0.829869 1.034977
vt 0.659738 0.557143
vt 0.329869 1.000000
vt 0.329869 0.557143
vt 0.000000 1.000000
vt 0.000000 0.557143
vt 0.659738 1.000000
vt 1.000000 0.557143
vt 0.800000 0.900000
vt 1.000000 0.900000
vt 0.800000 1.000000
vt 0.600000 0.900000
vt 0.400000 1.000000
vt 0.400000 0.900000
vt 0.200000 0.900000
vt 0.000000 1.000000
vt 0.000000 0.900000
vt 0.200000 0.500000
vt 0.000000 0.600000
vt 0.000000 0.500000
vt 0.200000 0.600000
vt 0.000000 0.700000
vt 0.200000 0.700000
vt 0.000000 0.800000
vt 0.200000 0.800000
vt 0.400000 0.600000
vt 0.400000 0.500000
vt 0.400000 0.700000
vt 0.400000 0.800000
vt 0.600000 0.600000
vt 0.600000 0.500000
vt 0.600000 0.700000
vt 0.600000 0.800000
vt 0.800000 0.600000
vt 0.800000 0.500000
vt 0.800000 0.700000
vt 0.800000 0.800000
vt 1.000000 0.500000
vt 1.000000 0.600000
vt 1.000000 0.700000
vt 1.000000 0.800000
vt 0.600000 1.000000
vt 0.200000 1.000000
s 0
usemtl grass00
f 9/1/1 4/2/1 10/3/1
f 5/4/2 7/5/2 8/6/2
f 8/6/3 3/7/3 1/8/3
f 5/4/4 10/3/4 6/9/4
f 19/1/5 14/2/5 20/3/5
f 15/4/6 17/5/6 18/6/6
f 18/6/7 13/7/7 11/8/7
f 15/4/8 20/3/8 16/9/8
f 29/1/9 24/2/9 30/3/9
f 25/4/10 27/5/10 28/6/10
f 28/6/11 23/7/11 21/8/11
f 29/1/12 26/9/12 25/4/12
f 39/1/13 34/2/13 40/3/13
f 35/4/14 37/5/14 38/6/14
f 38/6/15 33/7/15 31/8/15
f 35/4/16 40/3/16 36/9/16
f 49/1/17 44/2/17 50/3/17
f 45/4/18 47/5/18 48/6/18
f 48/6/19 43/7/19 41/8/19
f 45/4/20 50/3/20 46/9/20
f 59/1/21 54/2/21 60/3/21
f 55/4/22 57/5/22 58/6/22
f 58/6/23 53/7/23 51/8/23
f 55/4/24 60/3/24 56/9/24
f 62/10/25 70/3/25 69/1/25
f 65/4/26 67/5/26 68/6/26
f 68/6/27 63/7/27 61/8/27
f 65/4/28 70/3/28 66/9/28
f 79/1/29 74/2/29 80/3/29
f 75/4/30 77/5/30 78/6/30
f 78/6/31 73/7/31 71/8/31
f 79/1/32 76/9/32 75/4/32
f 89/1/33 84/2/33 90/3/33
f 85/4/34 87/5/34 88/6/34
f 88/6/35 83/7/35 81/8/35
f 85/4/36 90/3/36 86/9/36
f 99/1/37 94/2/37 100/3/37
f 98/6/38 96/9/38 97/5/38
f 98/6/39 93/7/39 91/8/39
f 95/4/40 100/3/40 96/9/40
f 9/1/1 2/10/1 4/2/1
f 5/4/2 6/9/2 7/5/2
f 8/6/3 7/5/3 3/7/3
f 5/4/4 9/1/4 10/3/4
f 19/1/5 12/10/5 14/2/5
f 15/4/6 16/9/6 17/5/6
f 18/6/7 17/5/7 13/7/7
f 15/4/8 19/1/8 20/3/8
f 29/1/9 22/10/9 24/2/9
f 25/4/10 26/9/10 27/5/10
f 28/6/11 27/5/11 23/7/11
f 29/1/12 30/3/12 26/9/12
f 39/1/13 32/10/13 34/2/13
f 35/4/14 36/9/14 37/5/14
f 38/6/15 37/5/15 33/7/15
f 35/4/16 39/1/16 40/3/16
f 49/1/17 42/10/17 44/2/17
f 45/4/18 46/9/18 47/5/18
f 48/6/19 47/5/19 43/7/19
f 45/4/20 49/1/20 50/3/20
f 59/1/21 52/10/21 54/2/21
f 55/4/22 56/9/22 57/5/22
f 58/6/23 57/5/23 53/7/23
f 55/4/24 59/1/24 60/3/24
f 62/10/25 64/2/25 70/3/25
f 65/4/26 66/9/26 67/5/26
f 68/6/27 67/5/27 63/7/27
f 65/4/28 69/1/28 70/3/28
f 79/1/29 72/10/29 74/2/29
f 75/4/30 76/9/30 77/5/30
f 78/6/31 77/5/31 73/7/31
f 79/1/32 80/3/32 76/9/32
f 89/1/33 82/10/33 84/2/33
f 85/4/34 86/9/34 87/5/34
f 88/6/35 87/5/35 83/7/35
f 85/4/36 89/1/36 90/3/36
f 99/1/37 92/10/37 94/2/37
f 98/6/38 95/4/38 96/9/38
f 98/6/39 97/5/39 93/7/39
f 95/4/40 99/1/40 100/3/40
f 139/1/86 140/3/86 134/2/86
f 135/4/87 138/6/87 137/5/87
f 138/6/88 131/8/88 133/7/88
f 135/4/89 136/9/89 140/3/89
f 149/1/90 150/3/90 144/2/90
f 145/4/91 148/6/91 147/5/91
f 148/6/92 141/8/92 143/7/92
f 145/4/93 146/9/93 150/3/93
f 159/1/94 160/3/94 154/2/94
f 155/4/95 158/6/95 157/5/95
f 158/6/96 151/8/96 153/7/96
f 159/1/97 155/4/97 156/9/97
f 169/1/98 170/3/98 164/2/98
f 165/4/99 168/6/99 167/5/99
f 168/6/100 161/8/100 163/7/100
f 165/4/101 166/9/101 170/3/101
f 179/1/102 180/3/102 174/2/102
f 175/4/103 178/6/103 177/5/103
f 178/6/104 171/8/104 173/7/104
f 175/4/105 176/9/105 180/3/105
f 189/1/106 190/3/106 184/2/106
f 185/4/107 188/6/107 187/5/107
f 188/6/108 181/8/108 183/7/108
f 185/4/109 186/9/109 190/3/109
f 192/10/110 199/1/110 200/3/110
f 195/4/111 198/6/111 197/5/111
f 198/6/112 191/8/112 193/7/112
f 195/4/113 196/9/113 200/3/113
f 209/1/114 210/3/114 204/2/114
f 205/4/115 208/6/115 207/5/115
f 208/6/116 201/8/116 203/7/116
f 209/1/117 205/4/117 206/9/117
f 219/1/118 220/3/118 214/2/118
f 215/4/119 218/6/119 217/5/119
f 218/6/120 211/8/120 213/7/120
f 215/4/121 216/9/121 220/3/121
f 229/1/122 230/3/122 224/2/122
f 228/6/123 227/5/123 226/9/123
f 228/6/124 221/8/124 223/7/124
f 225/4/125 226/9/125 230/3/125
f 139/1/86 134/2/86 132/10/86
f 135/4/87 137/5/87 136/9/87
f 138/6/88 133/7/88 137/5/88
f 135/4/89 140/3/89 139/1/89
f 149/1/90 144/2/90 142/10/90
f 145/4/91 147/5/91 146/9/91
f 148/6/92 143/7/92 147/5/92
f 145/4/93 150/3/93 149/1/93
f 159/1/94 154/2/94 152/10/94
f 155/4/95 157/5/95 156/9/95
f 158/6/96 153/7/96 157/5/96
f 159/1/97 156/9/97 160/3/97
f 169/1/98 164/2/98 162/10/98
f 165/4/99 167/5/99 166/9/99
f 168/6/100 163/7/100 167/5/100
f 165/4/101 170/3/101 169/1/101
f 179/1/102 174/2/102 172/10/102
f 175/4/103 177/5/103 176/9/103
f 178/6/104 173/7/104 177/5/104
f 175/4/105 180/3/105 179/1/105
f 189/1/106 184/2/106 182/10/106
f 185/4/107 187/5/107 186/9/107
f 188/6/108 183/7/108 187/5/108
f 185/4/109 190/3/109 189/1/109
f 192/10/110 200/3/110 194/2/110
f 195/4/111 197/5/111 196/9/111
f 198/6/112 193/7/112 197/5/112
f 195/4/113 200/3/113 199/1/113
f 209/1/114 204/2/114 202/10/114
f 205/4/115 207/5/115 206/9/115
f 208/6/116 203/7/116 207/5/116
f 209/1/117 206/9/117 210/3/117
f 219/1/118 214/2/118 212/10/118
f 215/4/119 217/5/119 216/9/119
f 218/6/120 213/7/120 217/5/120
f 215/4/121 220/3/121 219/1/121
f 229/1/122 224/2/122 222/10/122
f 228/6/123 226/9/123 225/4/123
f 228/6/124 223/7/124 227/5/124
f 225/4/125 230/3/125 229/1/125
usemtl Material
f 102/2/41 115/11/41 114/12/41
f 104/13/42 119/14/42 115/11/42
f 119/14/43 108/15/43 123/16/43
f 108/15/44 127/17/44 123/16/44
f 127/17/45 102/18/45 114/19/45
f 109/20/46 111/21/46 101/22/46
f 130/23/47 112/24/47 111/21/47
f 129/25/48 113/26/48 112/24/48
f 127/17/49 113/26/49 128/27/49
f 126/28/50 109/20/50 107/29/50
f 125/30/51 130/23/51 126/28/51
f 124/31/52 129/25/52 125/30/52
f 124/31/53 127/17/53 128/27/53
f 122/32/54 107/29/54 105/33/54
f 121/34/55 126/28/55 122/32/55
f 120/35/56 125/30/56 121/34/56
f 120/35/57 123/16/57 124/31/57
f 118/36/58 105/33/58 103/37/58
f 117/38/59 122/32/59 118/36/59
f 116/39/60 121/34/60 117/38/60
f 116/39/61 119/14/61 120/35/61
f 101/40/62 118/36/62 103/37/62
f 111/41/63 117/38/63 118/36/63
f 112/42/64 116/39/64 117/38/64
f 114/12/65 116/39/65 113/43/65
f 102/2/41 104/13/41 115/11/41
f 104/13/42 106/44/42 119/14/42
f 119/14/43 106/44/43 108/15/43
f 108/15/44 110/45/44 127/17/44
f 127/17/45 110/45/45 102/18/45
f 109/20/66 130/23/66 111/21/66
f 130/23/67 129/25/67 112/24/67
f 129/25/68 128/27/68 113/26/68
f 127/17/69 114/19/69 113/26/69
f 126/28/70 130/23/70 109/20/70
f 125/30/71 129/25/71 130/23/71
f 124/31/72 128/27/72 129/25/72
f 124/31/73 123/16/73 127/17/73
f 122/32/74 126/28/74 107/29/74
f 121/34/75 125/30/75 126/28/75
f 120/35/76 124/31/76 125/30/76
f 120/35/77 119/14/77 123/16/77
f 118/36/78 122/32/78 105/33/78
f 117/38/79 121/34/79 122/32/79
f 116/39/80 120/35/80 121/34/80
f 116/39/81 115/11/81 119/14/81
f 101/40/82 111/41/82 118/36/82
f 111/41/83 112/42/83 117/38/83
f 112/42/84 113/43/84 116/39/84
f 114/12/85 115/11/85 116/39/85
